Zainer-GoticoAntiqua96G-1.1.ufo
<glyph name="ampersand" format="2">
	<advance width="460"/>
	<unicode hex="0026"/>
	<note>
		ampersand
  </note>
	<outline>
		<contour>
			<point x="249" y="0" type="curve"/>
			<point x="264" y="-10" type="line"/>
			<point x="406" y="37" type="line"/>
			<point x="406" y="69" type="line"/>
			<point x="367" y="69"/>
			<point x="357" y="84"/>
			<point x="357" y="137" type="curve"/>
			<point x="357" y="184"/>
			<point x="358" y="222"/>
			<point x="359" y="255" type="curve"/>
			<point x="434" y="293" type="line"/>
			<point x="424" y="322" type="line"/>
			<point x="360" y="289" type="line"/>
			<point x="365" y="369"/>
			<point x="374" y="409"/>
			<point x="388" y="455" type="curve"/>
			<point x="367" y="467" type="line"/>
			<point x="344" y="449"/>
			<point x="318" y="434"/>
			<point x="283" y="434" type="curve"/>
			<point x="232" y="434"/>
			<point x="184" y="465"/>
			<point x="107" y="465" type="curve"/>
			<point x="26" y="465"/>
			<point x="23" y="355"/>
			<point x="35" y="282" type="curve"/>
			<point x="66" y="289" type="line"/>
			<point x="59" y="365"/>
			<point x="83" y="365"/>
			<point x="116" y="365" type="curve"/>
			<point x="159" y="365"/>
			<point x="206" y="353"/>
			<point x="278" y="344" type="curve"/>
			<point x="272" y="310"/>
			<point x="267" y="275"/>
			<point x="263" y="239" type="curve"/>
			<point x="73" y="141" type="line"/>
			<point x="92" y="104" type="line"/>
			<point x="94" y="103" type="line"/>
			<point x="141" y="137"/>
			<point x="199" y="171"/>
			<point x="260" y="204" type="curve"/>
			<point x="254" y="135"/>
			<point x="252" y="66"/>
		</contour>
	</outline>
</glyph>
<glyph name="comma" format="2">
	<advance width="229"/>
	<unicode hex="002C"/>
	<note>
		comma
	</note>
	<outline>
		<contour>
			<point x="64" y="-141" type="line"/>
			<point x="224" y="43" type="line"/>
			<point x="224" y="53" type="line"/>
			<point x="127" y="152" type="line"/>
			<point x="122" y="152" type="line"/>
			<point x="45" y="74" type="line"/>
			<point x="45" y="68" type="line"/>
			<point x="114" y="-2"/>
			<point x="113" y="2"/>
			<point x="87" y="-29" type="curve" smooth="yes"/>
			<point x="25" y="-101" type="line"/>
		</contour>
	</outline>
</glyph>
<glyph name="hyphen" format="2">
	<advance width="376"/>
	<unicode hex="002D"/>
	<note>
		hyphen
	</note>
	<outline>
		<contour>
			<point x="70" y="254" type="line"/>
			<point x="274" y="369" type="line"/>
			<point x="314" y="446" type="line"/>
			<point x="306" y="455" type="line"/>
			<point x="79" y="304" type="line"/>
			<point x="60" y="258" type="line"/>
		</contour>
		<contour>
			<point x="30" y="130" type="line"/>
			<point x="356" y="303" type="line"/>
			<point x="355" y="314" type="line"/>
			<point x="275" y="315" type="line"/>
			<point x="62" y="199" type="line"/>
			<point x="20" y="138" type="line"/>
		</contour>
	</outline>
</glyph>
<glyph name="period" format="2">
	<advance width="200"/>
	<unicode hex="002E"/>
	<note>
		period
	</note>
	<outline>
		<contour>
			<point x="97" y="-10" type="line"/>
			<point x="102" y="-10" type="line"/>
			<point x="180" y="68" type="line"/>
			<point x="180" y="74" type="line"/>
			<point x="102" y="152" type="line"/>
			<point x="97" y="152" type="line"/>
			<point x="20" y="74" type="line"/>
			<point x="20" y="68" type="line"/>
		</contour>
	</outline>
</glyph>
<glyph name="zero" format="2">
	<advance width="466"/>
	<unicode hex="0030"/>
	<outline>
		<contour>
			<point x="260" y="-10" type="curve"/>
			<point x="349" y="68"/>
			<point x="446" y="108"/>
			<point x="446" y="258" type="curve" smooth="yes"/>
			<point x="446" y="358"/>
			<point x="359" y="465"/>
			<point x="221" y="465" type="curve"/>
			<point x="123" y="440"/>
			<point x="20" y="327"/>
			<point x="20" y="217" type="curve" smooth="yes"/>
			<point x="20" y="107"/>
			<point x="99" y="1"/>
		</contour>
		<contour>
			<point x="301" y="83" type="curve"/>
			<point x="190" y="82"/>
			<point x="101" y="161"/>
			<point x="101" y="271" type="curve" smooth="yes"/>
			<point x="101" y="310"/>
			<point x="118" y="362"/>
			<point x="153" y="380" type="curve"/>
			<point x="267" y="393"/>
			<point x="366" y="307"/>
			<point x="366" y="217" type="curve" smooth="yes"/>
			<point x="366" y="157"/>
			<point x="342" y="112"/>
		</contour>
	</outline>
</glyph>
<glyph name="one" format="2">
	<advance width="195"/>
	<unicode hex="0031"/>
	<note>
		one
	</note>
	<outline>
		<contour>
			<point x="65" y="-17" type="line"/>
			<point x="155" y="30" type="line"/>
			<point x="150" y="185"/>
			<point x="148" y="310"/>
			<point x="149" y="465" type="curve"/>
			<point x="144" y="465" type="line"/>
			<point x="50" y="415" type="line"/>
			<point x="55" y="353"/>
			<point x="45" y="62"/>
			<point x="40" y="-10" type="curve"/>
		</contour>
	</outline>
</glyph>
<glyph name="two" format="2">
	<advance width="493"/>
	<unicode hex="0032"/>
	<note>
		two
	</note>
	<outline>
		<contour>
			<point x="27" y="-9" type="line"/>
			<point x="107" y="2"/>
			<point x="228" y="3"/>
			<point x="408" y="-6" type="curve"/>
			<point x="473" y="92" type="line"/>
			<point x="468" y="104" type="line"/>
			<point x="356" y="95"/>
			<point x="248" y="91"/>
			<point x="136" y="90" type="curve"/>
			<point x="371" y="331" type="line" smooth="yes"/>
			<point x="403" y="363"/>
			<point x="399" y="365"/>
			<point x="463" y="363" type="curve"/>
			<point x="467" y="455" type="line"/>
			<point x="74" y="455" type="line"/>
			<point x="27" y="365" type="line"/>
			<point x="34" y="350" type="line"/>
			<point x="62" y="356"/>
			<point x="152" y="361"/>
			<point x="329" y="362" type="curve"/>
			<point x="21" y="23" type="line"/>
			<point x="20" y="19" type="line"/>
		</contour>
	</outline>
</glyph>
<glyph name="three" format="2">
	<advance width="406"/>
	<unicode hex="0033"/>
	<note>
		three
	</note>
	<outline>
		<contour>
			<point x="89" y="-265" type="line"/>
			<point x="261" y="-131"/>
			<point x="365" y="-63"/>
			<point x="365" y="27" type="curve" smooth="yes"/>
			<point x="365" y="126"/>
			<point x="281" y="171"/>
			<point x="191" y="180" type="curve"/>
			<point x="381" y="310" type="line"/>
			<point x="381" y="336" type="line"/>
			<point x="295" y="382"/>
			<point x="230" y="415"/>
			<point x="162" y="465" type="curve"/>
			<point x="157" y="465" type="line"/>
			<point x="25" y="366" type="line"/>
			<point x="44" y="338" type="line"/>
			<point x="80" y="360"/>
			<point x="107" y="363"/>
			<point x="144" y="341" type="curve" smooth="yes"/>
			<point x="253" y="278" type="line"/>
			<point x="181" y="216"/>
			<point x="113" y="166"/>
			<point x="46" y="133" type="curve"/>
			<point x="80" y="104" type="line"/>
			<point x="158" y="146"/>
			<point x="268" y="76"/>
			<point x="268" y="-8" type="curve" smooth="yes"/>
			<point x="268" y="-98"/>
			<point x="173" y="-147"/>
			<point x="30" y="-231" type="curve"/>
		</contour>
	</outline>
</glyph>
<glyph name="four" format="2">
	<advance width="504"/>
	<unicode hex="0034"/>
	<note>
		four
  </note>
	<outline>
		<contour>
			<point x="312" y="-258" type="curve"/>
			<point x="331" y="-266" type="line"/>
			<point x="419" y="-208" type="line"/>
			<point x="420" y="-148"/>
			<point x="420" y="-75"/>
			<point x="420" y="0" type="curve"/>
			<point x="421" y="0" type="line" smooth="yes"/>
			<point x="460" y="0"/>
			<point x="469" y="-3"/>
			<point x="481" y="-34" type="curve"/>
			<point x="508" y="-33" type="line"/>
			<point x="509" y="90" type="line"/>
			<point x="420" y="90" type="line"/>
			<point x="420" y="258"/>
			<point x="420" y="416"/>
			<point x="426" y="452" type="curve"/>
			<point x="397" y="465" type="line"/>
			<point x="0" y="28" type="line"/>
			<point x="12" y="0" type="line"/>
			<point x="322" y="0" type="line"/>
			<point x="322" y="-127"/>
			<point x="320" y="-233"/>
		</contour>
		<contour>
			<point x="322" y="90" type="curve"/>
			<point x="119" y="90" type="line"/>
			<point x="321" y="312" type="line"/>
			<point x="321" y="244"/>
			<point x="322" y="166"/>
		</contour>
	</outline>
</glyph>
<glyph name="five" format="2">
	<advance width="442"/>
	<unicode hex="0035"/>
	<note>
		five
  </note>
	<outline>
		<contour>
			<point x="30" y="-240" type="curve"/>
			<point x="92" y="-265" type="line"/>
			<point x="95" y="-265" type="line"/>
			<point x="265" y="-138"/>
			<point x="401" y="-46"/>
			<point x="401" y="61" type="curve"/>
			<point x="401" y="140"/>
			<point x="349" y="164"/>
			<point x="255" y="217" type="curve"/>
			<point x="185" y="256"/>
			<point x="147" y="269"/>
			<point x="157" y="320" type="curve"/>
			<point x="427" y="417" type="line"/>
			<point x="415" y="464" type="line"/>
			<point x="54" y="329" type="line"/>
			<point x="47" y="298"/>
			<point x="47" y="267"/>
			<point x="54" y="236" type="curve"/>
			<point x="206" y="114"/>
			<point x="301" y="85"/>
			<point x="301" y="8" type="curve"/>
			<point x="301" y="-53"/>
			<point x="245" y="-110"/>
		</contour>
	</outline>
</glyph>
<glyph name="six" format="2">
	<advance width="454"/>
	<unicode hex="0036"/>
	<note>
		six
  </note>
	<outline>
		<contour>
			<point x="243" y="-10" type="curve"/>
			<point x="243" y="-10" type="line"/>
			<point x="313" y="50"/>
			<point x="444" y="134"/>
			<point x="444" y="263" type="curve"/>
			<point x="444" y="394"/>
			<point x="355" y="445"/>
			<point x="261" y="465" type="curve"/>
			<point x="111" y="378" type="line"/>
			<point x="153" y="552"/>
			<point x="316" y="651"/>
			<point x="404" y="679" type="curve"/>
			<point x="394" y="715" type="line"/>
			<point x="193" y="657"/>
			<point x="20" y="466"/>
			<point x="20" y="247" type="curve"/>
			<point x="20" y="127"/>
			<point x="76" y="13"/>
		</contour>
		<contour>
			<point x="255" y="95" type="curve"/>
			<point x="255" y="95" type="line"/>
			<point x="156" y="95"/>
			<point x="92" y="205"/>
			<point x="103" y="328" type="curve"/>
			<point x="202" y="403"/>
			<point x="375" y="361"/>
			<point x="375" y="228" type="curve"/>
			<point x="375" y="138"/>
			<point x="315" y="95"/>
		</contour>
	</outline>
</glyph>
<glyph name="seven" format="2">
	<advance width="471"/>
	<unicode hex="0037"/>
	<note>
		seven
  </note>
	<outline>
		<contour>
			<point x="22" y="6" type="line"/>
			<point x="82" y="-13" type="line"/>
			<point x="210" y="139"/>
			<point x="409" y="388"/>
			<point x="466" y="432" type="curve"/>
			<point x="458" y="465" type="line"/>
			<point x="387" y="451"/>
			<point x="236" y="454"/>
			<point x="65" y="455" type="curve"/>
			<point x="20" y="352" type="line"/>
			<point x="52" y="339" type="line"/>
			<point x="72" y="366"/>
			<point x="205" y="357"/>
			<point x="337" y="363" type="curve"/>
			<point x="21" y="20" type="line"/>
		</contour>
	</outline>
</glyph>
<glyph name="eight" format="2">
	<advance width="484"/>
	<unicode hex="0038"/>
	<note>
		eight
  </note>
	<outline>
		<contour>
			<point x="265" y="-10" type="curve"/>
			<point x="265" y="-10" type="line"/>
			<point x="321" y="8"/>
			<point x="441" y="78"/>
			<point x="441" y="218" type="curve"/>
			<point x="441" y="287"/>
			<point x="417" y="348"/>
			<point x="338" y="392" type="curve"/>
			<point x="388" y="429"/>
			<point x="444" y="478"/>
			<point x="444" y="553" type="curve"/>
			<point x="444" y="645"/>
			<point x="367" y="715"/>
			<point x="241" y="715" type="curve"/>
			<point x="144" y="715"/>
			<point x="40" y="645"/>
			<point x="40" y="533" type="curve"/>
			<point x="40" y="453"/>
			<point x="88" y="394"/>
			<point x="166" y="356" type="curve"/>
			<point x="87" y="300"/>
			<point x="49" y="235"/>
			<point x="49" y="167" type="curve"/>
			<point x="49" y="64"/>
			<point x="132" y="-10"/>
		</contour>
		<contour>
			<point x="293" y="413" type="curve"/>
			<point x="293" y="413" type="line"/>
			<point x="187" y="451"/>
			<point x="130" y="499"/>
			<point x="130" y="567" type="curve"/>
			<point x="130" y="628"/>
			<point x="178" y="677"/>
			<point x="244" y="677" type="curve"/>
			<point x="316" y="677"/>
			<point x="374" y="622"/>
			<point x="374" y="552" type="curve"/>
			<point x="374" y="482"/>
			<point x="331" y="442"/>
		</contour>
		<contour>
			<point x="267" y="89" type="curve"/>
			<point x="267" y="89" type="line"/>
			<point x="192" y="89"/>
			<point x="126" y="130"/>
			<point x="126" y="211" type="curve"/>
			<point x="126" y="257"/>
			<point x="153" y="299"/>
			<point x="209" y="339" type="curve"/>
			<point x="332" y="290"/>
			<point x="389" y="270"/>
			<point x="389" y="199" type="curve"/>
			<point x="389" y="131"/>
			<point x="326" y="89"/>
		</contour>
	</outline>
</glyph>
<glyph name="nine" format="2">
	<advance width="469"/>
	<unicode hex="0039"/>
	<note>
		nine
  </note>
	<outline>
		<contour>
			<point x="42" y="-231" type="curve"/>
			<point x="65" y="-265" type="line"/>
			<point x="266" y="-207"/>
			<point x="439" y="-16"/>
			<point x="439" y="203" type="curve"/>
			<point x="439" y="323"/>
			<point x="386" y="446"/>
			<point x="186" y="460" type="curve"/>
			<point x="117" y="400"/>
			<point x="15" y="316"/>
			<point x="15" y="187" type="curve"/>
			<point x="15" y="66"/>
			<point x="95" y="15"/>
			<point x="198" y="-15" type="curve"/>
			<point x="347" y="71" type="line"/>
			<point x="303" y="-103"/>
			<point x="130" y="-203"/>
		</contour>
		<contour>
			<point x="356" y="123" type="curve"/>
			<point x="356" y="123" type="line"/>
			<point x="257" y="55"/>
			<point x="84" y="96"/>
			<point x="84" y="235" type="curve"/>
			<point x="84" y="306"/>
			<point x="134" y="355"/>
			<point x="204" y="355" type="curve"/>
			<point x="310" y="355"/>
			<point x="368" y="251"/>
		</contour>
	</outline>
</glyph>
<glyph name="colon" format="2">
	<advance width="200"/>
	<unicode hex="003A"/>
	<note>
		colon
  </note>
	<outline>
		<contour>
			<point x="20" y="381" type="line"/>
			<point x="97" y="303" type="line"/>
			<point x="102" y="303" type="line"/>
			<point x="180" y="381" type="line"/>
			<point x="180" y="387" type="line"/>
			<point x="102" y="465" type="line"/>
			<point x="97" y="465" type="line"/>
			<point x="20" y="387" type="line"/>
		</contour>
		<contour>
			<point x="20" y="88" type="line"/>
			<point x="97" y="10" type="line"/>
			<point x="102" y="10" type="line"/>
			<point x="180" y="88" type="line"/>
			<point x="180" y="94" type="line"/>
			<point x="102" y="172" type="line"/>
			<point x="97" y="172" type="line"/>
			<point x="20" y="94" type="line"/>
		</contour>
	</outline>
</glyph>
<glyph name="question" format="2">
	<advance width="458"/>
	<unicode hex="003F"/>
	<note>
		question
  </note>
	<outline>
		<contour>
			<point x="40" y="360" type="line"/>
			<point x="123" y="282" type="line"/>
			<point x="128" y="282" type="line"/>
			<point x="264" y="400" type="line"/>
			<point x="274" y="559" type="line"/>
			<point x="284" y="559"/>
			<point x="355" y="535"/>
			<point x="379" y="511" type="curve"/>
			<point x="383" y="511" type="line"/>
			<point x="428" y="665" type="line"/>
			<point x="386" y="662"/>
			<point x="335" y="657"/>
			<point x="293" y="650" type="curve"/>
			<point x="259" y="614"/>
			<point x="242" y="580"/>
			<point x="216" y="530" type="curve"/>
			<point x="212" y="486"/>
			<point x="218" y="425"/>
			<point x="194" y="381" type="curve"/>
			<point x="126" y="442" type="line"/>
			<point x="121" y="442" type="line"/>
			<point x="40" y="365" type="line"/>
		</contour>
		<contour>
			<point x="55" y="69" type="line"/>
			<point x="132" y="-9" type="line"/>
			<point x="137" y="-9" type="line"/>
			<point x="215" y="69" type="line"/>
			<point x="215" y="75" type="line"/>
			<point x="137" y="153" type="line"/>
			<point x="132" y="153" type="line"/>
			<point x="55" y="75" type="line"/>
		</contour>
	</outline>
</glyph>
<glyph name="A" format="2">
	<advance width="784"/>
	<unicode hex="0041"/>
	<note>
		A
  </note>
	<outline>
		<contour>
			<point x="384" y="-10" type="curve"/>
			<point x="384" y="-10" type="line"/>
			<point x="413" y="-10" type="line"/>
			<point x="440" y="81"/>
			<point x="484" y="163"/>
			<point x="539" y="244" type="curve"/>
			<point x="575" y="136"/>
			<point x="597" y="59"/>
			<point x="605" y="0" type="curve"/>
			<point x="774" y="0" type="line"/>
			<point x="774" y="30" type="line"/>
			<point x="730" y="73"/>
			<point x="670" y="203"/>
			<point x="612" y="345" type="curve"/>
			<point x="613" y="346"/>
			<point x="615" y="348"/>
			<point x="616" y="350" type="curve"/>
			<point x="646" y="389"/>
			<point x="650" y="398"/>
			<point x="700" y="375" type="curve"/>
			<point x="748" y="414" type="line"/>
			<point x="718" y="428"/>
			<point x="692" y="440"/>
			<point x="655" y="449" type="curve"/>
			<point x="640" y="432"/>
			<point x="619" y="409"/>
			<point x="596" y="382" type="curve"/>
			<point x="566" y="457"/>
			<point x="536" y="532"/>
			<point x="509" y="598" type="curve"/>
			<point x="578" y="595"/>
			<point x="634" y="594"/>
			<point x="656" y="596" type="curve"/>
			<point x="743" y="689" type="line"/>
			<point x="721" y="703" type="line"/>
			<point x="685" y="681"/>
			<point x="466" y="683"/>
			<point x="128" y="690" type="curve"/>
			<point x="98" y="660"/>
			<point x="68" y="620"/>
			<point x="18" y="563" type="curve"/>
			<point x="55" y="554" type="line"/>
			<point x="87" y="596"/>
			<point x="104" y="609"/>
			<point x="146" y="609" type="curve"/>
			<point x="184" y="609"/>
			<point x="235" y="608"/>
			<point x="290" y="606" type="curve"/>
			<point x="255" y="530"/>
			<point x="221" y="451"/>
			<point x="188" y="377" type="curve"/>
			<point x="169" y="398"/>
			<point x="152" y="415"/>
			<point x="138" y="430" type="curve"/>
			<point x="114" y="430"/>
			<point x="57" y="428"/>
			<point x="46" y="425" type="curve"/>
			<point x="62" y="363" type="line"/>
			<point x="133" y="380"/>
			<point x="140" y="375"/>
			<point x="171" y="338" type="curve"/>
			<point x="112" y="204"/>
			<point x="58" y="88"/>
			<point x="10" y="24" type="curve"/>
			<point x="13" y="-5" type="line"/>
			<point x="72" y="-1"/>
			<point x="198" y="1"/>
			<point x="261" y="-4" type="curve"/>
			<point x="261" y="28" type="line"/>
			<point x="165" y="46" type="line"/>
			<point x="241" y="249" type="line"/>
			<point x="317" y="150"/>
			<point x="355" y="79"/>
		</contour>
		<contour>
			<point x="401" y="116" type="curve"/>
			<point x="401" y="116" type="line"/>
			<point x="359" y="183"/>
			<point x="308" y="246"/>
			<point x="260" y="300" type="curve"/>
			<point x="374" y="603" type="line"/>
			<point x="387" y="602"/>
			<point x="401" y="602"/>
			<point x="415" y="601" type="curve"/>
			<point x="459" y="478"/>
			<point x="495" y="377"/>
			<point x="523" y="293" type="curve"/>
			<point x="481" y="239"/>
			<point x="438" y="178"/>
		</contour>
	</outline>
</glyph>
<glyph name="B" format="2">
	<advance width="876"/>
	<unicode hex="0042"/>
	<note>
		B
  </note>
	<outline>
		<contour>
			<point x="232" y="18" type="curve"/>
			<point x="251" y="-10" type="line"/>
			<point x="328" y="25"/>
			<point x="351" y="34"/>
			<point x="397" y="34" type="curve"/>
			<point x="455" y="34"/>
			<point x="573" y="-10"/>
			<point x="593" y="-10" type="curve"/>
			<point x="674" y="20"/>
			<point x="841" y="79"/>
			<point x="841" y="224" type="curve"/>
			<point x="841" y="327"/>
			<point x="765" y="394"/>
			<point x="609" y="421" type="curve"/>
			<point x="720" y="477"/>
			<point x="783" y="534"/>
			<point x="783" y="599" type="curve"/>
			<point x="783" y="693"/>
			<point x="695" y="714"/>
			<point x="613" y="714" type="curve"/>
			<point x="457" y="714"/>
			<point x="334" y="576"/>
			<point x="238" y="576" type="curve"/>
			<point x="220" y="576"/>
			<point x="195" y="593"/>
			<point x="203" y="635" type="curve"/>
			<point x="179" y="657"/>
			<point x="114" y="646"/>
			<point x="82" y="619" type="curve"/>
			<point x="10" y="557" type="line"/>
			<point x="31" y="536" type="line"/>
			<point x="51" y="555"/>
			<point x="70" y="563"/>
			<point x="87" y="563" type="curve"/>
			<point x="121" y="551"/>
			<point x="152" y="515"/>
			<point x="202" y="515" type="curve"/>
			<point x="229" y="515"/>
			<point x="265" y="532"/>
			<point x="307" y="554" type="curve"/>
			<point x="313" y="506"/>
			<point x="319" y="454"/>
			<point x="323" y="403" type="curve"/>
			<point x="315" y="359"/>
			<point x="298" y="341"/>
			<point x="272" y="325" type="curve"/>
			<point x="272" y="315" type="line"/>
			<point x="286" y="315"/>
			<point x="314" y="293"/>
			<point x="327" y="263" type="curve"/>
			<point x="324" y="149"/>
			<point x="301" y="53"/>
		</contour>
		<contour>
			<point x="512" y="423" type="curve"/>
			<point x="512" y="423" type="line"/>
			<point x="512" y="643" type="line"/>
			<point x="530" y="647"/>
			<point x="548" y="649"/>
			<point x="565" y="649" type="curve"/>
			<point x="625" y="649"/>
			<point x="668" y="623"/>
			<point x="668" y="574" type="curve"/>
			<point x="668" y="495"/>
			<point x="598" y="442"/>
		</contour>
		<contour>
			<point x="423" y="415" type="curve"/>
			<point x="423" y="415" type="line"/>
			<point x="421" y="470"/>
			<point x="415" y="532"/>
			<point x="408" y="605" type="curve"/>
			<point x="430" y="616"/>
			<point x="453" y="625"/>
			<point x="476" y="633" type="curve"/>
			<point x="476" y="417" type="line"/>
			<point x="458" y="415"/>
			<point x="440" y="414"/>
		</contour>
		<contour>
			<point x="620" y="92" type="curve"/>
			<point x="620" y="92" type="line"/>
			<point x="607" y="92"/>
			<point x="560" y="107"/>
			<point x="513" y="117" type="curve"/>
			<point x="512" y="384" type="line"/>
			<point x="636" y="379"/>
			<point x="730" y="316"/>
			<point x="730" y="228" type="curve"/>
			<point x="730" y="154"/>
			<point x="694" y="105"/>
		</contour>
		<contour>
			<point x="335" y="77" type="curve"/>
			<point x="335" y="77" type="line"/>
			<point x="402" y="165"/>
			<point x="424" y="250"/>
			<point x="423" y="377" type="curve"/>
			<point x="441" y="380"/>
			<point x="459" y="382"/>
			<point x="476" y="383" type="curve"/>
			<point x="476" y="124" type="line"/>
			<point x="465" y="126"/>
			<point x="454" y="127"/>
			<point x="444" y="127" type="curve"/>
			<point x="398" y="127"/>
			<point x="366" y="96"/>
		</contour>
	</outline>
</glyph>
<glyph name="C" format="2">
	<advance width="767"/>
	<unicode hex="0043"/>
	<note>
		C
	</note>
	<outline>
		<contour>
			<point x="514" y="-15" type="curve"/>
			<point x="564" y="15"/>
			<point x="663" y="60"/>
			<point x="727" y="108" type="curve"/>
			<point x="710" y="138" type="line"/>
			<point x="643" y="114"/>
			<point x="596" y="92"/>
			<point x="509" y="92" type="curve" smooth="yes"/>
			<point x="490" y="92"/>
			<point x="471" y="93"/>
			<point x="453" y="96" type="curve"/>
			<point x="453" y="620" type="line"/>
			<point x="540" y="614"/>
			<point x="596" y="586"/>
			<point x="676" y="546" type="curve"/>
			<point x="723" y="713" type="line"/>
			<point x="688" y="724" type="line"/>
			<point x="671" y="683" type="line"/>
			<point x="613" y="690"/>
			<point x="470" y="717"/>
			<point x="415" y="713" type="curve"/>
			<point x="314" y="682"/>
			<point x="211" y="600"/>
			<point x="167" y="558" type="curve"/>
			<point x="131" y="517"/>
			<point x="98" y="440"/>
			<point x="91" y="377" type="curve"/>
			<point x="20" y="365" type="line"/>
			<point x="20" y="314" type="line"/>
			<point x="93" y="302" type="line"/>
			<point x="112" y="126"/>
			<point x="235" y="-6"/>
		</contour>
		<contour>
			<point x="415" y="102" type="line"/>
			<point x="278" y="134"/>
			<point x="186" y="236"/>
			<point x="186" y="366" type="curve" smooth="yes"/>
			<point x="186" y="514"/>
			<point x="285" y="621"/>
			<point x="417" y="621" type="curve"/>
		</contour>
	</outline>
</glyph>
<glyph name="D" format="2">
	<advance width="911"/>
	<unicode hex="0044"/>
	<note>
		D
  </note>
	<outline>
		<contour>
			<point x="585" y="-6" type="curve"/>
			<point x="585" y="-6" type="line"/>
			<point x="645" y="50"/>
			<point x="871" y="183"/>
			<point x="871" y="365" type="curve"/>
			<point x="871" y="607"/>
			<point x="651" y="701"/>
			<point x="417" y="701" type="curve"/>
			<point x="306" y="701"/>
			<point x="220" y="686"/>
			<point x="76" y="715" type="curve"/>
			<point x="69" y="715" type="line"/>
			<point x="30" y="640" type="line"/>
			<point x="30" y="635" type="line"/>
			<point x="116" y="603"/>
			<point x="203" y="602"/>
			<point x="287" y="601" type="curve"/>
			<point x="243" y="548"/>
			<point x="170" y="473"/>
			<point x="117" y="413" type="curve"/>
			<point x="115" y="402"/>
			<point x="113" y="392"/>
			<point x="112" y="382" type="curve"/>
			<point x="39" y="382" type="line"/>
			<point x="39" y="291" type="line"/>
			<point x="110" y="291" type="line"/>
			<point x="131" y="82"/>
			<point x="337" y="-21"/>
		</contour>
		<contour>
			<point x="423" y="604" type="curve"/>
			<point x="430" y="112" type="line"/>
			<point x="297" y="137"/>
			<point x="218" y="216"/>
			<point x="218" y="354" type="curve"/>
			<point x="218" y="456"/>
			<point x="292" y="533"/>
			<point x="359" y="604" type="curve"/>
			<point x="381" y="605"/>
			<point x="402" y="605"/>
		</contour>
		<contour>
			<point x="533" y="103" type="curve"/>
			<point x="533" y="103" type="line"/>
			<point x="511" y="103"/>
			<point x="490" y="104"/>
			<point x="469" y="106" type="curve"/>
			<point x="461" y="601" type="line"/>
			<point x="640" y="581"/>
			<point x="761" y="479"/>
			<point x="761" y="346" type="curve"/>
			<point x="761" y="196"/>
			<point x="673" y="103"/>
		</contour>
	</outline>
</glyph>
<glyph name="E" format="2">
	<advance width="740"/>
	<unicode hex="0045"/>
	<note>
		E
  </note>
	<outline>
		<contour>
			<point x="476" y="-10" type="curve"/>
			<point x="476" y="-10" type="line"/>
			<point x="515" y="-10"/>
			<point x="630" y="80"/>
			<point x="700" y="136" type="curve"/>
			<point x="680" y="168" type="line"/>
			<point x="588" y="106"/>
			<point x="505" y="90"/>
			<point x="459" y="90" type="curve"/>
			<point x="443" y="90"/>
			<point x="428" y="91"/>
			<point x="413" y="92" type="curve"/>
			<point x="417" y="326" type="line"/>
			<point x="535" y="324"/>
			<point x="642" y="318"/>
			<point x="683" y="310" type="curve"/>
			<point x="698" y="407" type="line"/>
			<point x="419" y="407" type="line"/>
			<point x="423" y="630" type="line"/>
			<point x="504" y="626"/>
			<point x="566" y="591"/>
			<point x="623" y="548" type="curve"/>
			<point x="700" y="649" type="line"/>
			<point x="700" y="654" type="line"/>
			<point x="650" y="670"/>
			<point x="546" y="715"/>
			<point x="415" y="715" type="curve"/>
			<point x="365" y="715"/>
			<point x="156" y="583"/>
			<point x="140" y="558" type="curve"/>
			<point x="114" y="516"/>
			<point x="87" y="466"/>
			<point x="74" y="406" type="curve"/>
			<point x="30" y="406" type="line"/>
			<point x="30" y="326" type="line"/>
			<point x="39" y="327"/>
			<point x="51" y="327"/>
			<point x="66" y="328" type="curve"/>
			<point x="68" y="110"/>
			<point x="223" y="-10"/>
		</contour>
		<contour>
			<point x="384" y="407" type="line"/>
			<point x="182" y="406" type="line"/>
			<point x="201" y="546"/>
			<point x="278" y="621"/>
			<point x="388" y="629" type="curve"/>
		</contour>
		<contour>
			<point x="382" y="327" type="curve"/>
			<point x="378" y="97" type="line"/>
			<point x="263" y="120"/>
			<point x="181" y="194"/>
			<point x="178" y="329" type="curve"/>
			<point x="240" y="329"/>
			<point x="312" y="329"/>
		</contour>
	</outline>
</glyph>
<glyph name="F" format="2">
	<advance width="710"/>
	<unicode hex="0046"/>
	<note>
		F
  </note>
	<outline>
		<contour>
			<point x="89" y="-224" type="curve"/>
			<point x="128" y="-265" type="line"/>
			<point x="336" y="-168"/>
			<point x="438" y="-89"/>
			<point x="438" y="110" type="curve"/>
			<point x="438" y="184"/>
			<point x="432" y="262"/>
			<point x="426" y="340" type="curve"/>
			<point x="478" y="341"/>
			<point x="559" y="335"/>
			<point x="600" y="332" type="curve"/>
			<point x="661" y="418" type="line"/>
			<point x="651" y="436" type="line"/>
			<point x="575" y="425"/>
			<point x="501" y="419"/>
			<point x="419" y="416" type="curve"/>
			<point x="413" y="488"/>
			<point x="408" y="560"/>
			<point x="409" y="629" type="curve"/>
			<point x="465" y="627"/>
			<point x="546" y="619"/>
			<point x="603" y="602" type="curve"/>
			<point x="680" y="685" type="line"/>
			<point x="673" y="705" type="line"/>
			<point x="465" y="700" type="line"/>
			<point x="412" y="696"/>
			<point x="307" y="660"/>
			<point x="283" y="639" type="curve"/>
			<point x="285" y="616"/>
			<point x="288" y="592"/>
			<point x="290" y="568" type="curve"/>
			<point x="188" y="554"/>
			<point x="111" y="536"/>
			<point x="58" y="473" type="curve"/>
			<point x="108" y="382"/>
			<point x="137" y="350"/>
			<point x="137" y="290" type="curve"/>
			<point x="137" y="243"/>
			<point x="118" y="196"/>
			<point x="50" y="148" type="curve"/>
			<point x="56" y="134" type="line"/>
			<point x="101" y="134"/>
			<point x="156" y="85"/>
			<point x="189" y="0" type="curve"/>
			<point x="200" y="0" type="line"/>
			<point x="219" y="59"/>
			<point x="266" y="99"/>
			<point x="312" y="133" type="curve"/>
			<point x="313" y="94"/>
			<point x="313" y="56"/>
			<point x="313" y="18" type="curve"/>
			<point x="313" y="-109"/>
			<point x="228" y="-173"/>
		</contour>
		<contour>
			<point x="245" y="141" type="curve"/>
			<point x="245" y="141" type="line"/>
			<point x="211" y="160"/>
			<point x="183" y="176"/>
			<point x="147" y="194" type="curve"/>
			<point x="184" y="242"/>
			<point x="227" y="305"/>
			<point x="227" y="350" type="curve"/>
			<point x="227" y="414"/>
			<point x="200" y="439"/>
			<point x="170" y="486" type="curve"/>
			<point x="201" y="516"/>
			<point x="243" y="523"/>
			<point x="294" y="520" type="curve"/>
			<point x="303" y="404"/>
			<point x="308" y="285"/>
			<point x="311" y="169" type="curve"/>
			<point x="288" y="157"/>
			<point x="268" y="149"/>
		</contour>
	</outline>
</glyph>
<glyph name="G" format="2">
	<advance width="830"/>
	<unicode hex="0047"/>
	<note>
		G
  </note>
	<outline>
		<contour>
			<point x="497" y="-232" type="curve"/>
			<point x="510" y="-265" type="line"/>
			<point x="656" y="-237"/>
			<point x="792" y="-173"/>
			<point x="792" y="-45" type="curve"/>
			<point x="792" y="63"/>
			<point x="729" y="100"/>
			<point x="729" y="196" type="curve"/>
			<point x="729" y="300"/>
			<point x="754" y="385"/>
			<point x="795" y="421" type="curve"/>
			<point x="774" y="446" type="line"/>
			<point x="726" y="414"/>
			<point x="652" y="412"/>
			<point x="604" y="412" type="curve"/>
			<point x="540" y="412"/>
			<point x="434" y="449"/>
			<point x="397" y="454" type="curve"/>
			<point x="397" y="630" type="line"/>
			<point x="512" y="624"/>
			<point x="566" y="561"/>
			<point x="623" y="517" type="curve"/>
			<point x="739" y="599" type="line"/>
			<point x="739" y="604" type="line"/>
			<point x="689" y="620"/>
			<point x="555" y="715"/>
			<point x="424" y="715" type="curve"/>
			<point x="374" y="715"/>
			<point x="125" y="583"/>
			<point x="109" y="558" type="curve"/>
			<point x="73" y="500"/>
			<point x="35" y="426"/>
			<point x="35" y="332" type="curve"/>
			<point x="35" y="112"/>
			<point x="190" y="-10"/>
			<point x="445" y="-10" type="curve"/>
			<point x="476" y="-10"/>
			<point x="557" y="48"/>
			<point x="623" y="100" type="curve"/>
			<point x="652" y="40"/>
			<point x="686" y="-9"/>
			<point x="686" y="-60" type="curve"/>
			<point x="686" y="-156"/>
			<point x="628" y="-199"/>
		</contour>
		<contour>
			<point x="357" y="437" type="line"/>
			<point x="147" y="330" type="line"/>
			<point x="147" y="336" type="line" smooth="yes"/>
			<point x="147" y="522"/>
			<point x="230" y="620"/>
			<point x="359" y="629" type="curve"/>
		</contour>
		<contour>
			<point x="356" y="355" type="curve"/>
			<point x="354" y="98" type="line"/>
			<point x="255" y="118"/>
			<point x="168" y="181"/>
			<point x="150" y="294" type="curve"/>
			<point x="214" y="319"/>
			<point x="282" y="348"/>
			<point x="335" y="355" type="curve"/>
			<point x="342" y="356"/>
			<point x="349" y="356"/>
		</contour>
		<contour>
			<point x="428" y="90" type="curve"/>
			<point x="428" y="90" type="line"/>
			<point x="418" y="90"/>
			<point x="407" y="90"/>
			<point x="397" y="91" type="curve"/>
			<point x="397" y="351" type="line"/>
			<point x="456" y="341"/>
			<point x="517" y="318"/>
			<point x="558" y="318" type="curve"/>
			<point x="593" y="318"/>
			<point x="618" y="326"/>
			<point x="651" y="340" type="curve"/>
			<point x="631" y="280"/>
			<point x="619" y="207"/>
			<point x="616" y="147" type="curve"/>
			<point x="537" y="102"/>
			<point x="468" y="90"/>
		</contour>
	</outline>
</glyph>
<glyph name="H" format="2">
	<advance width="772"/>
	<unicode hex="0048"/>
	<note>
		H
  </note>
	<outline>
		<contour>
			<point x="30" y="27" type="line"/>
			<point x="30" y="-10" type="line"/>
			<point x="160" y="2"/>
			<point x="198" y="2"/>
			<point x="324" y="-5" type="curve"/>
			<point x="323" y="484" type="line"/>
			<point x="351" y="498"/>
			<point x="379" y="504"/>
			<point x="411" y="504" type="curve"/>
			<point x="543" y="504"/>
			<point x="653" y="410"/>
			<point x="653" y="276" type="curve"/>
			<point x="653" y="126"/>
			<point x="560" y="81"/>
			<point x="538" y="81" type="curve"/>
			<point x="528" y="81"/>
			<point x="469" y="89"/>
			<point x="418" y="97" type="curve"/>
			<point x="380" y="-1" type="line"/>
			<point x="427" y="-5"/>
			<point x="498" y="-10"/>
			<point x="518" y="-10" type="curve"/>
			<point x="590" y="64"/>
			<point x="737" y="132"/>
			<point x="737" y="325" type="curve"/>
			<point x="737" y="525"/>
			<point x="577" y="628"/>
			<point x="434" y="632" type="curve"/>
			<point x="225" y="466" type="line"/>
			<point x="227" y="547"/>
			<point x="229" y="627"/>
			<point x="230" y="705" type="curve"/>
			<point x="202" y="710" type="line"/>
			<point x="147" y="648"/>
			<point x="121" y="640"/>
			<point x="26" y="648" type="curve"/>
			<point x="20" y="614" type="line"/>
			<point x="102" y="578"/>
			<point x="111" y="536"/>
			<point x="111" y="477" type="curve"/>
			<point x="112" y="394" type="line"/>
			<point x="99" y="367"/>
			<point x="61" y="351"/>
			<point x="38" y="348" type="curve"/>
			<point x="39" y="324" type="line"/>
			<point x="64" y="319"/>
			<point x="93" y="317"/>
			<point x="112" y="284" type="curve"/>
			<point x="114" y="36" type="line"/>
		</contour>
		<contour>
			<point x="288" y="43" type="line"/>
			<point x="222" y="41" type="line"/>
			<point x="220" y="162"/>
			<point x="221" y="287"/>
			<point x="224" y="411" type="curve"/>
			<point x="246" y="431"/>
			<point x="266" y="448"/>
			<point x="285" y="462" type="curve"/>
		</contour>
	</outline>
</glyph>
<glyph name="I" format="2">
	<advance width="387"/>
	<unicode hex="0049"/>
	<note>
		I
	</note>
	<outline>
		<contour>
			<point x="-6" y="-41" type="line"/>
			<point x="122" y="10"/>
			<point x="285" y="29"/>
			<point x="285" y="218" type="curve" smooth="yes"/>
			<point x="285" y="351"/>
			<point x="275" y="352"/>
			<point x="280" y="465" type="curve" smooth="yes"/>
			<point x="285" y="595"/>
			<point x="285" y="614"/>
			<point x="372" y="695" type="curve"/>
			<point x="353" y="716" type="line"/>
			<point x="299" y="684"/>
			<point x="252" y="653"/>
			<point x="212" y="621" type="curve"/>
			<point x="150" y="684"/>
			<point x="61" y="710"/>
			<point x="-1" y="710" type="curve"/>
			<point x="-6" y="688" type="line"/>
			<point x="122" y="662"/>
			<point x="166" y="578"/>
			<point x="170" y="418" type="curve" smooth="yes"/>
			<point x="171" y="387" type="line"/>
			<point x="109" y="397"/>
			<point x="36" y="399"/>
			<point x="23" y="399" type="curve"/>
			<point x="27" y="378" type="line"/>
			<point x="123" y="356"/>
			<point x="157" y="334"/>
			<point x="173" y="307" type="curve"/>
			<point x="175" y="240" type="line" smooth="yes"/>
			<point x="180" y="78"/>
			<point x="152" y="63"/>
			<point x="-20" y="-15" type="curve"/>
		</contour>
	</outline>
</glyph>
<glyph name="J" format="2">
	<advance width="377"/>
	<unicode hex="004A"/>
	<outline>
		<contour>
			<point x="-70" y="-185" type="curve"/>
			<point x="-58" y="-215" type="line"/>
			<point x="160" y="-95"/>
			<point x="275" y="-71"/>
			<point x="275" y="118" type="curve"/>
			<point x="275" y="251"/>
			<point x="265" y="352"/>
			<point x="270" y="465" type="curve"/>
			<point x="275" y="595"/>
			<point x="275" y="614"/>
			<point x="362" y="695" type="curve"/>
			<point x="343" y="716" type="line"/>
			<point x="289" y="684"/>
			<point x="242" y="653"/>
			<point x="202" y="621" type="curve"/>
			<point x="140" y="684"/>
			<point x="51" y="710"/>
			<point x="-11" y="710" type="curve"/>
			<point x="-16" y="688" type="line"/>
			<point x="112" y="662"/>
			<point x="157" y="578"/>
			<point x="160" y="418" type="curve"/>
			<point x="161" y="387" type="line"/>
			<point x="99" y="397"/>
			<point x="26" y="399"/>
			<point x="13" y="399" type="curve"/>
			<point x="17" y="378" type="line"/>
			<point x="111" y="357"/>
			<point x="145" y="335"/>
			<point x="162" y="309" type="curve"/>
			<point x="163" y="230" type="line"/>
			<point x="125" y="245"/>
			<point x="32" y="252"/>
			<point x="18" y="252" type="curve"/>
			<point x="21" y="231" type="line"/>
			<point x="101" y="206"/>
			<point x="151" y="178"/>
			<point x="165" y="146" type="curve"/>
			<point x="165" y="140" type="line" smooth="yes"/>
			<point x="168" y="-22"/>
			<point x="142" y="-57"/>
		</contour>
	</outline>
</glyph>
<glyph name="K" format="2">
	<advance width="578"/>
	<unicode hex="004B"/>
	<note>
		K
  </note>
	<outline>
		<contour>
			<point x="481" y="-10" type="curve"/>
			<point x="481" y="-10" type="line"/>
			<point x="510" y="9"/>
			<point x="539" y="22"/>
			<point x="568" y="37" type="curve"/>
			<point x="567" y="62" type="line"/>
			<point x="488" y="89"/>
			<point x="491" y="91"/>
			<point x="476" y="124" type="curve"/>
			<point x="457" y="166"/>
			<point x="474" y="306"/>
			<point x="452" y="377" type="curve"/>
			<point x="415" y="384"/>
			<point x="387" y="387"/>
			<point x="355" y="399" type="curve"/>
			<point x="442" y="458"/>
			<point x="514" y="527"/>
			<point x="514" y="592" type="curve"/>
			<point x="514" y="655"/>
			<point x="437" y="685"/>
			<point x="373" y="684" type="curve"/>
			<point x="315" y="643"/>
			<point x="270" y="617"/>
			<point x="208" y="582" type="curve"/>
			<point x="211" y="710" type="line"/>
			<point x="188" y="715" type="line"/>
			<point x="143" y="653"/>
			<point x="121" y="637"/>
			<point x="26" y="653" type="curve"/>
			<point x="20" y="628" type="line"/>
			<point x="102" y="584"/>
			<point x="105" y="526"/>
			<point x="104" y="467" type="curve"/>
			<point x="102" y="275" type="line"/>
			<point x="102" y="309" type="line"/>
			<point x="90" y="298"/>
			<point x="67" y="290"/>
			<point x="33" y="290" type="curve"/>
			<point x="32" y="270" type="line"/>
			<point x="64" y="264"/>
			<point x="79" y="264"/>
			<point x="102" y="218" type="curve"/>
			<point x="100" y="-4" type="line"/>
			<point x="199" y="10" type="line"/>
			<point x="197" y="99"/>
			<point x="199" y="201"/>
			<point x="201" y="305" type="curve"/>
			<point x="231" y="322" type="line"/>
			<point x="225" y="318" type="line"/>
			<point x="279" y="342"/>
			<point x="338" y="332"/>
			<point x="356" y="312" type="curve"/>
			<point x="380" y="248"/>
			<point x="370" y="119"/>
			<point x="370" y="87" type="curve"/>
			<point x="370" y="52"/>
			<point x="404" y="40"/>
		</contour>
		<contour>
			<point x="202" y="343" type="curve"/>
			<point x="202" y="343" type="line"/>
			<point x="203" y="410"/>
			<point x="205" y="477"/>
			<point x="207" y="542" type="curve"/>
			<point x="256" y="575"/>
			<point x="294" y="587"/>
			<point x="335" y="587" type="curve"/>
			<point x="375" y="587"/>
			<point x="416" y="562"/>
			<point x="416" y="525" type="curve"/>
			<point x="416" y="472"/>
			<point x="315" y="392"/>
		</contour>
	</outline>
</glyph>
<glyph name="L" format="2">
	<advance width="622"/>
	<unicode hex="004C"/>
	<note>
		L
  </note>
	<outline>
		<contour>
			<point x="20" y="15" type="curve"/>
			<point x="48" y="-10" type="line"/>
			<point x="88" y="19"/>
			<point x="129" y="36"/>
			<point x="197" y="36" type="curve"/>
			<point x="301" y="36"/>
			<point x="432" y="-10"/>
			<point x="475" y="-10" type="curve"/>
			<point x="547" y="40"/>
			<point x="590" y="107"/>
			<point x="617" y="183" type="curve"/>
			<point x="590" y="191" type="line"/>
			<point x="570" y="145"/>
			<point x="519" y="94"/>
			<point x="462" y="94" type="curve"/>
			<point x="413" y="94"/>
			<point x="358" y="108"/>
			<point x="309" y="116" type="curve"/>
			<point x="324" y="705" type="line"/>
			<point x="289" y="702" type="line"/>
			<point x="277" y="120" type="line"/>
			<point x="271" y="121"/>
			<point x="265" y="121"/>
			<point x="259" y="121" type="curve"/>
			<point x="217" y="121"/>
			<point x="183" y="113"/>
			<point x="142" y="93" type="curve"/>
			<point x="188" y="152"/>
			<point x="216" y="225"/>
			<point x="216" y="314" type="curve"/>
			<point x="216" y="363"/>
			<point x="212" y="469"/>
			<point x="216" y="545" type="curve"/>
			<point x="220" y="627"/>
			<point x="228" y="648"/>
			<point x="278" y="689" type="curve"/>
			<point x="269" y="713" type="line"/>
			<point x="218" y="693"/>
			<point x="180" y="664"/>
			<point x="147" y="645" type="curve"/>
			<point x="119" y="665"/>
			<point x="80" y="673"/>
			<point x="39" y="673" type="curve"/>
			<point x="41" y="648" type="line"/>
			<point x="104" y="625"/>
			<point x="120" y="610"/>
			<point x="121" y="449" type="curve"/>
			<point x="95" y="435"/>
			<point x="69" y="425"/>
			<point x="43" y="419" type="curve"/>
			<point x="45" y="399" type="line"/>
			<point x="87" y="388"/>
			<point x="110" y="351"/>
			<point x="120" y="316" type="curve"/>
			<point x="114" y="153"/>
			<point x="89" y="61"/>
		</contour>
	</outline>
</glyph>
<glyph name="M" format="2">
	<advance width="1089"/>
	<unicode hex="004D"/>
	<note>
		M
  </note>
	<outline>
		<contour>
			<point x="813" y="-236" type="curve"/>
			<point x="831" y="-265" type="line"/>
			<point x="940" y="-209"/>
			<point x="1054" y="-122"/>
			<point x="1054" y="-23" type="curve"/>
			<point x="1054" y="103"/>
			<point x="953" y="218"/>
			<point x="953" y="331" type="curve"/>
			<point x="953" y="403"/>
			<point x="982" y="493"/>
			<point x="1052" y="541" type="curve"/>
			<point x="1053" y="571" type="line"/>
			<point x="992" y="591"/>
			<point x="921" y="622"/>
			<point x="852" y="715" type="curve"/>
			<point x="829" y="715" type="line"/>
			<point x="764" y="639"/>
			<point x="717" y="602"/>
			<point x="629" y="544" type="curve"/>
			<point x="572" y="579"/>
			<point x="495" y="602"/>
			<point x="403" y="622" type="curve"/>
			<point x="356" y="715" type="line"/>
			<point x="335" y="715" type="line"/>
			<point x="287" y="666"/>
			<point x="210" y="607"/>
			<point x="146" y="573" type="curve"/>
			<point x="145" y="540"/>
			<point x="145" y="506"/>
			<point x="144" y="474" type="curve"/>
			<point x="125" y="478"/>
			<point x="108" y="485"/>
			<point x="82" y="496" type="curve"/>
			<point x="77" y="481" type="line"/>
			<point x="97" y="439"/>
			<point x="122" y="406"/>
			<point x="143" y="383" type="curve"/>
			<point x="143" y="372" type="line"/>
			<point x="113" y="353"/>
			<point x="84" y="343"/>
			<point x="51" y="334" type="curve"/>
			<point x="57" y="317" type="line"/>
			<point x="97" y="307"/>
			<point x="138" y="278"/>
			<point x="143" y="237" type="curve"/>
			<point x="143" y="219" type="line" smooth="yes"/>
			<point x="144" y="183"/>
			<point x="144" y="154"/>
			<point x="144" y="132" type="curve"/>
			<point x="92" y="80"/>
			<point x="51" y="43"/>
			<point x="15" y="10" type="curve"/>
			<point x="38" y="-17" type="line"/>
			<point x="101" y="34"/>
			<point x="147" y="60"/>
			<point x="196" y="60" type="curve"/>
			<point x="260" y="60"/>
			<point x="311" y="27"/>
			<point x="382" y="-16" type="curve"/>
			<point x="453" y="32"/>
			<point x="499" y="63"/>
			<point x="574" y="90" type="curve"/>
			<point x="628" y="76"/>
			<point x="665" y="31"/>
			<point x="707" y="-17" type="curve"/>
			<point x="903" y="116" type="line"/>
			<point x="923" y="68"/>
			<point x="944" y="24"/>
			<point x="944" y="-60" type="curve"/>
			<point x="944" y="-130"/>
			<point x="893" y="-189"/>
		</contour>
		<contour>
			<point x="329" y="581" type="line"/>
			<point x="324" y="125" type="line"/>
			<point x="297" y="131"/>
			<point x="272" y="137"/>
			<point x="252" y="138" type="curve"/>
			<point x="244" y="260"/>
			<point x="241" y="395"/>
			<point x="248" y="569" type="curve"/>
			<point x="261" y="588"/>
			<point x="277" y="604"/>
			<point x="299" y="618" type="curve"/>
		</contour>
		<contour>
			<point x="775" y="103" type="curve"/>
			<point x="775" y="103" type="line"/>
			<point x="726" y="120"/>
			<point x="703" y="140"/>
			<point x="652" y="163" type="curve"/>
			<point x="686" y="225"/>
			<point x="718" y="279"/>
			<point x="749" y="333" type="curve"/>
			<point x="749" y="416"/>
			<point x="720" y="474"/>
			<point x="668" y="517" type="curve"/>
			<point x="706" y="544"/>
			<point x="740" y="573"/>
			<point x="789" y="592" type="curve"/>
			<point x="828" y="556"/>
			<point x="893" y="512"/>
			<point x="936" y="481" type="curve"/>
			<point x="893" y="430"/>
			<point x="862" y="381"/>
			<point x="862" y="305" type="curve"/>
			<point x="862" y="236"/>
			<point x="873" y="191"/>
			<point x="887" y="153" type="curve"/>
			<point x="856" y="130"/>
			<point x="817" y="113"/>
		</contour>
		<contour>
			<point x="481" y="88" type="curve"/>
			<point x="481" y="88" type="line"/>
			<point x="443" y="94"/>
			<point x="402" y="105"/>
			<point x="362" y="115" type="curve"/>
			<point x="362" y="563" type="line"/>
			<point x="536" y="504"/>
			<point x="645" y="447"/>
			<point x="645" y="316" type="curve"/>
			<point x="645" y="263"/>
			<point x="631" y="213"/>
			<point x="596" y="159" type="curve"/>
			<point x="559" y="132"/>
			<point x="518" y="108"/>
		</contour>
	</outline>
</glyph>
<glyph name="N" format="2">
	<advance width="797"/>
	<unicode hex="004E"/>
	<note>
		N
	</note>
	<outline>
		<contour>
			<point x="58" y="-10" type="line"/>
			<point x="193" y="4"/>
			<point x="228" y="2"/>
			<point x="367" y="-5" type="curve"/>
			<point x="359" y="114"/>
			<point x="358" y="233"/>
			<point x="358" y="432" type="curve" smooth="yes"/>
			<point x="358" y="550"/>
			<point x="392" y="630"/>
			<point x="476" y="630" type="curve" smooth="yes"/>
			<point x="536" y="630"/>
			<point x="573" y="596"/>
			<point x="573" y="516" type="curve" smooth="yes"/>
			<point x="573" y="375"/>
			<point x="567" y="236"/>
			<point x="567" y="89" type="curve"/>
			<point x="577" y="65"/>
			<point x="635" y="-10"/>
			<point x="649" y="-10" type="curve"/>
			<point x="757" y="80" type="line"/>
			<point x="742" y="111" type="line"/>
			<point x="699" y="81"/>
			<point x="691" y="129"/>
			<point x="691" y="209" type="curve" smooth="yes"/>
			<point x="690" y="329"/>
			<point x="699" y="457"/>
			<point x="698" y="577" type="curve" smooth="yes"/>
			<point x="697" y="687"/>
			<point x="624" y="715"/>
			<point x="532" y="715" type="curve" smooth="yes"/>
			<point x="402" y="715"/>
			<point x="317" y="605"/>
			<point x="317" y="445" type="curve" smooth="yes"/>
			<point x="317" y="351"/>
			<point x="321" y="178"/>
			<point x="319" y="44" type="curve"/>
			<point x="260" y="46" type="line"/>
			<point x="260" y="633" type="line" smooth="yes"/>
			<point x="260" y="653"/>
			<point x="191" y="715"/>
			<point x="171" y="715" type="curve" smooth="yes"/>
			<point x="169" y="715"/>
			<point x="83" y="659"/>
			<point x="40" y="629" type="curve"/>
			<point x="50" y="594" type="line"/>
			<point x="126" y="631"/>
			<point x="153" y="604"/>
			<point x="152" y="512" type="curve" smooth="yes"/>
			<point x="151" y="395" type="line"/>
			<point x="119" y="368"/>
			<point x="97" y="360"/>
			<point x="68" y="346" type="curve"/>
			<point x="68" y="332" type="line"/>
			<point x="95" y="320"/>
			<point x="123" y="302"/>
			<point x="150" y="277" type="curve"/>
			<point x="148" y="46" type="line"/>
			<point x="58" y="30" type="line"/>
		</contour>
	</outline>
</glyph>
<glyph name="O" format="2">
	<advance width="832"/>
	<unicode hex="004F"/>
	<note>
		O
	</note>
	<outline>
		<contour>
			<point x="42" y="-10" type="line"/>
			<point x="55" y="-3"/>
			<point x="72" y="10"/>
			<point x="98" y="15" type="curve"/>
			<point x="131" y="14"/>
			<point x="183" y="-3"/>
			<point x="211" y="-10" type="curve"/>
			<point x="233" y="2"/>
			<point x="261" y="23"/>
			<point x="293" y="35" type="curve"/>
			<point x="353" y="25"/>
			<point x="415" y="10"/>
			<point x="495" y="-10" type="curve"/>
			<point x="549" y="19"/>
			<point x="738" y="142"/>
			<point x="765" y="203" type="curve" smooth="yes"/>
			<point x="789" y="260"/>
			<point x="799" y="315"/>
			<point x="797" y="367" type="curve" smooth="yes"/>
			<point x="790" y="501"/>
			<point x="692" y="608"/>
			<point x="494" y="659" type="curve"/>
			<point x="462" y="655"/>
			<point x="425" y="649"/>
			<point x="406" y="646" type="curve"/>
			<point x="349" y="715" type="line"/>
			<point x="344" y="715" type="line"/>
			<point x="132" y="597" type="line"/>
			<point x="133" y="585"/>
			<point x="135" y="561"/>
			<point x="136" y="531" type="curve"/>
			<point x="114" y="531"/>
			<point x="92" y="531"/>
			<point x="66" y="533" type="curve"/>
			<point x="61" y="512" type="line"/>
			<point x="102" y="501"/>
			<point x="130" y="477"/>
			<point x="139" y="436" type="curve"/>
			<point x="110" y="433"/>
			<point x="84" y="431"/>
			<point x="53" y="432" type="curve"/>
			<point x="53" y="412" type="line"/>
			<point x="89" y="403"/>
			<point x="125" y="386"/>
			<point x="141" y="355" type="curve"/>
			<point x="142" y="311"/>
			<point x="143" y="269"/>
			<point x="143" y="241" type="curve" smooth="yes"/>
			<point x="143" y="150"/>
			<point x="107" y="74"/>
			<point x="20" y="13" type="curve"/>
		</contour>
		<contour>
			<point x="187" y="89" type="curve"/>
			<point x="172" y="93"/>
			<point x="160" y="95"/>
			<point x="148" y="98" type="curve"/>
			<point x="209" y="173"/>
			<point x="241" y="244"/>
			<point x="241" y="327" type="curve" smooth="yes"/>
			<point x="241" y="429"/>
			<point x="230" y="524"/>
			<point x="236" y="576" type="curve"/>
			<point x="243" y="605"/>
			<point x="278" y="632"/>
			<point x="295" y="641" type="curve"/>
			<point x="324" y="585" type="line"/>
			<point x="312" y="129" type="line"/>
			<point x="277" y="112"/>
			<point x="224" y="96"/>
		</contour>
		<contour>
			<point x="560" y="88" type="curve"/>
			<point x="494" y="90"/>
			<point x="422" y="107"/>
			<point x="347" y="126" type="curve"/>
			<point x="355" y="551" type="line"/>
			<point x="533" y="587"/>
			<point x="692" y="473"/>
			<point x="692" y="315" type="curve" smooth="yes"/>
			<point x="692" y="172"/>
			<point x="627" y="128"/>
		</contour>
	</outline>
</glyph>
<glyph name="P" format="2">
	<advance width="827"/>
	<unicode hex="0050"/>
	<note>
		P
	</note>
	<outline>
		<contour>
			<point x="148" y="-250" type="curve"/>
			<point x="283" y="-250" type="line"/>
			<point x="275" y="-157"/>
			<point x="269" y="-118"/>
			<point x="270" y="-17" type="curve" smooth="yes"/>
			<point x="271" y="46" type="line"/>
			<point x="336" y="48"/>
			<point x="409" y="8"/>
			<point x="487" y="-10" type="curve"/>
			<point x="588" y="42"/>
			<point x="792" y="115"/>
			<point x="792" y="282" type="curve" smooth="yes"/>
			<point x="792" y="466"/>
			<point x="626" y="557"/>
			<point x="467" y="557" type="curve"/>
			<point x="422" y="650" type="line"/>
			<point x="418" y="654" type="line"/>
			<point x="371" y="619"/>
			<point x="325" y="589"/>
			<point x="278" y="561" type="curve"/>
			<point x="279" y="654" type="line"/>
			<point x="252" y="672"/>
			<point x="198" y="706"/>
			<point x="179" y="715" type="curve"/>
			<point x="141" y="704"/>
			<point x="98" y="674"/>
			<point x="44" y="645" type="curve"/>
			<point x="54" y="611" type="line"/>
			<point x="105" y="632"/>
			<point x="164" y="595"/>
			<point x="164" y="554" type="curve" smooth="yes"/>
			<point x="164" y="393" type="line"/>
			<point x="139" y="379"/>
			<point x="117" y="372"/>
			<point x="55" y="365" type="curve"/>
			<point x="55" y="339" type="line"/>
			<point x="129" y="327"/>
			<point x="141" y="310"/>
			<point x="164" y="281" type="curve"/>
			<point x="164" y="135" type="line"/>
			<point x="134" y="103"/>
			<point x="72" y="46"/>
			<point x="30" y="23" type="curve"/>
			<point x="46" y="-11" type="line"/>
			<point x="82" y="16"/>
			<point x="137" y="37"/>
			<point x="163" y="46" type="curve"/>
			<point x="162" y="-86"/>
			<point x="158" y="-147"/>
		</contour>
		<contour>
			<point x="370" y="122" type="line"/>
			<point x="333" y="133"/>
			<point x="299" y="144"/>
			<point x="272" y="153" type="curve"/>
			<point x="277" y="520" type="line"/>
			<point x="353" y="544" type="line"/>
			<point x="373" y="497" type="line"/>
		</contour>
		<contour>
			<point x="549" y="84" type="curve"/>
			<point x="502" y="89"/>
			<point x="451" y="100"/>
			<point x="403" y="113" type="curve"/>
			<point x="403" y="486" type="line"/>
			<point x="552" y="505"/>
			<point x="682" y="406"/>
			<point x="682" y="276" type="curve" smooth="yes"/>
			<point x="682" y="156"/>
			<point x="611" y="104"/>
		</contour>
	</outline>
</glyph>
<glyph name="Q" format="2">
	<advance width="651"/>
	<unicode hex="0051"/>
	<note>
		Q
	</note>
	<outline>
		<contour>
			<point x="543" y="-10" type="curve"/>
			<point x="572" y="17"/>
			<point x="602" y="42"/>
			<point x="631" y="67" type="curve"/>
			<point x="626" y="84" type="line"/>
			<point x="591" y="90"/>
			<point x="548" y="107"/>
			<point x="505" y="139" type="curve"/>
			<point x="505" y="149"/>
			<point x="532" y="225"/>
			<point x="545" y="264" type="curve"/>
			<point x="520" y="279"/>
			<point x="500" y="293"/>
			<point x="485" y="306" type="curve"/>
			<point x="508" y="335"/>
			<point x="528" y="358"/>
			<point x="552" y="384" type="curve"/>
			<point x="612" y="552"/>
			<point x="478" y="715"/>
			<point x="299" y="715" type="curve" smooth="yes"/>
			<point x="223" y="715"/>
			<point x="109" y="630"/>
			<point x="52" y="558" type="curve"/>
			<point x="-4" y="409"/>
			<point x="74" y="167"/>
			<point x="292" y="162" type="curve"/>
			<point x="333" y="193"/>
			<point x="366" y="220"/>
			<point x="405" y="242" type="curve"/>
			<point x="418" y="237"/>
			<point x="435" y="224"/>
			<point x="447" y="217" type="curve"/>
			<point x="449" y="157"/>
			<point x="412" y="111"/>
			<point x="405" y="91" type="curve"/>
			<point x="433" y="59"/>
			<point x="488" y="12"/>
		</contour>
		<contour>
			<point x="318" y="259" type="curve" smooth="yes"/>
			<point x="218" y="259"/>
			<point x="134" y="364"/>
			<point x="134" y="486" type="curve" smooth="yes"/>
			<point x="134" y="568"/>
			<point x="181" y="635"/>
			<point x="215" y="645" type="curve"/>
			<point x="375" y="645"/>
			<point x="474" y="525"/>
			<point x="474" y="415" type="curve" smooth="yes"/>
			<point x="474" y="365"/>
			<point x="459" y="327"/>
			<point x="435" y="291" type="curve"/>
			<point x="398" y="270"/>
			<point x="358" y="259"/>
		</contour>
	</outline>
</glyph>
<glyph name="R" format="2">
	<advance width="818"/>
	<unicode hex="0052"/>
	<note>
		R
  </note>
	<outline>
		<contour>
			<point x="48" y="12" type="curve"/>
			<point x="67" y="-10" type="line"/>
			<point x="70" y="-10" type="line"/>
			<point x="103" y="36"/>
			<point x="121" y="57"/>
			<point x="168" y="57" type="curve"/>
			<point x="213" y="57"/>
			<point x="282" y="20"/>
			<point x="325" y="-5" type="curve"/>
			<point x="332" y="0" type="line"/>
			<point x="336" y="108"/>
			<point x="336" y="215"/>
			<point x="336" y="323" type="curve"/>
			<point x="495" y="301"/>
			<point x="529" y="261"/>
			<point x="668" y="-10" type="curve"/>
			<point x="798" y="61" type="line"/>
			<point x="788" y="90" type="line"/>
			<point x="772" y="89"/>
			<point x="749" y="97"/>
			<point x="742" y="106" type="curve"/>
			<point x="697" y="164"/>
			<point x="603" y="294"/>
			<point x="549" y="331" type="curve"/>
			<point x="534" y="341"/>
			<point x="474" y="356"/>
			<point x="414" y="362" type="curve"/>
			<point x="528" y="422"/>
			<point x="652" y="513"/>
			<point x="652" y="592" type="curve"/>
			<point x="652" y="663"/>
			<point x="575" y="715"/>
			<point x="497" y="715" type="curve"/>
			<point x="488" y="715"/>
			<point x="387" y="626"/>
			<point x="319" y="588" type="curve"/>
			<point x="298" y="673"/>
			<point x="253" y="715"/>
			<point x="177" y="715" type="curve"/>
			<point x="57" y="715"/>
			<point x="6" y="631"/>
			<point x="16" y="495" type="curve"/>
			<point x="46" y="495" type="line"/>
			<point x="46" y="584"/>
			<point x="73" y="630"/>
			<point x="141" y="630" type="curve"/>
			<point x="207" y="630"/>
			<point x="228" y="569"/>
			<point x="228" y="475" type="curve"/>
			<point x="228" y="356"/>
			<point x="228" y="188"/>
			<point x="218" y="99" type="curve"/>
			<point x="140" y="115"/>
			<point x="109" y="97"/>
		</contour>
		<contour>
			<point x="335" y="357" type="curve"/>
			<point x="335" y="357" type="line"/>
			<point x="335" y="428" type="line" smooth="yes"/>
			<point x="335" y="474"/>
			<point x="332" y="515"/>
			<point x="327" y="550" type="curve"/>
			<point x="358" y="578"/>
			<point x="410" y="611"/>
			<point x="458" y="611" type="curve"/>
			<point x="510" y="611"/>
			<point x="556" y="588"/>
			<point x="556" y="543" type="curve"/>
			<point x="556" y="480"/>
			<point x="440" y="405"/>
		</contour>
	</outline>
</glyph>
<glyph name="S" format="2">
	<advance width="674"/>
	<unicode hex="0053"/>
	<note>
		S
  </note>
	<outline>
		<contour>
			<point x="385" y="-10" type="curve"/>
			<point x="385" y="-10" type="line"/>
			<point x="483" y="41"/>
			<point x="622" y="123"/>
			<point x="622" y="257" type="curve"/>
			<point x="622" y="353"/>
			<point x="552" y="413"/>
			<point x="460" y="442" type="curve"/>
			<point x="401" y="417"/>
			<point x="316" y="388"/>
			<point x="247" y="388" type="curve"/>
			<point x="173" y="388"/>
			<point x="131" y="487"/>
			<point x="191" y="576" type="curve"/>
			<point x="257" y="620"/>
			<point x="417" y="598"/>
			<point x="474" y="507" type="curve"/>
			<point x="624" y="624" type="line"/>
			<point x="612" y="644" type="line"/>
			<point x="538" y="616" type="line"/>
			<point x="494" y="642"/>
			<point x="419" y="685"/>
			<point x="357" y="715" type="curve"/>
			<point x="297" y="685"/>
			<point x="181" y="617"/>
			<point x="71" y="557" type="curve"/>
			<point x="31" y="437"/>
			<point x="62" y="344"/>
			<point x="139" y="293" type="curve"/>
			<point x="209" y="330"/>
			<point x="320" y="365"/>
			<point x="380" y="365" type="curve"/>
			<point x="438" y="365"/>
			<point x="527" y="307"/>
			<point x="527" y="212" type="curve"/>
			<point x="527" y="132"/>
			<point x="473" y="69"/>
			<point x="376" y="69" type="curve"/>
			<point x="294" y="69"/>
			<point x="228" y="123"/>
			<point x="190" y="193" type="curve"/>
			<point x="304" y="282" type="line"/>
			<point x="289" y="300" type="line"/>
			<point x="40" y="127" type="line"/>
			<point x="59" y="102" type="line"/>
			<point x="77" y="112" type="line"/>
			<point x="153" y="50"/>
			<point x="240" y="-10"/>
		</contour>
	</outline>
</glyph>
<glyph name="T" format="2">
	<advance width="780"/>
	<unicode hex="0054"/>
	<note>
		T
	</note>
	<outline>
		<contour>
			<point x="507" y="-10" type="curve" smooth="yes"/>
			<point x="561" y="-10"/>
			<point x="684" y="70"/>
			<point x="720" y="101" type="curve"/>
			<point x="706" y="122" type="line"/>
			<point x="653" y="93"/>
			<point x="616" y="90"/>
			<point x="563" y="90" type="curve" smooth="yes"/>
			<point x="562" y="90" type="line"/>
			<point x="562" y="550" type="line"/>
			<point x="564" y="550" type="line" smooth="yes"/>
			<point x="617" y="550"/>
			<point x="672" y="568"/>
			<point x="718" y="577" type="curve"/>
			<point x="765" y="705" type="line"/>
			<point x="735" y="715" type="line"/>
			<point x="716" y="675"/>
			<point x="654" y="660"/>
			<point x="594" y="660" type="curve" smooth="yes"/>
			<point x="506" y="660"/>
			<point x="414" y="689"/>
			<point x="324" y="715" type="curve"/>
			<point x="146" y="720"/>
			<point x="10" y="634"/>
			<point x="10" y="516" type="curve" smooth="yes"/>
			<point x="10" y="474"/>
			<point x="27" y="433"/>
			<point x="54" y="407" type="curve"/>
			<point x="138" y="486" type="line"/>
			<point x="102" y="526"/>
			<point x="88" y="564"/>
			<point x="91" y="600" type="curve"/>
			<point x="126" y="626"/>
			<point x="161" y="631"/>
			<point x="197" y="630" type="curve" smooth="yes"/>
			<point x="282" y="628"/>
			<point x="345" y="599"/>
			<point x="414" y="577" type="curve"/>
			<point x="346" y="524"/>
			<point x="280" y="467"/>
			<point x="229" y="417" type="curve"/>
			<point x="214" y="387"/>
			<point x="205" y="350"/>
			<point x="203" y="310" type="curve"/>
			<point x="163" y="288"/>
			<point x="117" y="278"/>
			<point x="95" y="270" type="curve"/>
			<point x="95" y="250" type="line"/>
			<point x="131" y="237"/>
			<point x="171" y="228"/>
			<point x="209" y="226" type="curve"/>
			<point x="234" y="106"/>
			<point x="325" y="-10"/>
		</contour>
		<contour>
			<point x="531" y="91" type="line"/>
			<point x="404" y="103"/>
			<point x="318" y="184"/>
			<point x="318" y="313" type="curve" smooth="yes"/>
			<point x="318" y="417"/>
			<point x="391" y="509"/>
			<point x="455" y="565" type="curve"/>
			<point x="479" y="558"/>
			<point x="504" y="553"/>
			<point x="532" y="551" type="curve"/>
		</contour>
	</outline>
</glyph>
<glyph name="U" format="2">
	<advance width="736"/>
	<unicode hex="0055"/>
	<outline>
		<contour>
			<point x="344" y="-10" type="curve"/>
			<point x="344" y="-10" type="line"/>
			<point x="404" y="28"/>
			<point x="457" y="66"/>
			<point x="515" y="97" type="curve"/>
			<point x="522" y="72"/>
			<point x="551" y="35"/>
			<point x="598" y="-10" type="curve"/>
			<point x="688" y="82" type="line"/>
			<point x="672" y="108" type="line"/>
			<point x="634" y="76"/>
			<point x="623" y="114"/>
			<point x="623" y="199" type="curve"/>
			<point x="623" y="325"/>
			<point x="623" y="416"/>
			<point x="624" y="467" type="curve"/>
			<point x="626" y="604"/>
			<point x="652" y="645"/>
			<point x="691" y="683" type="curve"/>
			<point x="677" y="705" type="line"/>
			<point x="651" y="694"/>
			<point x="610" y="670"/>
			<point x="569" y="634" type="curve"/>
			<point x="542" y="665"/>
			<point x="480" y="703"/>
			<point x="417" y="716" type="curve"/>
			<point x="406" y="696" type="line"/>
			<point x="491" y="648"/>
			<point x="525" y="593"/>
			<point x="525" y="475" type="curve"/>
			<point x="525" y="359"/>
			<point x="524" y="259"/>
			<point x="518" y="147" type="curve"/>
			<point x="480" y="115"/>
			<point x="419" y="99"/>
			<point x="371" y="99" type="curve"/>
			<point x="256" y="99"/>
			<point x="161" y="176"/>
			<point x="161" y="306" type="curve"/>
			<point x="161" y="424"/>
			<point x="229" y="522"/>
			<point x="302" y="615" type="curve"/>
			<point x="245" y="644"/>
			<point x="214" y="675"/>
			<point x="161" y="715" type="curve"/>
			<point x="54" y="640" type="line"/>
			<point x="71" y="617" type="line"/>
			<point x="118" y="642"/>
			<point x="154" y="598"/>
			<point x="206" y="552" type="curve"/>
			<point x="148" y="467"/>
			<point x="94" y="403"/>
			<point x="51" y="320" type="curve"/>
			<point x="41" y="170"/>
			<point x="103" y="20"/>
		</contour>
	</outline>
</glyph>
<glyph name="V" format="2">
	<advance width="894"/>
	<unicode hex="0056"/>
	<note>
		V
	</note>
	<outline>
		<contour>
			<point x="344" y="-10" type="line"/>
			<point x="618" y="144"/>
			<point x="854" y="238"/>
			<point x="854" y="476" type="curve" smooth="yes"/>
			<point x="854" y="635"/>
			<point x="716" y="714"/>
			<point x="602" y="714" type="curve" smooth="yes"/>
			<point x="554" y="714"/>
			<point x="483" y="694"/>
			<point x="435" y="654" type="curve"/>
			<point x="314" y="408" type="line"/>
			<point x="298" y="420"/>
			<point x="280" y="431"/>
			<point x="262" y="441" type="curve" smooth="yes"/>
			<point x="88" y="541"/>
			<point x="40" y="588"/>
			<point x="130" y="701" type="curve"/>
			<point x="108" y="715" type="line"/>
			<point x="42" y="652"/>
			<point x="20" y="599"/>
			<point x="20" y="531" type="curve" smooth="yes"/>
			<point x="20" y="473"/>
			<point x="63" y="428"/>
			<point x="189" y="362" type="curve" smooth="yes"/>
			<point x="338" y="284"/>
			<point x="374" y="182"/>
			<point x="329" y="8" type="curve"/>
		</contour>
		<contour>
			<point x="458" y="93" type="curve"/>
			<point x="459" y="247"/>
			<point x="411" y="328"/>
			<point x="346" y="384" type="curve"/>
			<point x="413" y="541"/>
			<point x="480" y="600"/>
			<point x="580" y="600" type="curve" smooth="yes"/>
			<point x="657" y="600"/>
			<point x="744" y="560"/>
			<point x="744" y="425" type="curve" smooth="yes"/>
			<point x="744" y="293"/>
			<point x="653" y="216"/>
		</contour>
	</outline>
</glyph>
<glyph name="W" format="2">
	<advance width="1213"/>
	<unicode hex="0057"/>
	<outline>
		<contour>
			<point x="427" y="-10" type="curve"/>
			<point x="458" y="-10" type="line"/>
			<point x="605" y="254" type="line"/>
			<point x="634" y="175"/>
			<point x="664" y="85"/>
			<point x="691" y="-10" type="curve"/>
			<point x="722" y="-10" type="line"/>
			<point x="988" y="527" type="line" smooth="yes"/>
			<point x="1037" y="626"/>
			<point x="1086" y="622"/>
			<point x="1131" y="575" type="curve"/>
			<point x="1198" y="678" type="line"/>
			<point x="1176" y="700"/>
			<point x="1146" y="715"/>
			<point x="1106" y="715" type="curve" smooth="yes"/>
			<point x="1043" y="715"/>
			<point x="1007" y="658"/>
			<point x="953" y="549" type="curve" smooth="yes"/>
			<point x="762" y="162" type="line"/>
			<point x="740" y="204"/>
			<point x="723" y="252"/>
			<point x="677" y="397" type="curve"/>
			<point x="772" y="578" type="line" smooth="yes"/>
			<point x="797" y="625"/>
			<point x="827" y="642"/>
			<point x="886" y="600" type="curve"/>
			<point x="942" y="684" type="line"/>
			<point x="872" y="741"/>
			<point x="799" y="725"/>
			<point x="751" y="626" type="curve" smooth="yes"/>
			<point x="662" y="444" type="line"/>
			<point x="620" y="579" type="line" smooth="yes"/>
			<point x="587" y="686"/>
			<point x="528" y="715"/>
			<point x="468" y="715" type="curve" smooth="yes"/>
			<point x="403" y="715"/>
			<point x="352" y="655"/>
			<point x="311" y="600" type="curve"/>
			<point x="282" y="662"/>
			<point x="217" y="715"/>
			<point x="135" y="715" type="curve" smooth="yes"/>
			<point x="40" y="715"/>
			<point x="-49" y="550"/>
			<point x="61" y="404" type="curve"/>
			<point x="97" y="418" type="line"/>
			<point x="32" y="522"/>
			<point x="51" y="594"/>
			<point x="109" y="594" type="curve" smooth="yes"/>
			<point x="150" y="594"/>
			<point x="190" y="565"/>
			<point x="242" y="452" type="curve" smooth="yes"/>
			<point x="300" y="326"/>
			<point x="405" y="89"/>
		</contour>
		<contour>
			<point x="497" y="148" type="line"/>
			<point x="328" y="561" type="line"/>
			<point x="351" y="599"/>
			<point x="379" y="609"/>
			<point x="408" y="609" type="curve" smooth="yes"/>
			<point x="460" y="609"/>
			<point x="496" y="568"/>
			<point x="528" y="471" type="curve" smooth="yes"/>
			<point x="543" y="425"/>
			<point x="564" y="368"/>
			<point x="588" y="303" type="curve"/>
		</contour>
	</outline>
</glyph>
<glyph name="X" format="2">
	<advance width="761"/>
	<unicode hex="0058"/>
	<note>
		X
  </note>
	<outline>
		<contour>
			<point x="154" y="-10" type="curve"/>
			<point x="154" y="-10" type="line"/>
			<point x="222" y="-10"/>
			<point x="305" y="56"/>
			<point x="333" y="170" type="curve"/>
			<point x="378" y="63"/>
			<point x="461" y="-10"/>
			<point x="556" y="-10" type="curve"/>
			<point x="633" y="-10"/>
			<point x="700" y="66"/>
			<point x="744" y="152" type="curve"/>
			<point x="714" y="165" type="line"/>
			<point x="680" y="108"/>
			<point x="640" y="82"/>
			<point x="582" y="82" type="curve"/>
			<point x="500" y="82"/>
			<point x="420" y="172"/>
			<point x="405" y="335" type="curve"/>
			<point x="656" y="335" type="line"/>
			<point x="666" y="365" type="line"/>
			<point x="403" y="364" type="line"/>
			<point x="401" y="417"/>
			<point x="405" y="477"/>
			<point x="418" y="543" type="curve"/>
			<point x="419" y="544" type="line"/>
			<point x="419" y="547" type="line"/>
			<point x="439" y="597"/>
			<point x="480" y="627"/>
			<point x="533" y="627" type="curve"/>
			<point x="596" y="627"/>
			<point x="628" y="582"/>
			<point x="649" y="560" type="curve"/>
			<point x="746" y="645" type="line"/>
			<point x="724" y="679"/>
			<point x="671" y="715"/>
			<point x="611" y="715" type="curve"/>
			<point x="542" y="715"/>
			<point x="475" y="667"/>
			<point x="399" y="605" type="curve"/>
			<point x="368" y="662"/>
			<point x="305" y="713"/>
			<point x="222" y="713" type="curve"/>
			<point x="110" y="713"/>
			<point x="34" y="636"/>
			<point x="31" y="533" type="curve"/>
			<point x="59" y="534" type="line"/>
			<point x="66" y="605"/>
			<point x="113" y="631"/>
			<point x="167" y="631" type="curve"/>
			<point x="243" y="631"/>
			<point x="304" y="576"/>
			<point x="299" y="425" type="curve"/>
			<point x="299" y="363" type="line"/>
			<point x="75" y="362" type="line"/>
			<point x="69" y="335" type="line"/>
			<point x="299" y="335" type="line"/>
			<point x="299" y="330"/>
			<point x="299" y="325"/>
			<point x="300" y="321" type="curve"/>
			<point x="301" y="93"/>
			<point x="203" y="46"/>
			<point x="148" y="46" type="curve"/>
			<point x="97" y="46"/>
			<point x="65" y="65"/>
			<point x="31" y="92" type="curve"/>
			<point x="10" y="72" type="line"/>
			<point x="49" y="22"/>
			<point x="105" y="-10"/>
		</contour>
	</outline>
</glyph>
<glyph name="Y" format="2">
	<advance width="850"/>
	<unicode hex="0059"/>
	<note>
		Y
  </note>
	<outline>
		<contour>
			<point x="30" y="-203" type="curve"/>
			<point x="48" y="-265" type="line"/>
			<point x="339" y="-82"/>
			<point x="815" y="199"/>
			<point x="815" y="504" type="curve"/>
			<point x="815" y="655"/>
			<point x="696" y="742"/>
			<point x="572" y="710" type="curve"/>
			<point x="422" y="581" type="line"/>
			<point x="403" y="639"/>
			<point x="376" y="686"/>
			<point x="340" y="715" type="curve"/>
			<point x="330" y="715"/>
			<point x="256" y="650"/>
			<point x="214" y="630" type="curve"/>
			<point x="185" y="659"/>
			<point x="163" y="686"/>
			<point x="138" y="714" type="curve"/>
			<point x="135" y="714" type="line"/>
			<point x="10" y="609" type="line"/>
			<point x="30" y="584" type="line"/>
			<point x="83" y="617" type="line"/>
			<point x="101" y="603"/>
			<point x="134" y="570"/>
			<point x="168" y="530" type="curve"/>
			<point x="178" y="540"/>
			<point x="234" y="590"/>
			<point x="260" y="603" type="curve"/>
			<point x="359" y="463"/>
			<point x="378" y="257"/>
			<point x="363" y="-2" type="curve"/>
			<point x="270" y="-64"/>
			<point x="160" y="-130"/>
		</contour>
		<contour>
			<point x="469" y="74" type="curve"/>
			<point x="469" y="74" type="line"/>
			<point x="470" y="75" type="line"/>
			<point x="471" y="200"/>
			<point x="471" y="392"/>
			<point x="434" y="539" type="curve"/>
			<point x="467" y="574"/>
			<point x="514" y="613"/>
			<point x="580" y="613" type="curve"/>
			<point x="636" y="613"/>
			<point x="713" y="546"/>
			<point x="713" y="441" type="curve"/>
			<point x="713" y="313"/>
			<point x="632" y="200"/>
		</contour>
	</outline>
</glyph>
<glyph name="Z" format="2">
	<advance width="705"/>
	<unicode hex="005A"/>
	<note>
		Z
  </note>
	<outline>
		<contour>
			<point x="499" y="-10" type="curve"/>
			<point x="499" y="-10" type="line"/>
			<point x="639" y="150" type="line"/>
			<point x="610" y="167" type="line"/>
			<point x="587" y="141"/>
			<point x="541" y="105"/>
			<point x="487" y="105" type="curve"/>
			<point x="415" y="107"/>
			<point x="351" y="157"/>
			<point x="202" y="159" type="curve"/>
			<point x="345" y="318" type="line"/>
			<point x="472" y="318" type="line"/>
			<point x="532" y="400" type="line"/>
			<point x="419" y="400" type="line"/>
			<point x="680" y="690" type="line"/>
			<point x="649" y="710" type="line"/>
			<point x="585" y="664"/>
			<point x="567" y="662"/>
			<point x="521" y="662" type="curve"/>
			<point x="442" y="662"/>
			<point x="342" y="715"/>
			<point x="256" y="715" type="curve"/>
			<point x="167" y="715"/>
			<point x="65" y="634"/>
			<point x="65" y="584" type="curve"/>
			<point x="65" y="544"/>
			<point x="95" y="510"/>
			<point x="116" y="494" type="curve"/>
			<point x="217" y="547" type="line"/>
			<point x="168" y="580"/>
			<point x="147" y="607"/>
			<point x="147" y="638" type="curve"/>
			<point x="226" y="675"/>
			<point x="366" y="586"/>
			<point x="519" y="568" type="curve"/>
			<point x="366" y="400" type="line"/>
			<point x="210" y="400" type="line"/>
			<point x="137" y="324" type="line"/>
			<point x="141" y="318" type="line"/>
			<point x="291" y="318" type="line"/>
			<point x="25" y="27" type="line"/>
			<point x="51" y="0" type="line"/>
			<point x="107" y="42"/>
			<point x="124" y="63"/>
			<point x="184" y="63" type="curve"/>
			<point x="253" y="63"/>
			<point x="410" y="10"/>
		</contour>
	</outline>
</glyph>
<glyph name="b" format="2">
	<advance width="483"/>
	<unicode hex="0062"/>
	<note>
		b
  </note>
	<outline>
		<contour>
			<point x="217" y="-13" type="curve"/>
			<point x="217" y="-13" type="line"/>
			<point x="320" y="50"/>
			<point x="433" y="136"/>
			<point x="453" y="202" type="curve"/>
			<point x="475" y="322"/>
			<point x="429" y="434"/>
			<point x="290" y="465" type="curve"/>
			<point x="238" y="428"/>
			<point x="189" y="385"/>
			<point x="142" y="356" type="curve"/>
			<point x="157" y="692" type="line"/>
			<point x="41" y="708" type="line"/>
			<point x="30" y="686" type="line"/>
			<point x="54" y="594"/>
			<point x="50" y="212"/>
			<point x="47" y="80" type="curve"/>
			<point x="81" y="43"/>
			<point x="166" y="-3"/>
		</contour>
		<contour>
			<point x="271" y="72" type="curve"/>
			<point x="271" y="72" type="line"/>
			<point x="221" y="75"/>
			<point x="163" y="97"/>
			<point x="139" y="123" type="curve"/>
			<point x="143" y="258" type="line"/>
			<point x="153" y="328"/>
			<point x="196" y="364"/>
			<point x="249" y="364" type="curve"/>
			<point x="314" y="364"/>
			<point x="377" y="312"/>
			<point x="377" y="232" type="curve"/>
			<point x="377" y="153"/>
			<point x="318" y="92"/>
		</contour>
	</outline>
</glyph>
<glyph name="d" format="2">
	<advance width="504"/>
	<unicode hex="0064"/>
	<note>
		d
	</note>
	<outline>
		<contour>
			<point x="287" y="-10" type="curve"/>
			<point x="347" y="40"/>
			<point x="479" y="138"/>
			<point x="479" y="248" type="curve" smooth="yes"/>
			<point x="479" y="390"/>
			<point x="383" y="442"/>
			<point x="259" y="461" type="curve" smooth="yes"/>
			<point x="167" y="475"/>
			<point x="94" y="532"/>
			<point x="68" y="570" type="curve"/>
			<point x="50" y="571" type="line"/>
			<point x="5" y="479" type="line"/>
			<point x="51" y="446"/>
			<point x="114" y="408"/>
			<point x="161" y="383" type="curve"/>
			<point x="117" y="336"/>
			<point x="45" y="247"/>
			<point x="45" y="238" type="curve" smooth="yes"/>
			<point x="45" y="88"/>
			<point x="157" y="-10"/>
		</contour>
		<contour>
			<point x="295" y="90" type="curve" smooth="yes"/>
			<point x="217" y="90"/>
			<point x="130" y="149"/>
			<point x="130" y="245" type="curve" smooth="yes"/>
			<point x="130" y="297"/>
			<point x="166" y="341"/>
			<point x="204" y="370" type="curve"/>
			<point x="328" y="373"/>
			<point x="410" y="301"/>
			<point x="410" y="207" type="curve" smooth="yes"/>
			<point x="410" y="142"/>
			<point x="354" y="90"/>
		</contour>
	</outline>
</glyph>
<glyph name="e" format="2">
	<advance width="368"/>
	<unicode hex="0065"/>
	<note>
		e
	</note>
	<outline>
		<contour>
			<point x="159" y="-10" type="curve" smooth="yes"/>
			<point x="194" y="-10"/>
			<point x="259" y="18"/>
			<point x="309" y="57" type="curve"/>
			<point x="299" y="87" type="line"/>
			<point x="216" y="51"/>
			<point x="158" y="81"/>
			<point x="133" y="149" type="curve"/>
			<point x="351" y="293" type="line"/>
			<point x="358" y="320" type="line"/>
			<point x="328" y="374"/>
			<point x="289" y="443"/>
			<point x="204" y="464" type="curve"/>
			<point x="159" y="430"/>
			<point x="82" y="382"/>
			<point x="38" y="350" type="curve"/>
			<point x="36" y="312"/>
			<point x="30" y="252"/>
			<point x="30" y="212" type="curve" smooth="yes"/>
			<point x="30" y="59"/>
			<point x="112" y="-10"/>
		</contour>
		<contour>
			<point x="124" y="184" type="curve"/>
			<point x="121" y="199"/>
			<point x="120" y="215"/>
			<point x="120" y="232" type="curve" smooth="yes"/>
			<point x="120" y="267"/>
			<point x="123" y="326"/>
			<point x="135" y="378" type="curve"/>
			<point x="189" y="375"/>
			<point x="254" y="332"/>
			<point x="257" y="299" type="curve" smooth="yes"/>
			<point x="259" y="275"/>
			<point x="242" y="263"/>
		</contour>
	</outline>
</glyph>
<glyph name="f" format="2">
	<advance width="325"/>
	<unicode hex="0066"/>
	<note>
		f
	</note>
	<outline>
		<contour>
			<point x="50" y="0" type="curve"/>
			<point x="158" y="0" type="line"/>
			<point x="150" y="92"/>
			<point x="153" y="277"/>
			<point x="153" y="355" type="curve"/>
			<point x="278" y="355" type="line"/>
			<point x="279" y="445" type="line"/>
			<point x="152" y="445" type="line"/>
			<point x="152" y="618" type="line"/>
			<point x="200" y="618"/>
			<point x="249" y="613"/>
			<point x="299" y="605" type="curve"/>
			<point x="365" y="679" type="line"/>
			<point x="365" y="695" type="line"/>
			<point x="305" y="696"/>
			<point x="244" y="697"/>
			<point x="184" y="700" type="curve"/>
			<point x="139" y="676"/>
			<point x="93" y="637"/>
			<point x="53" y="596" type="curve"/>
			<point x="53" y="368" type="line" smooth="yes"/>
			<point x="53" y="285"/>
			<point x="58" y="92"/>
		</contour>
	</outline>
</glyph>
<glyph name="h" format="2">
	<advance width="517"/>
	<unicode hex="0068"/>
	<note>
		h
	</note>
	<outline>
		<contour>
			<point x="195" y="-162" type="line"/>
			<point x="278" y="-161" type="line"/>
			<point x="400" y="41"/>
			<point x="482" y="147"/>
			<point x="482" y="263" type="curve" smooth="yes"/>
			<point x="482" y="343"/>
			<point x="422" y="465"/>
			<point x="272" y="465" type="curve"/>
			<point x="231" y="435"/>
			<point x="191" y="406"/>
			<point x="150" y="381" type="curve"/>
			<point x="152" y="503"/>
			<point x="157" y="602"/>
			<point x="165" y="706" type="curve"/>
			<point x="162" y="710" type="line"/>
			<point x="36" y="700" type="line"/>
			<point x="35" y="675" type="line"/>
			<point x="53" y="610"/>
			<point x="50" y="522"/>
			<point x="50" y="376" type="curve" smooth="yes"/>
			<point x="50" y="282"/>
			<point x="50" y="169"/>
			<point x="47" y="0" type="curve"/>
			<point x="157" y="0" type="line"/>
			<point x="151" y="134"/>
			<point x="149" y="244"/>
			<point x="150" y="339" type="curve"/>
			<point x="178" y="358"/>
			<point x="210" y="365"/>
			<point x="247" y="365" type="curve" smooth="yes"/>
			<point x="325" y="365"/>
			<point x="395" y="298"/>
			<point x="395" y="216" type="curve" smooth="yes"/>
			<point x="395" y="89"/>
			<point x="307" y="-49"/>
			<point x="195" y="-144" type="curve"/>
		</contour>
	</outline>
</glyph>
<glyph name="j" format="2">
	<advance width="207"/>
	<unicode hex="006A"/>
	<outline>
		<contour>
			<point x="77" y="524" type="line"/>
			<point x="161" y="637" type="line"/>
			<point x="118" y="652" type="line"/>
			<point x="46" y="532" type="line"/>
		</contour>
		<contour>
			<point x="63" y="-210" type="line"/>
			<point x="88" y="-152"/>
			<point x="136" y="-25"/>
			<point x="160" y="19" type="curve"/>
			<point x="160" y="102"/>
			<point x="150" y="338"/>
			<point x="167" y="407" type="curve"/>
			<point x="84" y="465" type="line"/>
			<point x="82" y="465" type="line"/>
			<point x="21" y="404" type="line"/>
			<point x="20" y="374" type="line"/>
			<point x="46" y="379"/>
			<point x="54" y="363"/>
			<point x="54" y="323" type="curve" smooth="yes"/>
			<point x="54" y="123"/>
			<point x="71" y="-38"/>
			<point x="24" y="-199" type="curve"/>
		</contour>
	</outline>
</glyph>
<glyph name="k" format="2">
	<advance width="447"/>
	<unicode hex="006B"/>
	<note>
		k
  </note>
	<outline>
		<contour>
			<point x="60" y="0" type="curve"/>
			<point x="60" y="0" type="line"/>
			<point x="166" y="0" type="line"/>
			<point x="164" y="44"/>
			<point x="162" y="89"/>
			<point x="161" y="134" type="curve"/>
			<point x="194" y="162"/>
			<point x="227" y="193"/>
			<point x="259" y="224" type="curve"/>
			<point x="309" y="168"/>
			<point x="299" y="109"/>
			<point x="296" y="0" type="curve"/>
			<point x="417" y="0" type="line"/>
			<point x="417" y="30" type="line"/>
			<point x="390" y="47"/>
			<point x="394" y="87"/>
			<point x="383" y="208" type="curve"/>
			<point x="380" y="236"/>
			<point x="348" y="260"/>
			<point x="323" y="288" type="curve"/>
			<point x="358" y="323"/>
			<point x="388" y="355"/>
			<point x="408" y="375" type="curve"/>
			<point x="375" y="398"/>
			<point x="297" y="451"/>
			<point x="272" y="466" type="curve"/>
			<point x="159" y="371" type="line"/>
			<point x="160" y="483"/>
			<point x="162" y="597"/>
			<point x="163" y="710" type="curve"/>
			<point x="30" y="690" type="line"/>
			<point x="30" y="664" type="line"/>
			<point x="57" y="656"/>
			<point x="63" y="650"/>
			<point x="63" y="590" type="curve"/>
			<point x="63" y="425"/>
			<point x="68" y="191"/>
		</contour>
		<contour>
			<point x="160" y="177" type="curve"/>
			<point x="160" y="177" type="line"/>
			<point x="159" y="224"/>
			<point x="159" y="271"/>
			<point x="159" y="319" type="curve"/>
			<point x="180" y="353"/>
			<point x="202" y="372"/>
			<point x="223" y="382" type="curve"/>
			<point x="231" y="382"/>
			<point x="300" y="346"/>
			<point x="307" y="324" type="curve"/>
			<point x="266" y="265"/>
			<point x="204" y="212"/>
		</contour>
	</outline>
</glyph>
<glyph name="n" format="2">
	<advance width="442"/>
	<unicode hex="006E"/>
	<note>
		n
	</note>
	<outline>
		<contour>
			<point x="283" y="-3" type="line"/>
			<point x="412" y="20" type="line"/>
			<point x="412" y="57" type="line"/>
			<point x="396" y="66"/>
			<point x="391" y="81"/>
			<point x="390" y="111" type="curve" smooth="yes"/>
			<point x="387" y="206"/>
			<point x="382" y="300"/>
			<point x="390" y="386" type="curve"/>
			<point x="390" y="406"/>
			<point x="350" y="445"/>
			<point x="297" y="465" type="curve"/>
			<point x="166" y="376" type="line"/>
			<point x="146" y="412"/>
			<point x="126" y="441"/>
			<point x="105" y="465" type="curve"/>
			<point x="25" y="395" type="line"/>
			<point x="25" y="365" type="line"/>
			<point x="47" y="365"/>
			<point x="62" y="345"/>
			<point x="62" y="325" type="curve" smooth="yes"/>
			<point x="62" y="205"/>
			<point x="57" y="111"/>
			<point x="52" y="0" type="curve"/>
			<point x="165" y="0" type="line"/>
			<point x="159" y="113"/>
			<point x="162" y="225"/>
			<point x="165" y="338" type="curve"/>
			<point x="184" y="347"/>
			<point x="205" y="354"/>
			<point x="232" y="354" type="curve" smooth="yes"/>
			<point x="262" y="354"/>
			<point x="287" y="330"/>
			<point x="287" y="269" type="curve" smooth="yes"/>
			<point x="287" y="176"/>
			<point x="285" y="100"/>
			<point x="277" y="0" type="curve"/>
		</contour>
	</outline>
</glyph>
<glyph name="p" format="2">
	<advance width="517"/>
	<unicode hex="0070"/>
	<note>
		p
  </note>
	<outline>
		<contour>
			<point x="52" y="-250" type="curve"/>
			<point x="52" y="-250" type="line"/>
			<point x="170" y="-243" type="line"/>
			<point x="169" y="-182"/>
			<point x="166" y="-92"/>
			<point x="165" y="4" type="curve"/>
			<point x="300" y="0" type="line"/>
			<point x="348" y="40"/>
			<point x="492" y="133"/>
			<point x="492" y="243" type="curve"/>
			<point x="492" y="354"/>
			<point x="431" y="433"/>
			<point x="295" y="465" type="curve"/>
			<point x="170" y="365" type="line"/>
			<point x="170" y="366" type="line"/>
			<point x="157" y="386"/>
			<point x="127" y="454"/>
			<point x="99" y="472" type="curve"/>
			<point x="15" y="399" type="line"/>
			<point x="15" y="359" type="line"/>
			<point x="47" y="376"/>
			<point x="62" y="363"/>
			<point x="62" y="333" type="curve"/>
			<point x="62" y="139"/>
			<point x="61" y="-56"/>
		</contour>
		<contour>
			<point x="266" y="73" type="curve"/>
			<point x="266" y="73" type="line"/>
			<point x="226" y="73"/>
			<point x="195" y="79"/>
			<point x="164" y="82" type="curve"/>
			<point x="163" y="168"/>
			<point x="164" y="253"/>
			<point x="167" y="319" type="curve"/>
			<point x="193" y="340"/>
			<point x="221" y="358"/>
			<point x="275" y="358" type="curve"/>
			<point x="347" y="358"/>
			<point x="409" y="291"/>
			<point x="409" y="210" type="curve"/>
			<point x="409" y="133"/>
			<point x="351" y="73"/>
		</contour>
	</outline>
</glyph>
<glyph name="q" format="2">
	<advance width="497"/>
	<unicode hex="0071"/>
	<note>
		q
  </note>
	<outline>
		<contour>
			<point x="337" y="-260" type="curve"/>
			<point x="342" y="-265" type="line"/>
			<point x="457" y="-223" type="line"/>
			<point x="450" y="-24"/>
			<point x="450" y="176"/>
			<point x="457" y="375" type="curve"/>
			<point x="397" y="399"/>
			<point x="337" y="438"/>
			<point x="267" y="468" type="curve"/>
			<point x="172" y="428"/>
			<point x="25" y="314"/>
			<point x="25" y="177" type="curve"/>
			<point x="25" y="87"/>
			<point x="72" y="9"/>
			<point x="192" y="-10" type="curve"/>
			<point x="350" y="90" type="line"/>
			<point x="348" y="-30"/>
			<point x="345" y="-153"/>
		</contour>
		<contour>
			<point x="228" y="85" type="curve"/>
			<point x="228" y="85" type="line"/>
			<point x="148" y="85"/>
			<point x="110" y="162"/>
			<point x="110" y="232" type="curve"/>
			<point x="110" y="312"/>
			<point x="167" y="375"/>
			<point x="236" y="375" type="curve"/>
			<point x="276" y="375"/>
			<point x="334" y="351"/>
			<point x="353" y="324" type="curve"/>
			<point x="352" y="278"/>
			<point x="352" y="228"/>
			<point x="351" y="178" type="curve"/>
			<point x="334" y="107"/>
			<point x="269" y="85"/>
		</contour>
	</outline>
</glyph>
<glyph name="r" format="2">
	<advance width="339"/>
	<unicode hex="0072"/>
	<note>
		r
	</note>
	<outline>
		<contour>
			<point x="56" y="0" type="curve"/>
			<point x="167" y="0" type="line"/>
			<point x="164" y="118"/>
			<point x="157" y="285"/>
			<point x="160" y="362" type="curve"/>
			<point x="210" y="368"/>
			<point x="233" y="350"/>
			<point x="259" y="313" type="curve"/>
			<point x="274" y="311" type="line"/>
			<point x="292" y="337"/>
			<point x="311" y="349"/>
			<point x="334" y="373" type="curve"/>
			<point x="328" y="419"/>
			<point x="293" y="440"/>
			<point x="249" y="465" type="curve"/>
			<point x="161" y="393" type="line"/>
			<point x="155" y="416"/>
			<point x="129" y="453"/>
			<point x="120" y="465" type="curve"/>
			<point x="25" y="405" type="line"/>
			<point x="25" y="375" type="line"/>
			<point x="47" y="368"/>
			<point x="62" y="353"/>
			<point x="62" y="293" type="curve" smooth="yes"/>
			<point x="62" y="219"/>
			<point x="58" y="114"/>
		</contour>
	</outline>
</glyph>
<glyph name="u" format="2">
	<advance width="461"/>
	<unicode hex="0075"/>
	<note>
		u
	</note>
	<outline>
		<contour>
			<point x="162" y="-10" type="curve"/>
			<point x="192" y="16"/>
			<point x="244" y="48"/>
			<point x="293" y="75" type="curve"/>
			<point x="310" y="52"/>
			<point x="328" y="28"/>
			<point x="351" y="-10" type="curve"/>
			<point x="441" y="50" type="line"/>
			<point x="436" y="80" type="line"/>
			<point x="402" y="99"/>
			<point x="400" y="118"/>
			<point x="400" y="205" type="curve" smooth="yes"/>
			<point x="400" y="290"/>
			<point x="405" y="346"/>
			<point x="413" y="397" type="curve"/>
			<point x="402" y="417"/>
			<point x="339" y="455"/>
			<point x="319" y="465" type="curve"/>
			<point x="317" y="465" type="line"/>
			<point x="230" y="365" type="line"/>
			<point x="241" y="346" type="line"/>
			<point x="291" y="374"/>
			<point x="301" y="322"/>
			<point x="301" y="269" type="curve" smooth="yes"/>
			<point x="301" y="216"/>
			<point x="299" y="163"/>
			<point x="294" y="110" type="curve"/>
			<point x="263" y="96"/>
			<point x="237" y="90"/>
			<point x="215" y="90" type="curve" smooth="yes"/>
			<point x="188" y="90"/>
			<point x="167" y="91"/>
			<point x="159" y="106" type="curve"/>
			<point x="157" y="213"/>
			<point x="156" y="341"/>
			<point x="165" y="399" type="curve"/>
			<point x="150" y="420"/>
			<point x="127" y="448"/>
			<point x="92" y="465" type="curve"/>
			<point x="90" y="465" type="line"/>
			<point x="25" y="394" type="line"/>
			<point x="25" y="375" type="line"/>
			<point x="45" y="355"/>
			<point x="54" y="336"/>
			<point x="56" y="296" type="curve" smooth="yes"/>
			<point x="59" y="232"/>
			<point x="56" y="124"/>
			<point x="56" y="60" type="curve"/>
			<point x="76" y="44"/>
			<point x="130" y="-10"/>
		</contour>
	</outline>
</glyph>
<glyph name="v" format="2">
	<advance width="504"/>
	<unicode hex="0076"/>
	<note>
		v
  </note>
	<outline>
		<contour>
			<point x="210" y="0" type="curve"/>
			<point x="226" y="-11" type="line"/>
			<point x="368" y="41"/>
			<point x="494" y="170"/>
			<point x="494" y="283" type="curve"/>
			<point x="494" y="406"/>
			<point x="407" y="454"/>
			<point x="305" y="465" type="curve"/>
			<point x="278" y="423"/>
			<point x="248" y="382"/>
			<point x="209" y="346" type="curve"/>
			<point x="196" y="382"/>
			<point x="183" y="415"/>
			<point x="172" y="441" type="curve"/>
			<point x="75" y="465" type="line"/>
			<point x="10" y="371" type="line"/>
			<point x="29" y="339" type="line"/>
			<point x="64" y="370"/>
			<point x="74" y="366"/>
			<point x="126" y="245" type="curve"/>
			<point x="152" y="184"/>
			<point x="195" y="74"/>
		</contour>
		<contour>
			<point x="297" y="84" type="curve"/>
			<point x="297" y="84" type="line"/>
			<point x="283" y="118"/>
			<point x="253" y="217"/>
			<point x="222" y="309" type="curve"/>
			<point x="253" y="337"/>
			<point x="280" y="354"/>
			<point x="313" y="354" type="curve"/>
			<point x="363" y="354"/>
			<point x="423" y="317"/>
			<point x="423" y="238" type="curve"/>
			<point x="423" y="171"/>
			<point x="378" y="118"/>
		</contour>
	</outline>
</glyph>
<glyph name="w" format="2">
	<advance width="766"/>
	<unicode hex="0077"/>
	<note>
		w
	</note>
	<outline>
		<contour>
			<point x="283" y="-11" type="line"/>
			<point x="328" y="25"/>
			<point x="386" y="68"/>
			<point x="448" y="104" type="curve"/>
			<point x="459" y="68"/>
			<point x="467" y="32"/>
			<point x="474" y="-1" type="curve"/>
			<point x="501" y="-10" type="line"/>
			<point x="543" y="32"/>
			<point x="751" y="150"/>
			<point x="751" y="273" type="curve" smooth="yes"/>
			<point x="751" y="367"/>
			<point x="692" y="426"/>
			<point x="600" y="465" type="curve"/>
			<point x="550" y="417"/>
			<point x="509" y="384"/>
			<point x="468" y="354" type="curve"/>
			<point x="454" y="385"/>
			<point x="440" y="413"/>
			<point x="426" y="440" type="curve"/>
			<point x="397" y="450"/>
			<point x="368" y="461"/>
			<point x="348" y="463" type="curve"/>
			<point x="312" y="419"/>
			<point x="272" y="375"/>
			<point x="221" y="339" type="curve"/>
			<point x="201" y="379"/>
			<point x="180" y="415"/>
			<point x="160" y="444" type="curve"/>
			<point x="154" y="447"/>
			<point x="115" y="465"/>
			<point x="95" y="465" type="curve"/>
			<point x="15" y="328" type="line"/>
			<point x="41" y="302" type="line"/>
			<point x="94" y="397"/>
			<point x="126" y="270"/>
			<point x="257" y="0" type="curve"/>
		</contour>
		<contour>
			<point x="566" y="99" type="curve"/>
			<point x="540" y="171"/>
			<point x="513" y="248"/>
			<point x="483" y="320" type="curve"/>
			<point x="511" y="340"/>
			<point x="536" y="351"/>
			<point x="567" y="351" type="curve" smooth="yes"/>
			<point x="617" y="351"/>
			<point x="668" y="307"/>
			<point x="668" y="238" type="curve" smooth="yes"/>
			<point x="668" y="189"/>
			<point x="651" y="136"/>
		</contour>
		<contour>
			<point x="344" y="86" type="curve"/>
			<point x="313" y="144"/>
			<point x="276" y="228"/>
			<point x="238" y="306" type="curve"/>
			<point x="305" y="364"/>
			<point x="350" y="358"/>
			<point x="398" y="245" type="curve" smooth="yes"/>
			<point x="413" y="211"/>
			<point x="425" y="177"/>
			<point x="436" y="144" type="curve"/>
			<point x="407" y="120"/>
			<point x="374" y="100"/>
		</contour>
	</outline>
</glyph>
<glyph name="x" format="2">
	<advance width="354"/>
	<unicode hex="0078"/>
	<note>
		x
	</note>
	<outline>
		<contour>
			<point x="77" y="-123" type="line"/>
			<point x="82" y="-123" type="line"/>
			<point x="95" y="-30"/>
			<point x="107" y="36"/>
			<point x="129" y="110" type="curve"/>
			<point x="149" y="59"/>
			<point x="175" y="14"/>
			<point x="209" y="-10" type="curve"/>
			<point x="256" y="16"/>
			<point x="309" y="59"/>
			<point x="343" y="90" type="curve"/>
			<point x="324" y="121" type="line"/>
			<point x="262" y="80"/>
			<point x="251" y="88"/>
			<point x="228" y="140" type="curve" smooth="yes"/>
			<point x="212" y="175"/>
			<point x="189" y="237"/>
			<point x="176" y="309" type="curve"/>
			<point x="212" y="333"/>
			<point x="232" y="336"/>
			<point x="289" y="306" type="curve"/>
			<point x="344" y="414" type="line"/>
			<point x="325" y="435"/>
			<point x="287" y="452"/>
			<point x="255" y="465" type="curve"/>
			<point x="250" y="465" type="line"/>
			<point x="170" y="351" type="line"/>
			<point x="167" y="373"/>
			<point x="166" y="395"/>
			<point x="166" y="417" type="curve" smooth="yes"/>
			<point x="166" y="427"/>
			<point x="92" y="465"/>
			<point x="82" y="465" type="curve" smooth="yes"/>
			<point x="77" y="465" type="line"/>
			<point x="10" y="375" type="line"/>
			<point x="23" y="345" type="line"/>
			<point x="48" y="355"/>
			<point x="59" y="357"/>
			<point x="77" y="282" type="curve" smooth="yes"/>
			<point x="86" y="245"/>
			<point x="96" y="203"/>
			<point x="109" y="163" type="curve"/>
			<point x="77" y="75"/>
			<point x="44" y="1"/>
			<point x="18" y="-87" type="curve"/>
		</contour>
	</outline>
</glyph>
<glyph name="y" format="2">
	<advance width="540"/>
	<unicode hex="0079"/>
	<note>
		y
  </note>
	<outline>
		<contour>
			<point x="58" y="-230" type="curve"/>
			<point x="114" y="-265" type="line"/>
			<point x="347" y="9" type="line" smooth="yes"/>
			<point x="395" y="66"/>
			<point x="489" y="177"/>
			<point x="489" y="293" type="curve"/>
			<point x="489" y="400"/>
			<point x="424" y="437"/>
			<point x="339" y="465" type="curve"/>
			<point x="201" y="357" type="line"/>
			<point x="178" y="423" type="line" smooth="yes"/>
			<point x="171" y="442"/>
			<point x="124" y="465"/>
			<point x="105" y="465" type="curve"/>
			<point x="29" y="360" type="line"/>
			<point x="44" y="327" type="line"/>
			<point x="79" y="362"/>
			<point x="92" y="348"/>
			<point x="110" y="303" type="curve"/>
			<point x="248" y="-48" type="line"/>
			<point x="192" y="-108"/>
			<point x="127" y="-169"/>
		</contour>
		<contour>
			<point x="314" y="29" type="curve"/>
			<point x="314" y="29" type="line"/>
			<point x="212" y="323" type="line"/>
			<point x="234" y="342"/>
			<point x="267" y="361"/>
			<point x="301" y="361" type="curve"/>
			<point x="350" y="361"/>
			<point x="405" y="320"/>
			<point x="405" y="232" type="curve"/>
			<point x="405" y="171"/>
			<point x="370" y="102"/>
		</contour>
	</outline>
</glyph>
<glyph name="section" format="2">
	<advance width="498"/>
	<unicode hex="00A7"/>
	<note>
		section
  </note>
	<outline>
		<contour>
			<point x="5" y="-251" type="curve"/>
			<point x="23" y="-271" type="line"/>
			<point x="250" y="-130"/>
			<point x="450" y="5"/>
			<point x="449" y="110" type="curve"/>
			<point x="448" y="189"/>
			<point x="393" y="236"/>
			<point x="335" y="274" type="curve"/>
			<point x="401" y="314"/>
			<point x="450" y="343"/>
			<point x="450" y="412" type="curve"/>
			<point x="450" y="473"/>
			<point x="343" y="495"/>
			<point x="271" y="525" type="curve"/>
			<point x="231" y="542"/>
			<point x="187" y="563"/>
			<point x="184" y="613" type="curve"/>
			<point x="183" y="631"/>
			<point x="198" y="648"/>
			<point x="221" y="648" type="curve"/>
			<point x="274" y="648"/>
			<point x="312" y="595"/>
			<point x="365" y="580" type="curve"/>
			<point x="400" y="622"/>
			<point x="458" y="685"/>
			<point x="473" y="700" type="curve"/>
			<point x="449" y="715" type="line"/>
			<point x="431" y="700"/>
			<point x="404" y="684"/>
			<point x="394" y="684" type="curve"/>
			<point x="368" y="684"/>
			<point x="331" y="690"/>
			<point x="271" y="725" type="curve"/>
			<point x="173" y="675"/>
			<point x="94" y="622"/>
			<point x="94" y="572" type="curve"/>
			<point x="94" y="527"/>
			<point x="117" y="504"/>
			<point x="151" y="485" type="curve"/>
			<point x="113" y="467"/>
			<point x="63" y="431"/>
			<point x="63" y="387" type="curve"/>
			<point x="63" y="316"/>
			<point x="123" y="283"/>
			<point x="205" y="231" type="curve"/>
			<point x="263" y="194"/>
			<point x="339" y="145"/>
			<point x="339" y="87" type="curve"/>
			<point x="339" y="-5"/>
			<point x="140" y="-156"/>
		</contour>
		<contour>
			<point x="307" y="291" type="curve"/>
			<point x="307" y="291" type="line"/>
			<point x="253" y="328"/>
			<point x="155" y="384"/>
			<point x="155" y="429" type="curve"/>
			<point x="155" y="449"/>
			<point x="168" y="462"/>
			<point x="181" y="471" type="curve"/>
			<point x="200" y="462"/>
			<point x="221" y="454"/>
			<point x="243" y="443" type="curve"/>
			<point x="331" y="399"/>
			<point x="355" y="388"/>
			<point x="355" y="362" type="curve"/>
			<point x="355" y="325"/>
			<point x="335" y="306"/>
		</contour>
	</outline>
</glyph>
<glyph name="periodcentered" format="2">
	<advance width="200"/>
	<unicode hex="00B7"/>
	<outline>
		<contour>
			<point x="97" y="163" type="line"/>
			<point x="102" y="163" type="line"/>
			<point x="180" y="241" type="line"/>
			<point x="180" y="247" type="line"/>
			<point x="102" y="325" type="line"/>
			<point x="97" y="325" type="line"/>
			<point x="20" y="247" type="line"/>
			<point x="20" y="241" type="line"/>
		</contour>
	</outline>
</glyph>
<glyph name="a_macr" format="2">
	<advance width="437"/>
	<unicode hex="0101"/>
	<note>
		a_macr
  </note>
	<outline>
		<contour>
			<point x="31" y="508" type="curve"/>
			<point x="52" y="501" type="line"/>
			<point x="81" y="544"/>
			<point x="165" y="557"/>
			<point x="229" y="561" type="curve"/>
			<point x="362" y="569" type="line"/>
			<point x="388" y="648" type="line"/>
			<point x="386" y="654" type="line"/>
			<point x="113" y="617" type="line"/>
			<point x="82" y="586"/>
			<point x="50" y="545"/>
		</contour>
		<contour>
			<point x="122" y="-10" type="curve"/>
			<point x="122" y="-10" type="line"/>
			<point x="177" y="26"/>
			<point x="231" y="74"/>
			<point x="270" y="93" type="curve"/>
			<point x="271" y="48"/>
			<point x="281" y="14"/>
			<point x="310" y="-10" type="curve"/>
			<point x="412" y="49" type="line"/>
			<point x="411" y="90" type="line"/>
			<point x="388" y="73"/>
			<point x="375" y="86"/>
			<point x="374" y="135" type="curve"/>
			<point x="373" y="208"/>
			<point x="370" y="317"/>
			<point x="373" y="400" type="curve"/>
			<point x="352" y="429"/>
			<point x="301" y="455"/>
			<point x="271" y="465" type="curve"/>
			<point x="192" y="432"/>
			<point x="114" y="385"/>
			<point x="36" y="338" type="curve"/>
			<point x="54" y="312" type="line"/>
			<point x="56" y="311" type="line"/>
			<point x="97" y="336"/>
			<point x="165" y="378"/>
			<point x="204" y="378" type="curve"/>
			<point x="238" y="378"/>
			<point x="266" y="354"/>
			<point x="269" y="318" type="curve"/>
			<point x="218" y="279"/>
			<point x="98" y="202"/>
			<point x="15" y="142" type="curve"/>
			<point x="52" y="91"/>
			<point x="97" y="37"/>
		</contour>
		<contour>
			<point x="187" y="82" type="curve"/>
			<point x="187" y="82" type="line"/>
			<point x="122" y="167" type="line"/>
			<point x="269" y="277" type="line"/>
			<point x="270" y="151" type="line"/>
			<point x="250" y="119"/>
			<point x="215" y="99"/>
		</contour>
	</outline>
</glyph>
<glyph name="e_macr" format="2">
	<advance width="406"/>
	<unicode hex="0113"/>
	<note>
		e_macr
  </note>
	<outline>
		<contour>
			<point x="30" y="511" type="curve"/>
			<point x="51" y="502" type="line"/>
			<point x="83" y="543"/>
			<point x="167" y="550"/>
			<point x="232" y="550" type="curve"/>
			<point x="365" y="548" type="line"/>
			<point x="396" y="625" type="line"/>
			<point x="395" y="631" type="line"/>
			<point x="120" y="614" type="line"/>
			<point x="87" y="585"/>
			<point x="52" y="546"/>
		</contour>
		<contour>
			<point x="180" y="-10" type="curve"/>
			<point x="180" y="-10" type="line"/>
			<point x="215" y="-10"/>
			<point x="280" y="18"/>
			<point x="330" y="57" type="curve"/>
			<point x="320" y="87" type="line"/>
			<point x="237" y="51"/>
			<point x="179" y="81"/>
			<point x="154" y="149" type="curve"/>
			<point x="372" y="293" type="line"/>
			<point x="379" y="320" type="line"/>
			<point x="349" y="374"/>
			<point x="310" y="443"/>
			<point x="225" y="464" type="curve"/>
			<point x="180" y="430"/>
			<point x="103" y="382"/>
			<point x="59" y="350" type="curve"/>
			<point x="57" y="312"/>
			<point x="51" y="252"/>
			<point x="51" y="212" type="curve"/>
			<point x="51" y="59"/>
			<point x="133" y="-10"/>
		</contour>
		<contour>
			<point x="145" y="184" type="curve"/>
			<point x="145" y="184" type="line"/>
			<point x="142" y="199"/>
			<point x="141" y="215"/>
			<point x="141" y="232" type="curve"/>
			<point x="141" y="267"/>
			<point x="144" y="326"/>
			<point x="156" y="378" type="curve"/>
			<point x="210" y="375"/>
			<point x="275" y="332"/>
			<point x="278" y="299" type="curve"/>
			<point x="280" y="275"/>
			<point x="263" y="263"/>
		</contour>
	</outline>
</glyph>
<glyph name="i_macr" format="2">
	<advance width="269"/>
	<unicode hex="012B"/>
	<outline>
		<contour>
			<point x="24" y="557" type="line"/>
			<point x="73" y="570"/>
			<point x="149" y="562"/>
			<point x="216" y="559" type="curve"/>
			<point x="249" y="646" type="line"/>
			<point x="236" y="653" type="line"/>
			<point x="191" y="646"/>
			<point x="116" y="653"/>
			<point x="46" y="649" type="curve"/>
			<point x="15" y="567" type="line"/>
		</contour>
		<contour>
			<point x="133" y="-10" type="curve" smooth="yes"/>
			<point x="135" y="-10" type="line"/>
			<point x="220" y="50" type="line"/>
			<point x="213" y="79" type="line"/>
			<point x="191" y="79"/>
			<point x="183" y="90"/>
			<point x="181" y="104" type="curve" smooth="yes"/>
			<point x="177" y="131"/>
			<point x="171" y="290"/>
			<point x="193" y="412" type="curve"/>
			<point x="122" y="465" type="line"/>
			<point x="120" y="465" type="line"/>
			<point x="32" y="405" type="line"/>
			<point x="39" y="382" type="line"/>
			<point x="75" y="377"/>
			<point x="84" y="370"/>
			<point x="82" y="330" type="curve" smooth="yes"/>
			<point x="71" y="57" type="line" smooth="yes"/>
			<point x="70" y="47"/>
			<point x="123" y="-10"/>
		</contour>
	</outline>
</glyph>
<glyph name="dotlessi" format="2">
	<advance width="238"/>
	<unicode hex="0131"/>
	<outline>
		<contour>
			<point x="126" y="-10" type="curve"/>
			<point x="126" y="-10" type="line"/>
			<point x="128" y="-10" type="line"/>
			<point x="213" y="50" type="line"/>
			<point x="206" y="79" type="line"/>
			<point x="184" y="79"/>
			<point x="176" y="90"/>
			<point x="174" y="104" type="curve"/>
			<point x="170" y="131"/>
			<point x="164" y="290"/>
			<point x="186" y="412" type="curve"/>
			<point x="115" y="465" type="line"/>
			<point x="113" y="465" type="line"/>
			<point x="25" y="405" type="line"/>
			<point x="32" y="382" type="line"/>
			<point x="68" y="377"/>
			<point x="77" y="370"/>
			<point x="75" y="330" type="curve"/>
			<point x="64" y="57" type="line" smooth="yes"/>
			<point x="63" y="47"/>
			<point x="116" y="-10"/>
		</contour>
	</outline>
</glyph>
<glyph name="o_macr" format="2">
	<advance width="476"/>
	<unicode hex="014D"/>
	<outline>
		<contour>
			<point x="28" y="545" type="curve"/>
			<point x="48" y="535" type="line"/>
			<point x="83" y="573"/>
			<point x="168" y="575"/>
			<point x="232" y="570" type="curve"/>
			<point x="365" y="559" type="line"/>
			<point x="401" y="634" type="line"/>
			<point x="400" y="640" type="line"/>
			<point x="125" y="641" type="line"/>
			<point x="90" y="615"/>
			<point x="52" y="579"/>
		</contour>
		<contour>
			<point x="265" y="-10" type="curve"/>
			<point x="265" y="-10" type="line"/>
			<point x="354" y="68"/>
			<point x="451" y="108"/>
			<point x="451" y="258" type="curve"/>
			<point x="451" y="358"/>
			<point x="364" y="465"/>
			<point x="226" y="465" type="curve"/>
			<point x="128" y="440"/>
			<point x="25" y="327"/>
			<point x="25" y="217" type="curve"/>
			<point x="25" y="107"/>
			<point x="104" y="1"/>
		</contour>
		<contour>
			<point x="306" y="83" type="curve"/>
			<point x="306" y="83" type="line"/>
			<point x="195" y="82"/>
			<point x="106" y="161"/>
			<point x="106" y="271" type="curve"/>
			<point x="106" y="310"/>
			<point x="123" y="362"/>
			<point x="158" y="380" type="curve"/>
			<point x="272" y="393"/>
			<point x="371" y="307"/>
			<point x="371" y="217" type="curve"/>
			<point x="371" y="157"/>
			<point x="347" y="112"/>
		</contour>
	</outline>
</glyph>
<glyph name="longs" format="2">
	<advance width="182"/>
	<unicode hex="017F"/>
	<note>
		longs
  </note>
	<outline>
		<contour>
			<point x="20" y="0" type="curve"/>
			<point x="20" y="0" type="line"/>
			<point x="123" y="0" type="line"/>
			<point x="123" y="618" type="line"/>
			<point x="162" y="617"/>
			<point x="200" y="612"/>
			<point x="239" y="605" type="curve"/>
			<point x="307" y="683" type="line"/>
			<point x="305" y="695" type="line"/>
			<point x="154" y="700" type="line"/>
			<point x="106" y="665"/>
			<point x="63" y="626"/>
			<point x="23" y="585" type="curve"/>
			<point x="23" y="368" type="line" smooth="yes"/>
			<point x="23" y="285"/>
			<point x="28" y="92"/>
		</contour>
	</outline>
</glyph>
<glyph name="p_bardes" format="2">
	<advance width="516"/>
	<unicode hex="A750"/>
	<note>
		per
  </note>
	<outline>
		<contour>
			<point x="164" y="4" type="curve"/>
			<point x="164" y="4" type="line"/>
			<point x="299" y="0" type="line"/>
			<point x="347" y="40"/>
			<point x="491" y="133"/>
			<point x="491" y="243" type="curve"/>
			<point x="491" y="354"/>
			<point x="430" y="433"/>
			<point x="294" y="465" type="curve"/>
			<point x="169" y="365" type="line"/>
			<point x="169" y="366" type="line"/>
			<point x="156" y="386"/>
			<point x="126" y="454"/>
			<point x="98" y="472" type="curve"/>
			<point x="14" y="399" type="line"/>
			<point x="14" y="359" type="line"/>
			<point x="46" y="376"/>
			<point x="61" y="363"/>
			<point x="61" y="333" type="curve"/>
			<point x="61" y="247"/>
			<point x="61" y="162"/>
			<point x="60" y="76" type="curve"/>
			<point x="-15" y="38" type="line"/>
			<point x="-10" y="21" type="line"/>
			<point x="59" y="15" type="line"/>
			<point x="58" y="-21"/>
			<point x="58" y="-57"/>
			<point x="57" y="-92" type="curve"/>
			<point x="31" y="-92" type="line"/>
			<point x="-9" y="-137" type="line"/>
			<point x="1" y="-148" type="line"/>
			<point x="19" y="-148"/>
			<point x="37" y="-148"/>
			<point x="55" y="-149" type="curve"/>
			<point x="54" y="-183"/>
			<point x="53" y="-216"/>
			<point x="51" y="-250" type="curve"/>
			<point x="169" y="-243" type="line"/>
			<point x="169" y="-218"/>
			<point x="168" y="-187"/>
			<point x="167" y="-154" type="curve"/>
			<point x="242" y="-158"/>
			<point x="317" y="-164"/>
			<point x="388" y="-173" type="curve"/>
			<point x="401" y="-150"/>
			<point x="416" y="-127"/>
			<point x="435" y="-104" type="curve"/>
			<point x="435" y="-99" type="line"/>
			<point x="166" y="-94" type="line"/>
			<point x="165" y="-63"/>
			<point x="164" y="-30"/>
		</contour>
		<contour>
			<point x="166" y="319" type="curve"/>
			<point x="166" y="319" type="line"/>
			<point x="192" y="340"/>
			<point x="220" y="358"/>
			<point x="274" y="358" type="curve"/>
			<point x="346" y="358"/>
			<point x="408" y="291"/>
			<point x="408" y="210" type="curve"/>
			<point x="408" y="133"/>
			<point x="350" y="73"/>
			<point x="265" y="73" type="curve"/>
			<point x="225" y="73"/>
			<point x="194" y="79"/>
			<point x="163" y="82" type="curve"/>
			<point x="162" y="168"/>
			<point x="163" y="253"/>
		</contour>
	</outline>
</glyph>
<glyph name="v_longhook" format="2">
	<advance width="561"/>
	<unicode hex="A75F"/>
	<note>
		ver
	</note>
	<outline>
		<contour>
			<point x="280" y="-11" type="line"/>
			<point x="422" y="41"/>
			<point x="548" y="170"/>
			<point x="548" y="283" type="curve" smooth="yes"/>
			<point x="548" y="406"/>
			<point x="481" y="454"/>
			<point x="379" y="465" type="curve"/>
			<point x="349" y="417"/>
			<point x="305" y="346"/>
			<point x="257" y="294" type="curve"/>
			<point x="250" y="310"/>
			<point x="244" y="326"/>
			<point x="237" y="342" type="curve"/>
			<point x="301" y="434"/>
			<point x="346" y="506"/>
			<point x="381" y="579" type="curve"/>
			<point x="351" y="612"/>
			<point x="275" y="624"/>
			<point x="213" y="607" type="curve"/>
			<point x="192" y="537" type="line"/>
			<point x="199" y="530" type="line"/>
			<point x="236" y="535"/>
			<point x="292" y="524"/>
			<point x="292" y="494" type="curve" smooth="yes"/>
			<point x="292" y="482"/>
			<point x="265" y="437"/>
			<point x="223" y="376" type="curve"/>
			<point x="214" y="398"/>
			<point x="205" y="420"/>
			<point x="197" y="441" type="curve"/>
			<point x="100" y="465" type="line"/>
			<point x="35" y="371" type="line"/>
			<point x="54" y="339" type="line"/>
			<point x="87" y="368"/>
			<point x="98" y="366"/>
			<point x="143" y="264" type="curve"/>
			<point x="82" y="182"/>
			<point x="12" y="94"/>
			<point x="-51" y="22" type="curve"/>
			<point x="-50" y="20" type="line"/>
			<point x="-4" y="10" type="line"/>
			<point x="58" y="95"/>
			<point x="112" y="167"/>
			<point x="157" y="231" type="curve"/>
			<point x="187" y="168"/>
			<point x="248" y="67"/>
			<point x="262" y="-2" type="curve"/>
		</contour>
		<contour>
			<point x="350" y="83" type="curve"/>
			<point x="337" y="112"/>
			<point x="305" y="182"/>
			<point x="271" y="262" type="curve"/>
			<point x="310" y="312"/>
			<point x="344" y="338"/>
			<point x="382" y="338" type="curve" smooth="yes"/>
			<point x="432" y="338"/>
			<point x="477" y="299"/>
			<point x="477" y="238" type="curve" smooth="yes"/>
			<point x="477" y="171"/>
			<point x="432" y="117"/>
		</contour>
	</outline>
</glyph>
<glyph name="con" format="2">
	<advance width="437"/>
	<unicode hex="A76F"/>
	<note>
		com
	</note>
	<outline>
		<contour>
			<point x="215" y="-10" type="curve"/>
			<point x="220" y="-10" type="line"/>
			<point x="259" y="16"/>
			<point x="320" y="50"/>
			<point x="355" y="86" type="curve"/>
			<point x="469" y="234"/>
			<point x="409" y="465"/>
			<point x="193" y="465" type="curve" smooth="yes"/>
			<point x="129" y="465"/>
			<point x="84" y="434"/>
			<point x="20" y="387" type="curve"/>
			<point x="31" y="357" type="line"/>
			<point x="60" y="367"/>
			<point x="86" y="381"/>
			<point x="144" y="381" type="curve" smooth="yes"/>
			<point x="329" y="381"/>
			<point x="372" y="186"/>
			<point x="309" y="90" type="curve"/>
			<point x="259" y="107"/>
			<point x="214" y="162"/>
			<point x="179" y="192" type="curve"/>
			<point x="20" y="120" type="line"/>
			<point x="36" y="90" type="line"/>
			<point x="101" y="118" type="line"/>
			<point x="125" y="96"/>
			<point x="182" y="30"/>
		</contour>
	</outline>
</glyph>
<glyph name="us" format="2">
	<advance width="338"/>
	<unicode hex="A770"/>
	<note>
		us
	</note>
	<outline>
		<contour>
			<point x="88" y="-14" type="line"/>
			<point x="215" y="134"/>
			<point x="318" y="371"/>
			<point x="318" y="520" type="curve" smooth="yes"/>
			<point x="318" y="630"/>
			<point x="286" y="710"/>
			<point x="191" y="710" type="curve" smooth="yes"/>
			<point x="77" y="710"/>
			<point x="10" y="576"/>
			<point x="10" y="487" type="curve" smooth="yes"/>
			<point x="10" y="397"/>
			<point x="48" y="328"/>
			<point x="82" y="304" type="curve"/>
			<point x="134" y="306"/>
			<point x="191" y="336"/>
			<point x="235" y="360" type="curve"/>
			<point x="208" y="225"/>
			<point x="130" y="95"/>
			<point x="59" y="11" type="curve"/>
		</contour>
		<contour>
			<point x="242" y="402" type="curve"/>
			<point x="154" y="363"/>
			<point x="65" y="436"/>
			<point x="65" y="524" type="curve" smooth="yes"/>
			<point x="65" y="575"/>
			<point x="101" y="617"/>
			<point x="145" y="617" type="curve" smooth="yes"/>
			<point x="203" y="617"/>
			<point x="245" y="549"/>
			<point x="245" y="457" type="curve" smooth="yes"/>
			<point x="245" y="439"/>
			<point x="244" y="421"/>
		</contour>
	</outline>
</glyph>
<glyph name="rum" format="2">
	<advance width="646"/>
	<unicode hex="A775"/>
	<note>
		uniA775
  </note>
	<outline>
		<contour>
			<point x="33" y="-243" type="line"/>
			<point x="90" y="-257" type="line"/>
			<point x="93" y="-257" type="line"/>
			<point x="338" y="3" type="line"/>
			<point x="428" y="2"/>
			<point x="521" y="1"/>
			<point x="595" y="-1" type="curve"/>
			<point x="626" y="85" type="line"/>
			<point x="623" y="90" type="line"/>
			<point x="420" y="90" type="line"/>
			<point x="636" y="319" type="line"/>
			<point x="636" y="322" type="line"/>
			<point x="583" y="363"/>
			<point x="529" y="414"/>
			<point x="476" y="475" type="curve"/>
			<point x="473" y="475" type="line"/>
			<point x="338" y="357" type="line"/>
			<point x="319" y="430"/>
			<point x="257" y="465"/>
			<point x="201" y="465" type="curve"/>
			<point x="147" y="465"/>
			<point x="97" y="406"/>
			<point x="38" y="345" type="curve"/>
			<point x="59" y="323" type="line"/>
			<point x="97" y="354"/>
			<point x="120" y="366"/>
			<point x="150" y="366" type="curve"/>
			<point x="170" y="366"/>
			<point x="226" y="349"/>
			<point x="226" y="291" type="curve"/>
			<point x="226" y="202"/>
			<point x="74" y="83"/>
			<point x="10" y="13" type="curve"/>
			<point x="23" y="-8" type="line"/>
			<point x="53" y="1"/>
			<point x="160" y="4"/>
			<point x="282" y="3" type="curve"/>
			<point x="197" y="-82"/>
			<point x="104" y="-172"/>
			<point x="36" y="-242" type="curve"/>
		</contour>
		<contour>
			<point x="367" y="90" type="curve"/>
			<point x="143" y="90" type="line"/>
			<point x="343" y="322" type="line"/>
			<point x="358" y="335"/>
			<point x="376" y="345"/>
			<point x="399" y="345" type="curve"/>
			<point x="434" y="345"/>
			<point x="495" y="307"/>
			<point x="495" y="256" type="curve"/>
			<point x="495" y="231"/>
			<point x="441" y="167"/>
		</contour>
	</outline>
</glyph>
<glyph name="n_macr" format="2">
	<advance width="442"/>
	<unicode hex="E5DC"/>
	<note>
		n_macr
  </note>
	<outline>
		<contour>
			<point x="43" y="550" type="curve"/>
			<point x="63" y="540" type="line"/>
			<point x="97" y="578"/>
			<point x="182" y="580"/>
			<point x="246" y="574" type="curve"/>
			<point x="349" y="566" type="line"/>
			<point x="386" y="640" type="line"/>
			<point x="385" y="646" type="line"/>
			<point x="165" y="646" type="line"/>
			<point x="130" y="620"/>
			<point x="67" y="584"/>
		</contour>
		<contour>
			<point x="277" y="0" type="curve"/>
			<point x="283" y="-3" type="line"/>
			<point x="412" y="20" type="line"/>
			<point x="412" y="57" type="line"/>
			<point x="396" y="66"/>
			<point x="391" y="81"/>
			<point x="390" y="111" type="curve"/>
			<point x="387" y="206"/>
			<point x="382" y="300"/>
			<point x="390" y="386" type="curve"/>
			<point x="390" y="406"/>
			<point x="350" y="445"/>
			<point x="297" y="465" type="curve"/>
			<point x="166" y="376" type="line"/>
			<point x="146" y="412"/>
			<point x="126" y="441"/>
			<point x="105" y="465" type="curve"/>
			<point x="25" y="395" type="line"/>
			<point x="25" y="365" type="line"/>
			<point x="47" y="365"/>
			<point x="62" y="345"/>
			<point x="62" y="325" type="curve"/>
			<point x="62" y="205"/>
			<point x="57" y="111"/>
			<point x="52" y="0" type="curve"/>
			<point x="165" y="0" type="line"/>
			<point x="159" y="113"/>
			<point x="162" y="225"/>
			<point x="165" y="338" type="curve"/>
			<point x="184" y="347"/>
			<point x="205" y="354"/>
			<point x="232" y="354" type="curve"/>
			<point x="262" y="354"/>
			<point x="287" y="330"/>
			<point x="287" y="269" type="curve"/>
			<point x="287" y="176"/>
			<point x="285" y="100"/>
		</contour>
	</outline>
</glyph>
<glyph name="p_macr" format="2">
	<advance width="517"/>
	<unicode hex="E665"/>
	<note>
		p_macr
  </note>
	<outline>
		<contour>
			<point x="141" y="516" type="curve"/>
			<point x="162" y="501" type="line"/>
			<point x="219" y="544"/>
			<point x="243" y="548"/>
			<point x="307" y="546" type="curve"/>
			<point x="372" y="544" type="line"/>
			<point x="458" y="657" type="line"/>
			<point x="420" y="662" type="line"/>
			<point x="399" y="616"/>
			<point x="330" y="629"/>
			<point x="252" y="617" type="curve"/>
			<point x="221" y="586"/>
			<point x="180" y="552"/>
		</contour>
		<contour>
			<point x="25" y="-256" type="line"/>
			<point x="232" y="-263" type="line"/>
			<point x="242" y="-227" type="line"/>
			<point x="170" y="-225" type="line"/>
			<point x="165" y="4" type="line"/>
			<point x="300" y="0" type="line"/>
			<point x="348" y="40"/>
			<point x="492" y="133"/>
			<point x="492" y="243" type="curve"/>
			<point x="492" y="354"/>
			<point x="431" y="433"/>
			<point x="295" y="465" type="curve"/>
			<point x="165" y="361" type="line"/>
			<point x="166" y="394"/>
			<point x="168" y="423"/>
			<point x="170" y="446" type="curve"/>
			<point x="15" y="438" type="line"/>
			<point x="15" y="398" type="line"/>
			<point x="57" y="396"/>
			<point x="62" y="382"/>
			<point x="62" y="352" type="curve"/>
			<point x="62" y="168"/>
			<point x="58" y="10"/>
			<point x="53" y="-176" type="curve"/>
			<point x="52" y="-215"/>
			<point x="52" y="-215"/>
			<point x="30" y="-230" type="curve"/>
		</contour>
		<contour>
			<point x="266" y="73" type="curve"/>
			<point x="266" y="73" type="line"/>
			<point x="226" y="73"/>
			<point x="195" y="79"/>
			<point x="164" y="82" type="curve"/>
			<point x="163" y="164"/>
			<point x="163" y="247"/>
			<point x="164" y="317" type="curve"/>
			<point x="191" y="338"/>
			<point x="219" y="358"/>
			<point x="275" y="358" type="curve"/>
			<point x="347" y="358"/>
			<point x="409" y="291"/>
			<point x="409" y="210" type="curve"/>
			<point x="409" y="133"/>
			<point x="351" y="73"/>
		</contour>
	</outline>
</glyph>
<glyph name="q_macr" format="2">
	<advance width="498"/>
	<unicode hex="E681"/>
	<note>
		q_macr
	</note>
	<outline>
		<contour>
			<point x="122" y="501" type="line"/>
			<point x="151" y="544"/>
			<point x="235" y="557"/>
			<point x="299" y="561" type="curve" smooth="yes"/>
			<point x="432" y="569" type="line"/>
			<point x="458" y="648" type="line"/>
			<point x="456" y="654" type="line"/>
			<point x="183" y="617" type="line"/>
			<point x="152" y="586"/>
			<point x="120" y="545"/>
			<point x="101" y="508" type="curve"/>
		</contour>
		<contour>
			<point x="342" y="-265" type="line"/>
			<point x="457" y="-223" type="line"/>
			<point x="450" y="-24"/>
			<point x="450" y="176"/>
			<point x="457" y="375" type="curve"/>
			<point x="397" y="399"/>
			<point x="337" y="438"/>
			<point x="267" y="468" type="curve"/>
			<point x="172" y="428"/>
			<point x="25" y="314"/>
			<point x="25" y="177" type="curve" smooth="yes"/>
			<point x="25" y="87"/>
			<point x="72" y="9"/>
			<point x="192" y="-10" type="curve"/>
			<point x="350" y="90" type="line"/>
			<point x="348" y="-30"/>
			<point x="345" y="-153"/>
			<point x="337" y="-260" type="curve"/>
		</contour>
		<contour>
			<point x="228" y="85" type="curve" smooth="yes"/>
			<point x="148" y="85"/>
			<point x="110" y="162"/>
			<point x="110" y="232" type="curve" smooth="yes"/>
			<point x="110" y="312"/>
			<point x="167" y="375"/>
			<point x="236" y="375" type="curve" smooth="yes"/>
			<point x="276" y="375"/>
			<point x="334" y="351"/>
			<point x="353" y="324" type="curve"/>
			<point x="352" y="278"/>
			<point x="352" y="228"/>
			<point x="351" y="178" type="curve"/>
			<point x="334" y="107"/>
			<point x="269" y="85"/>
		</contour>
	</outline>
</glyph>
<glyph name="t_acute" format="2">
	<advance width="392"/>
	<unicode hex="E6E2"/>
	<note>
		t_macr
  </note>
	<outline>
		<contour>
			<point x="25" y="574" type="curve"/>
			<point x="44" y="564" type="line"/>
			<point x="77" y="602"/>
			<point x="158" y="604"/>
			<point x="219" y="599" type="curve"/>
			<point x="346" y="588" type="line"/>
			<point x="382" y="663" type="line"/>
			<point x="380" y="669" type="line"/>
			<point x="117" y="670" type="line"/>
			<point x="84" y="644"/>
			<point x="48" y="608"/>
		</contour>
		<contour>
			<point x="174" y="-10" type="curve"/>
			<point x="174" y="-10" type="line"/>
			<point x="214" y="-10"/>
			<point x="290" y="50"/>
			<point x="322" y="69" type="curve"/>
			<point x="313" y="106" type="line"/>
			<point x="286" y="91"/>
			<point x="259" y="81"/>
			<point x="239" y="81" type="curve"/>
			<point x="191" y="81"/>
			<point x="168" y="135"/>
			<point x="163" y="168" type="curve"/>
			<point x="154" y="228"/>
			<point x="154" y="317"/>
			<point x="157" y="371" type="curve"/>
			<point x="219" y="371"/>
			<point x="272" y="370"/>
			<point x="316" y="365" type="curve"/>
			<point x="345" y="460" type="line"/>
			<point x="275" y="454"/>
			<point x="223" y="453"/>
			<point x="152" y="455" type="curve"/>
			<point x="152" y="469"/>
			<point x="148" y="488"/>
			<point x="153" y="530" type="curve"/>
			<point x="119" y="533" type="line"/>
			<point x="90" y="463"/>
			<point x="77" y="470"/>
			<point x="31" y="420" type="curve"/>
			<point x="31" y="389" type="line"/>
			<point x="47" y="379"/>
			<point x="57" y="369"/>
			<point x="57" y="355" type="curve"/>
			<point x="57" y="255"/>
			<point x="61" y="189"/>
			<point x="72" y="97" type="curve"/>
			<point x="78" y="47"/>
			<point x="114" y="-10"/>
		</contour>
	</outline>
</glyph>
<glyph name="c_t" format="2">
	<advance width="549"/>
	<unicode hex="EEC5"/>
	<note>
		c_t
	</note>
	<outline>
		<contour>
			<point x="155" y="-10" type="curve"/>
			<point x="182" y="8"/>
			<point x="221" y="39"/>
			<point x="269" y="69" type="curve"/>
			<point x="283" y="38"/>
			<point x="337" y="-10"/>
			<point x="363" y="-10" type="curve" smooth="yes"/>
			<point x="383" y="-10"/>
			<point x="490" y="42"/>
			<point x="539" y="72" type="curve"/>
			<point x="537" y="101" type="line"/>
			<point x="419" y="84"/>
			<point x="373" y="102"/>
			<point x="366" y="164" type="curve" smooth="yes"/>
			<point x="360" y="218"/>
			<point x="360" y="296"/>
			<point x="362" y="371" type="curve"/>
			<point x="506" y="371" type="line"/>
			<point x="515" y="455" type="line"/>
			<point x="365" y="455" type="line"/>
			<point x="368" y="517"/>
			<point x="371" y="568"/>
			<point x="371" y="590" type="curve" smooth="yes"/>
			<point x="371" y="670"/>
			<point x="309" y="715"/>
			<point x="259" y="715" type="curve" smooth="yes"/>
			<point x="218" y="715"/>
			<point x="124" y="693"/>
			<point x="48" y="672" type="curve"/>
			<point x="52" y="642" type="line"/>
			<point x="203" y="665"/>
			<point x="278" y="650"/>
			<point x="278" y="585" type="curve" smooth="yes"/>
			<point x="278" y="547"/>
			<point x="275" y="483"/>
			<point x="272" y="415" type="curve"/>
			<point x="224" y="436"/>
			<point x="195" y="448"/>
			<point x="150" y="465" type="curve"/>
			<point x="37" y="361" type="line"/>
			<point x="25" y="303"/>
			<point x="25" y="231"/>
			<point x="25" y="161" type="curve" smooth="yes"/>
			<point x="25" y="69"/>
			<point x="73" y="18"/>
		</contour>
		<contour>
			<point x="266" y="105" type="line"/>
			<point x="162" y="65"/>
			<point x="112" y="105"/>
			<point x="112" y="221" type="curve" smooth="yes"/>
			<point x="112" y="283"/>
			<point x="116" y="335"/>
			<point x="129" y="372" type="curve"/>
			<point x="157" y="367"/>
			<point x="186" y="351"/>
			<point x="216" y="334" type="curve"/>
			<point x="271" y="401" type="line"/>
			<point x="268" y="343"/>
			<point x="266" y="284"/>
			<point x="266" y="235" type="curve" smooth="yes"/>
		</contour>
	</outline>
</glyph>
<glyph name="p_p" format="2">
	<advance width="806"/>
	<unicode hex="EED6"/>
	<note>
		p_p
  </note>
	<outline>
		<contour>
			<point x="341" y="-250" type="curve"/>
			<point x="341" y="-250" type="line"/>
			<point x="459" y="-243" type="line"/>
			<point x="458" y="-182"/>
			<point x="455" y="-94"/>
			<point x="454" y="0" type="curve"/>
			<point x="499" y="-3"/>
			<point x="544" y="-6"/>
			<point x="589" y="-10" type="curve"/>
			<point x="637" y="30"/>
			<point x="781" y="133"/>
			<point x="781" y="243" type="curve"/>
			<point x="781" y="354"/>
			<point x="720" y="433"/>
			<point x="584" y="465" type="curve"/>
			<point x="459" y="365" type="line"/>
			<point x="459" y="366" type="line"/>
			<point x="446" y="386"/>
			<point x="428" y="454"/>
			<point x="418" y="472" type="curve"/>
			<point x="396" y="474" type="line"/>
			<point x="199" y="365" type="line"/>
			<point x="186" y="385"/>
			<point x="156" y="462"/>
			<point x="128" y="480" type="curve"/>
			<point x="44" y="407" type="line"/>
			<point x="44" y="367" type="line"/>
			<point x="76" y="384"/>
			<point x="91" y="371"/>
			<point x="91" y="341" type="curve"/>
			<point x="91" y="255"/>
			<point x="91" y="170"/>
			<point x="90" y="84" type="curve"/>
			<point x="87" y="84" type="line"/>
			<point x="15" y="29" type="line"/>
			<point x="17" y="14" type="line"/>
			<point x="41" y="14"/>
			<point x="65" y="15"/>
			<point x="89" y="14" type="curve"/>
			<point x="87" y="-71"/>
			<point x="85" y="-157"/>
			<point x="81" y="-242" type="curve"/>
			<point x="199" y="-235" type="line"/>
			<point x="198" y="-173"/>
			<point x="195" y="-83"/>
			<point x="194" y="13" type="curve"/>
			<point x="245" y="11"/>
			<point x="297" y="9"/>
			<point x="349" y="6" type="curve"/>
			<point x="347" y="-79"/>
			<point x="345" y="-165"/>
		</contour>
		<contour>
			<point x="555" y="73" type="curve"/>
			<point x="555" y="73" type="line"/>
			<point x="523" y="73"/>
			<point x="488" y="73"/>
			<point x="453" y="74" type="curve"/>
			<point x="452" y="162"/>
			<point x="452" y="250"/>
			<point x="456" y="319" type="curve"/>
			<point x="482" y="340"/>
			<point x="510" y="358"/>
			<point x="564" y="358" type="curve"/>
			<point x="636" y="358"/>
			<point x="698" y="291"/>
			<point x="698" y="210" type="curve"/>
			<point x="698" y="133"/>
			<point x="640" y="74"/>
		</contour>
		<contour>
			<point x="350" y="77" type="curve"/>
			<point x="350" y="77" type="line"/>
			<point x="299" y="79"/>
			<point x="246" y="81"/>
			<point x="193" y="82" type="curve"/>
			<point x="192" y="166"/>
			<point x="192" y="259"/>
			<point x="195" y="325" type="curve"/>
			<point x="246" y="356"/>
			<point x="322" y="350"/>
			<point x="351" y="333" type="curve"/>
			<point x="351" y="248"/>
			<point x="351" y="162"/>
		</contour>
	</outline>
</glyph>
<glyph name="f_f" format="2">
	<advance width="540"/>
	<unicode hex="FB00"/>
	<note>
		f_f
  </note>
	<outline>
		<contour>
			<point x="399" y="700" type="curve"/>
			<point x="399" y="700" type="line"/>
			<point x="386" y="693"/>
			<point x="374" y="685"/>
			<point x="361" y="677" type="curve"/>
			<point x="184" y="700" type="line"/>
			<point x="139" y="676"/>
			<point x="93" y="647"/>
			<point x="53" y="606" type="curve"/>
			<point x="53" y="368" type="line" smooth="yes"/>
			<point x="53" y="285"/>
			<point x="58" y="92"/>
			<point x="50" y="0" type="curve"/>
			<point x="158" y="0" type="line"/>
			<point x="150" y="92"/>
			<point x="153" y="287"/>
			<point x="153" y="365" type="curve"/>
			<point x="268" y="365" type="line"/>
			<point x="268" y="280"/>
			<point x="273" y="91"/>
			<point x="265" y="0" type="curve"/>
			<point x="373" y="0" type="line"/>
			<point x="365" y="92"/>
			<point x="368" y="277"/>
			<point x="368" y="355" type="curve"/>
			<point x="493" y="355" type="line"/>
			<point x="494" y="445" type="line"/>
			<point x="367" y="445" type="line"/>
			<point x="367" y="618" type="line"/>
			<point x="415" y="618"/>
			<point x="464" y="613"/>
			<point x="514" y="605" type="curve"/>
			<point x="580" y="679" type="line"/>
			<point x="580" y="695" type="line"/>
			<point x="520" y="696"/>
			<point x="459" y="697"/>
		</contour>
		<contour>
			<point x="268" y="455" type="line"/>
			<point x="152" y="455" type="line"/>
			<point x="152" y="618" type="line"/>
			<point x="268" y="594" type="line"/>
		</contour>
	</outline>
</glyph>
<glyph name="f_i" format="2">
	<advance width="478"/>
	<unicode hex="FB01"/>
	<note>
		fi
	</note>
	<outline>
		<contour>
			<point x="346" y="-10" type="curve" smooth="yes"/>
			<point x="348" y="-10" type="line"/>
			<point x="433" y="50" type="line"/>
			<point x="431" y="77" type="line"/>
			<point x="409" y="77"/>
			<point x="393" y="101"/>
			<point x="391" y="115" type="curve" smooth="yes"/>
			<point x="387" y="142"/>
			<point x="392" y="342"/>
			<point x="395" y="464" type="curve"/>
			<point x="394" y="465" type="line"/>
			<point x="360" y="459"/>
			<point x="324" y="456"/>
			<point x="285" y="455" type="curve" smooth="yes"/>
			<point x="152" y="455" type="line"/>
			<point x="152" y="627" type="line"/>
			<point x="201" y="626"/>
			<point x="250" y="618"/>
			<point x="299" y="605" type="curve"/>
			<point x="365" y="673" type="line"/>
			<point x="365" y="695" type="line"/>
			<point x="204" y="707" type="line"/>
			<point x="159" y="683"/>
			<point x="93" y="647"/>
			<point x="53" y="606" type="curve"/>
			<point x="53" y="368" type="line" smooth="yes"/>
			<point x="53" y="285"/>
			<point x="58" y="92"/>
			<point x="50" y="0" type="curve"/>
			<point x="158" y="0" type="line"/>
			<point x="150" y="92"/>
			<point x="153" y="304"/>
			<point x="153" y="382" type="curve"/>
			<point x="218" y="382"/>
			<point x="276" y="379"/>
			<point x="295" y="352" type="curve"/>
			<point x="290" y="57" type="line"/>
			<point x="289" y="47"/>
			<point x="336" y="-10"/>
		</contour>
		<contour>
			<point x="368" y="570" type="line"/>
			<point x="394" y="571" type="line"/>
			<point x="453" y="675" type="line"/>
			<point x="453" y="680" type="line"/>
			<point x="427" y="700" type="line"/>
			<point x="420" y="700" type="line"/>
		</contour>
	</outline>
</glyph>
<glyph name="a_hook" format="2">
	<advance width="437"/>
	<anchor x="382" y="10" name="ogonek"/>
	<anchor x="212" y="0" name="bottom"/>
	<anchor x="212" y="455" name="top"/>
	<note>
		a_apomod
	</note>
	<outline>
		<contour>
			<point x="185" y="478" type="line"/>
			<point x="260" y="506"/>
			<point x="320" y="567"/>
			<point x="312" y="624" type="curve" smooth="yes"/>
			<point x="305" y="670"/>
			<point x="253" y="702"/>
			<point x="206" y="696" type="curve"/>
			<point x="150" y="607" type="line"/>
			<point x="153" y="603" type="line"/>
			<point x="190" y="603"/>
			<point x="222" y="590"/>
			<point x="225" y="567" type="curve" smooth="yes"/>
			<point x="229" y="539"/>
			<point x="199" y="513"/>
			<point x="174" y="501" type="curve"/>
		</contour>
		<contour>
			<point x="122" y="-10" type="curve"/>
			<point x="177" y="26"/>
			<point x="231" y="74"/>
			<point x="270" y="93" type="curve"/>
			<point x="271" y="48"/>
			<point x="281" y="14"/>
			<point x="310" y="-10" type="curve"/>
			<point x="412" y="49" type="line"/>
			<point x="411" y="90" type="line"/>
			<point x="388" y="73"/>
			<point x="375" y="86"/>
			<point x="374" y="135" type="curve" smooth="yes"/>
			<point x="373" y="208"/>
			<point x="370" y="317"/>
			<point x="373" y="400" type="curve"/>
			<point x="352" y="429"/>
			<point x="301" y="455"/>
			<point x="271" y="465" type="curve"/>
			<point x="192" y="432"/>
			<point x="114" y="385"/>
			<point x="36" y="338" type="curve"/>
			<point x="54" y="312" type="line"/>
			<point x="56" y="311" type="line"/>
			<point x="97" y="336"/>
			<point x="165" y="378"/>
			<point x="204" y="378" type="curve" smooth="yes"/>
			<point x="238" y="378"/>
			<point x="266" y="354"/>
			<point x="269" y="318" type="curve"/>
			<point x="218" y="279"/>
			<point x="98" y="202"/>
			<point x="15" y="142" type="curve"/>
			<point x="52" y="91"/>
			<point x="97" y="37"/>
		</contour>
		<contour>
			<point x="187" y="82" type="curve"/>
			<point x="122" y="167" type="line"/>
			<point x="269" y="277" type="line"/>
			<point x="270" y="151" type="line"/>
			<point x="250" y="119"/>
			<point x="215" y="99"/>
		</contour>
	</outline>
</glyph>
<glyph name="a_n" format="2">
	<advance width="894"/>
	<note>
		a_n
	</note>
	<outline>
		<contour>
			<point x="736" y="-13" type="line"/>
			<point x="864" y="25" type="line"/>
			<point x="864" y="60" type="line"/>
			<point x="845" y="60"/>
			<point x="840" y="84"/>
			<point x="839" y="114" type="curve" smooth="yes"/>
			<point x="836" y="208"/>
			<point x="835" y="284"/>
			<point x="846" y="370" type="curve" smooth="yes"/>
			<point x="849" y="390"/>
			<point x="760" y="455"/>
			<point x="740" y="455" type="curve"/>
			<point x="622" y="379" type="line"/>
			<point x="607" y="405"/>
			<point x="521" y="465"/>
			<point x="503" y="465" type="curve"/>
			<point x="350" y="357" type="line"/>
			<point x="350" y="416"/>
			<point x="255" y="465"/>
			<point x="226" y="465" type="curve" smooth="yes"/>
			<point x="181" y="465"/>
			<point x="104" y="413"/>
			<point x="39" y="377" type="curve"/>
			<point x="49" y="350" type="line"/>
			<point x="51" y="349" type="line"/>
			<point x="92" y="368"/>
			<point x="132" y="381"/>
			<point x="171" y="381" type="curve" smooth="yes"/>
			<point x="213" y="381"/>
			<point x="254" y="351"/>
			<point x="252" y="290" type="curve" smooth="yes"/>
			<point x="252" y="296" type="line"/>
			<point x="15" y="168" type="line"/>
			<point x="37" y="111"/>
			<point x="65" y="44"/>
			<point x="115" y="-10" type="curve"/>
			<point x="162" y="21"/>
			<point x="224" y="87"/>
			<point x="252" y="100" type="curve"/>
			<point x="270" y="77"/>
			<point x="302" y="12"/>
			<point x="318" y="-10" type="curve"/>
			<point x="379" y="28"/>
			<point x="450" y="80"/>
			<point x="502" y="107" type="curve"/>
			<point x="500" y="70"/>
			<point x="499" y="34"/>
			<point x="498" y="0" type="curve"/>
			<point x="612" y="0" type="line"/>
			<point x="610" y="107"/>
			<point x="609" y="243"/>
			<point x="618" y="334" type="curve"/>
			<point x="640" y="350"/>
			<point x="667" y="360"/>
			<point x="686" y="360" type="curve" smooth="yes"/>
			<point x="704" y="360"/>
			<point x="733" y="345"/>
			<point x="733" y="322" type="curve" smooth="yes"/>
			<point x="733" y="259"/>
			<point x="734" y="102"/>
			<point x="730" y="-10" type="curve"/>
		</contour>
		<contour>
			<point x="394" y="94" type="curve" smooth="yes"/>
			<point x="372" y="91"/>
			<point x="358" y="109"/>
			<point x="356" y="120" type="curve" smooth="yes"/>
			<point x="350" y="151"/>
			<point x="346" y="245"/>
			<point x="348" y="319" type="curve"/>
			<point x="387" y="343"/>
			<point x="429" y="361"/>
			<point x="463" y="361" type="curve" smooth="yes"/>
			<point x="488" y="361"/>
			<point x="506" y="348"/>
			<point x="506" y="318" type="curve" smooth="yes"/>
			<point x="506" y="258"/>
			<point x="505" y="199"/>
			<point x="503" y="142" type="curve"/>
			<point x="466" y="116"/>
			<point x="416" y="97"/>
		</contour>
		<contour>
			<point x="170" y="79" type="curve"/>
			<point x="143" y="102"/>
			<point x="129" y="148"/>
			<point x="117" y="183" type="curve"/>
			<point x="252" y="265" type="line"/>
			<point x="252" y="227"/>
			<point x="254" y="189"/>
			<point x="251" y="151" type="curve"/>
			<point x="231" y="118"/>
			<point x="191" y="88"/>
		</contour>
	</outline>
</glyph>
<glyph name="a_r" format="2">
	<advance width="766"/>
	<outline>
		<contour>
			<point x="111" y="-10" type="curve"/>
			<point x="168" y="25"/>
			<point x="234" y="72"/>
			<point x="274" y="89" type="curve"/>
			<point x="284" y="69"/>
			<point x="315" y="28"/>
			<point x="340" y="-10" type="curve"/>
			<point x="504" y="67" type="line"/>
			<point x="504" y="-6" type="line"/>
			<point x="617" y="0" type="line"/>
			<point x="606" y="109"/>
			<point x="604" y="218"/>
			<point x="604" y="327" type="curve"/>
			<point x="641" y="351"/>
			<point x="674" y="330"/>
			<point x="698" y="286" type="curve"/>
			<point x="703" y="286" type="line"/>
			<point x="761" y="363" type="line"/>
			<point x="763" y="425"/>
			<point x="725" y="456"/>
			<point x="668" y="465" type="curve"/>
			<point x="663" y="465" type="line"/>
			<point x="599" y="366" type="line"/>
			<point x="584" y="418"/>
			<point x="559" y="439"/>
			<point x="495" y="465" type="curve"/>
			<point x="454" y="431"/>
			<point x="413" y="400"/>
			<point x="372" y="372" type="curve"/>
			<point x="351" y="420"/>
			<point x="301" y="455"/>
			<point x="271" y="465" type="curve"/>
			<point x="192" y="432"/>
			<point x="114" y="385"/>
			<point x="36" y="338" type="curve"/>
			<point x="54" y="312" type="line"/>
			<point x="56" y="311" type="line"/>
			<point x="97" y="336"/>
			<point x="165" y="378"/>
			<point x="204" y="378" type="curve" smooth="yes"/>
			<point x="252" y="378"/>
			<point x="267" y="346"/>
			<point x="269" y="309" type="curve"/>
			<point x="218" y="270"/>
			<point x="98" y="202"/>
			<point x="15" y="142" type="curve"/>
			<point x="52" y="91"/>
			<point x="90" y="32"/>
		</contour>
		<contour>
			<point x="504" y="96" type="line"/>
			<point x="431" y="80"/>
			<point x="374" y="91"/>
			<point x="374" y="153" type="curve" smooth="yes"/>
			<point x="373" y="337" type="line"/>
			<point x="398" y="355"/>
			<point x="413" y="358"/>
			<point x="433" y="358" type="curve" smooth="yes"/>
			<point x="477" y="358"/>
			<point x="504" y="334"/>
			<point x="504" y="269" type="curve" smooth="yes"/>
		</contour>
		<contour>
			<point x="187" y="83" type="curve"/>
			<point x="120" y="171" type="line"/>
			<point x="269" y="273" type="line"/>
			<point x="270" y="145" type="line"/>
			<point x="250" y="116"/>
			<point x="215" y="100"/>
		</contour>
	</outline>
</glyph>
<glyph name="apomod" format="2">
	<advance width="234"/>
	<note>
		apomod
  </note>
	<outline>
		<contour>
			<point x="40" y="513" type="curve"/>
			<point x="48" y="487" type="line"/>
			<point x="132" y="506"/>
			<point x="204" y="561"/>
			<point x="204" y="623" type="curve"/>
			<point x="204" y="673"/>
			<point x="154" y="715"/>
			<point x="103" y="715" type="curve"/>
			<point x="30" y="629" type="line"/>
			<point x="33" y="624" type="line"/>
			<point x="72" y="619"/>
			<point x="104" y="600"/>
			<point x="104" y="575" type="curve"/>
			<point x="104" y="545"/>
			<point x="68" y="522"/>
		</contour>
	</outline>
</glyph>
<glyph name="b_e" format="2">
	<advance width="724"/>
	<note>
		b_e
	</note>
	<outline>
		<contour>
			<point x="714" y="320" type="line"/>
			<point x="684" y="374"/>
			<point x="645" y="443"/>
			<point x="560" y="464" type="curve"/>
			<point x="525" y="438"/>
			<point x="471" y="403"/>
			<point x="428" y="374" type="curve"/>
			<point x="401" y="417"/>
			<point x="356" y="450"/>
			<point x="290" y="465" type="curve"/>
			<point x="238" y="428"/>
			<point x="189" y="385"/>
			<point x="142" y="356" type="curve"/>
			<point x="157" y="692" type="line"/>
			<point x="41" y="708" type="line"/>
			<point x="30" y="686" type="line"/>
			<point x="54" y="594"/>
			<point x="50" y="212"/>
			<point x="47" y="80" type="curve"/>
			<point x="81" y="43"/>
			<point x="166" y="-3"/>
			<point x="217" y="-13" type="curve"/>
			<point x="282" y="26"/>
			<point x="350" y="75"/>
			<point x="397" y="122" type="curve"/>
			<point x="421" y="32"/>
			<point x="479" y="-10"/>
			<point x="515" y="-10" type="curve" smooth="yes"/>
			<point x="550" y="-10"/>
			<point x="615" y="18"/>
			<point x="665" y="57" type="curve"/>
			<point x="655" y="87" type="line"/>
			<point x="572" y="51"/>
			<point x="514" y="81"/>
			<point x="489" y="149" type="curve"/>
			<point x="707" y="293" type="line"/>
		</contour>
		<contour>
			<point x="480" y="184" type="curve"/>
			<point x="477" y="199"/>
			<point x="476" y="215"/>
			<point x="476" y="232" type="curve" smooth="yes"/>
			<point x="476" y="267"/>
			<point x="479" y="326"/>
			<point x="491" y="378" type="curve"/>
			<point x="545" y="375"/>
			<point x="610" y="332"/>
			<point x="613" y="299" type="curve" smooth="yes"/>
			<point x="615" y="275"/>
			<point x="598" y="263"/>
		</contour>
		<contour>
			<point x="271" y="72" type="curve"/>
			<point x="221" y="75"/>
			<point x="163" y="97"/>
			<point x="139" y="123" type="curve"/>
			<point x="143" y="258" type="line"/>
			<point x="153" y="328"/>
			<point x="196" y="364"/>
			<point x="249" y="364" type="curve" smooth="yes"/>
			<point x="314" y="364"/>
			<point x="377" y="312"/>
			<point x="377" y="232" type="curve" smooth="yes"/>
			<point x="377" y="153"/>
			<point x="318" y="92"/>
		</contour>
	</outline>
</glyph>
<glyph name="b_o" format="2">
	<advance width="833"/>
	<note>
		b_o
  </note>
	<outline>
		<contour>
			<point x="583" y="465" type="curve"/>
			<point x="583" y="465" type="line"/>
			<point x="529" y="451"/>
			<point x="474" y="411"/>
			<point x="435" y="360" type="curve"/>
			<point x="410" y="410"/>
			<point x="363" y="449"/>
			<point x="290" y="465" type="curve"/>
			<point x="238" y="428"/>
			<point x="189" y="385"/>
			<point x="142" y="356" type="curve"/>
			<point x="157" y="692" type="line"/>
			<point x="41" y="708" type="line"/>
			<point x="30" y="686" type="line"/>
			<point x="54" y="594"/>
			<point x="50" y="212"/>
			<point x="47" y="80" type="curve"/>
			<point x="81" y="43"/>
			<point x="166" y="-3"/>
			<point x="217" y="-13" type="curve"/>
			<point x="283" y="28"/>
			<point x="354" y="78"/>
			<point x="401" y="126" type="curve"/>
			<point x="434" y="54"/>
			<point x="507" y="-2"/>
			<point x="622" y="-10" type="curve"/>
			<point x="711" y="68"/>
			<point x="808" y="108"/>
			<point x="808" y="258" type="curve"/>
			<point x="808" y="358"/>
			<point x="721" y="465"/>
		</contour>
		<contour>
			<point x="663" y="83" type="curve"/>
			<point x="663" y="83" type="line"/>
			<point x="552" y="82"/>
			<point x="463" y="161"/>
			<point x="463" y="271" type="curve"/>
			<point x="463" y="310"/>
			<point x="480" y="362"/>
			<point x="515" y="380" type="curve"/>
			<point x="629" y="393"/>
			<point x="728" y="307"/>
			<point x="728" y="217" type="curve"/>
			<point x="728" y="157"/>
			<point x="704" y="112"/>
		</contour>
		<contour>
			<point x="271" y="72" type="curve"/>
			<point x="271" y="72" type="line"/>
			<point x="221" y="75"/>
			<point x="163" y="97"/>
			<point x="139" y="123" type="curve"/>
			<point x="143" y="258" type="line"/>
			<point x="153" y="328"/>
			<point x="196" y="364"/>
			<point x="249" y="364" type="curve"/>
			<point x="314" y="364"/>
			<point x="377" y="312"/>
			<point x="377" y="232" type="curve"/>
			<point x="377" y="153"/>
			<point x="318" y="92"/>
		</contour>
	</outline>
</glyph>
<glyph name="b_r" format="2">
	<advance width="758"/>
	<note>
		b_r.alt
  </note>
	<outline>
		<contour>
			<point x="738" y="90" type="line"/>
			<point x="714" y="110" type="line"/>
			<point x="705" y="100"/>
			<point x="695" y="90"/>
			<point x="678" y="90" type="curve"/>
			<point x="648" y="90"/>
			<point x="608" y="108"/>
			<point x="579" y="132" type="curve"/>
			<point x="640" y="214"/>
			<point x="726" y="307"/>
			<point x="726" y="355" type="curve"/>
			<point x="726" y="425"/>
			<point x="659" y="465"/>
			<point x="579" y="465" type="curve"/>
			<point x="570" y="465" type="line"/>
			<point x="447" y="357" type="line"/>
			<point x="422" y="409"/>
			<point x="374" y="448"/>
			<point x="300" y="465" type="curve"/>
			<point x="248" y="428"/>
			<point x="199" y="385"/>
			<point x="152" y="356" type="curve"/>
			<point x="167" y="692" type="line"/>
			<point x="51" y="708" type="line"/>
			<point x="40" y="686" type="line"/>
			<point x="64" y="594"/>
			<point x="60" y="212"/>
			<point x="57" y="80" type="curve"/>
			<point x="91" y="43"/>
			<point x="176" y="-3"/>
			<point x="227" y="-13" type="curve"/>
			<point x="330" y="50"/>
			<point x="443" y="136"/>
			<point x="463" y="202" type="curve"/>
			<point x="471" y="244"/>
			<point x="470" y="284"/>
			<point x="460" y="321" type="curve"/>
			<point x="477" y="337"/>
			<point x="511" y="365"/>
			<point x="549" y="365" type="curve"/>
			<point x="578" y="365"/>
			<point x="616" y="345"/>
			<point x="616" y="305" type="curve"/>
			<point x="616" y="265"/>
			<point x="605" y="214"/>
			<point x="500" y="94" type="curve"/>
			<point x="499" y="88" type="line"/>
			<point x="549" y="45"/>
			<point x="575" y="16"/>
			<point x="640" y="-10" type="curve"/>
		</contour>
		<contour>
			<point x="281" y="72" type="curve"/>
			<point x="281" y="72" type="line"/>
			<point x="231" y="75"/>
			<point x="173" y="97"/>
			<point x="149" y="123" type="curve"/>
			<point x="153" y="258" type="line"/>
			<point x="163" y="328"/>
			<point x="206" y="364"/>
			<point x="259" y="364" type="curve"/>
			<point x="324" y="364"/>
			<point x="387" y="312"/>
			<point x="387" y="232" type="curve"/>
			<point x="387" y="153"/>
			<point x="328" y="92"/>
		</contour>
	</outline>
</glyph>
<glyph name="b_s" format="2">
	<advance width="778"/>
	<outline>
		<contour>
			<point x="549" y="465" type="curve"/>
			<point x="512" y="424"/>
			<point x="475" y="385"/>
			<point x="438" y="355" type="curve"/>
			<point x="413" y="408"/>
			<point x="365" y="448"/>
			<point x="290" y="465" type="curve"/>
			<point x="238" y="428"/>
			<point x="189" y="385"/>
			<point x="142" y="356" type="curve"/>
			<point x="157" y="692" type="line"/>
			<point x="41" y="708" type="line"/>
			<point x="30" y="686" type="line"/>
			<point x="54" y="594"/>
			<point x="50" y="212"/>
			<point x="47" y="80" type="curve"/>
			<point x="81" y="43"/>
			<point x="166" y="-3"/>
			<point x="217" y="-13" type="curve"/>
			<point x="320" y="50"/>
			<point x="433" y="136"/>
			<point x="453" y="202" type="curve"/>
			<point x="461" y="245"/>
			<point x="460" y="287"/>
			<point x="449" y="324" type="curve"/>
			<point x="470" y="340"/>
			<point x="497" y="356"/>
			<point x="531" y="356" type="curve" smooth="yes"/>
			<point x="605" y="356"/>
			<point x="663" y="304"/>
			<point x="663" y="229" type="curve" smooth="yes"/>
			<point x="663" y="164"/>
			<point x="638" y="119"/>
			<point x="602" y="94" type="curve"/>
			<point x="562" y="104"/>
			<point x="521" y="128"/>
			<point x="481" y="148" type="curve"/>
			<point x="350" y="22" type="line"/>
			<point x="380" y="3" type="line"/>
			<point x="424" y="33" type="line"/>
			<point x="466" y="12"/>
			<point x="499" y="1"/>
			<point x="552" y="-10" type="curve"/>
			<point x="557" y="-10" type="line"/>
			<point x="635" y="76"/>
			<point x="753" y="155"/>
			<point x="753" y="255" type="curve" smooth="yes"/>
			<point x="753" y="370"/>
			<point x="682" y="445"/>
		</contour>
		<contour>
			<point x="271" y="72" type="curve"/>
			<point x="221" y="75"/>
			<point x="163" y="97"/>
			<point x="139" y="123" type="curve"/>
			<point x="143" y="258" type="line"/>
			<point x="153" y="328"/>
			<point x="196" y="364"/>
			<point x="249" y="364" type="curve" smooth="yes"/>
			<point x="314" y="364"/>
			<point x="377" y="312"/>
			<point x="377" y="232" type="curve" smooth="yes"/>
			<point x="377" y="153"/>
			<point x="318" y="92"/>
		</contour>
	</outline>
</glyph>
<glyph name="c_a" format="2">
	<advance width="699"/>
	<note>
		c_a
	</note>
	<outline>
		<contour>
			<point x="169" y="-10" type="curve"/>
			<point x="198" y="10"/>
			<point x="254" y="65"/>
			<point x="305" y="95" type="curve"/>
			<point x="336" y="55"/>
			<point x="368" y="21"/>
			<point x="381" y="-10" type="curve"/>
			<point x="436" y="21"/>
			<point x="493" y="68"/>
			<point x="533" y="86" type="curve"/>
			<point x="535" y="46"/>
			<point x="545" y="12"/>
			<point x="572" y="-10" type="curve"/>
			<point x="674" y="49" type="line"/>
			<point x="673" y="90" type="line"/>
			<point x="650" y="73"/>
			<point x="637" y="86"/>
			<point x="636" y="135" type="curve" smooth="yes"/>
			<point x="635" y="208"/>
			<point x="632" y="317"/>
			<point x="635" y="400" type="curve"/>
			<point x="614" y="429"/>
			<point x="563" y="455"/>
			<point x="533" y="465" type="curve"/>
			<point x="454" y="432"/>
			<point x="376" y="375"/>
			<point x="298" y="328" type="curve"/>
			<point x="316" y="302" type="line"/>
			<point x="318" y="301" type="line"/>
			<point x="359" y="326"/>
			<point x="416" y="369"/>
			<point x="455" y="369" type="curve" smooth="yes"/>
			<point x="491" y="369"/>
			<point x="531" y="341"/>
			<point x="531" y="311" type="curve" smooth="yes"/>
			<point x="531" y="309" type="line"/>
			<point x="482" y="270"/>
			<point x="373" y="177"/>
			<point x="291" y="125" type="curve" smooth="yes"/>
			<point x="186" y="56"/>
			<point x="116" y="113"/>
			<point x="116" y="199" type="curve" smooth="yes"/>
			<point x="116" y="266"/>
			<point x="114" y="332"/>
			<point x="119" y="374" type="curve"/>
			<point x="160" y="375"/>
			<point x="208" y="349"/>
			<point x="242" y="315" type="curve"/>
			<point x="247" y="315" type="line"/>
			<point x="312" y="388" type="line"/>
			<point x="311" y="393" type="line"/>
			<point x="261" y="416"/>
			<point x="225" y="438"/>
			<point x="177" y="465" type="curve"/>
			<point x="25" y="383" type="line"/>
			<point x="25" y="327"/>
			<point x="25" y="203"/>
			<point x="26" y="141" type="curve" smooth="yes"/>
			<point x="27" y="98"/>
			<point x="89" y="8"/>
		</contour>
		<contour>
			<point x="449" y="73" type="curve"/>
			<point x="385" y="157" type="line"/>
			<point x="531" y="272" type="line"/>
			<point x="532" y="136" type="line"/>
			<point x="512" y="107"/>
			<point x="485" y="90"/>
		</contour>
	</outline>
</glyph>
<glyph name="c_c" format="2">
	<advance width="565"/>
	<outline>
		<contour>
			<point x="199" y="-10" type="curve"/>
			<point x="199" y="-10" type="line"/>
			<point x="227" y="10"/>
			<point x="257" y="49"/>
			<point x="304" y="77" type="curve"/>
			<point x="327" y="36"/>
			<point x="370" y="8"/>
			<point x="423" y="-10" type="curve"/>
			<point x="453" y="10"/>
			<point x="498" y="54"/>
			<point x="555" y="88" type="curve"/>
			<point x="547" y="118" type="line"/>
			<point x="434" y="70"/>
			<point x="380" y="108"/>
			<point x="380" y="229" type="curve"/>
			<point x="380" y="291"/>
			<point x="384" y="335"/>
			<point x="397" y="372" type="curve"/>
			<point x="428" y="366"/>
			<point x="460" y="347"/>
			<point x="494" y="328" type="curve"/>
			<point x="499" y="328" type="line"/>
			<point x="545" y="408" type="line"/>
			<point x="544" y="413" type="line"/>
			<point x="494" y="435"/>
			<point x="464" y="447"/>
			<point x="418" y="465" type="curve"/>
			<point x="295" y="361" type="line"/>
			<point x="283" y="303"/>
			<point x="283" y="231"/>
			<point x="283" y="161" type="curve"/>
			<point x="283" y="140"/>
			<point x="286" y="121"/>
			<point x="292" y="105" type="curve"/>
			<point x="228" y="70"/>
			<point x="118" y="86"/>
			<point x="118" y="196" type="curve"/>
			<point x="118" y="269"/>
			<point x="121" y="323"/>
			<point x="138" y="375" type="curve"/>
			<point x="167" y="373"/>
			<point x="205" y="358"/>
			<point x="239" y="345" type="curve"/>
			<point x="244" y="345" type="line"/>
			<point x="302" y="408" type="line"/>
			<point x="301" y="413" type="line"/>
			<point x="251" y="430"/>
			<point x="205" y="445"/>
			<point x="157" y="465" type="curve"/>
			<point x="35" y="373" type="line"/>
			<point x="25" y="317"/>
			<point x="21" y="143"/>
			<point x="32" y="81" type="curve"/>
			<point x="49" y="42"/>
			<point x="119" y="8"/>
		</contour>
	</outline>
</glyph>
<glyph name="c_e" format="2">
	<advance width="603"/>
	<note>
		c_e
  </note>
	<outline>
		<contour>
			<point x="586" y="293" type="line"/>
			<point x="593" y="320" type="line"/>
			<point x="563" y="374"/>
			<point x="524" y="443"/>
			<point x="439" y="464" type="curve"/>
			<point x="410" y="442"/>
			<point x="369" y="415"/>
			<point x="331" y="390" type="curve"/>
			<point x="281" y="413"/>
			<point x="212" y="449"/>
			<point x="170" y="465" type="curve"/>
			<point x="29" y="361" type="line"/>
			<point x="27" y="303"/>
			<point x="25" y="231"/>
			<point x="25" y="161" type="curve"/>
			<point x="25" y="69"/>
			<point x="83" y="18"/>
			<point x="165" y="-10" type="curve"/>
			<point x="194" y="9"/>
			<point x="236" y="50"/>
			<point x="289" y="83" type="curve"/>
			<point x="317" y="20"/>
			<point x="363" y="-10"/>
			<point x="394" y="-10" type="curve"/>
			<point x="429" y="-10"/>
			<point x="494" y="18"/>
			<point x="544" y="57" type="curve"/>
			<point x="534" y="87" type="line"/>
			<point x="451" y="51"/>
			<point x="393" y="81"/>
			<point x="368" y="149" type="curve"/>
		</contour>
		<contour>
			<point x="359" y="184" type="curve"/>
			<point x="359" y="184" type="line"/>
			<point x="356" y="199"/>
			<point x="355" y="215"/>
			<point x="355" y="232" type="curve"/>
			<point x="355" y="267"/>
			<point x="358" y="326"/>
			<point x="370" y="378" type="curve"/>
			<point x="424" y="375"/>
			<point x="489" y="332"/>
			<point x="492" y="299" type="curve"/>
			<point x="494" y="275"/>
			<point x="477" y="263"/>
		</contour>
		<contour>
			<point x="122" y="229" type="curve"/>
			<point x="122" y="229" type="line"/>
			<point x="122" y="291"/>
			<point x="123" y="333"/>
			<point x="135" y="370" type="curve"/>
			<point x="164" y="364"/>
			<point x="234" y="341"/>
			<point x="270" y="305" type="curve"/>
			<point x="268" y="273"/>
			<point x="265" y="238"/>
			<point x="265" y="212" type="curve"/>
			<point x="265" y="174"/>
			<point x="270" y="141"/>
			<point x="278" y="114" type="curve"/>
			<point x="173" y="73"/>
			<point x="122" y="112"/>
		</contour>
	</outline>
</glyph>
<glyph name="c_h" format="2">
	<advance width="729"/>
	<note>
		c_h
  </note>
	<outline>
		<contour>
			<point x="417" y="-103" type="curve"/>
			<point x="404" y="-198" type="line"/>
			<point x="433" y="-198" type="line"/>
			<point x="494" y="-79"/>
			<point x="694" y="145"/>
			<point x="694" y="281" type="curve"/>
			<point x="694" y="381"/>
			<point x="639" y="431"/>
			<point x="519" y="465" type="curve"/>
			<point x="470" y="429"/>
			<point x="430" y="409"/>
			<point x="382" y="378" type="curve"/>
			<point x="382" y="490"/>
			<point x="385" y="588"/>
			<point x="397" y="700" type="curve"/>
			<point x="375" y="715" type="line"/>
			<point x="195" y="635" type="line"/>
			<point x="195" y="609" type="line"/>
			<point x="238" y="606"/>
			<point x="280" y="604"/>
			<point x="281" y="571" type="curve"/>
			<point x="283" y="529"/>
			<point x="282" y="476"/>
			<point x="282" y="419" type="curve"/>
			<point x="238" y="437"/>
			<point x="202" y="449"/>
			<point x="160" y="465" type="curve"/>
			<point x="37" y="361" type="line"/>
			<point x="25" y="303"/>
			<point x="25" y="231"/>
			<point x="25" y="191" type="curve"/>
			<point x="25" y="69"/>
			<point x="83" y="18"/>
			<point x="165" y="-10" type="curve"/>
			<point x="192" y="8"/>
			<point x="231" y="45"/>
			<point x="280" y="78" type="curve"/>
			<point x="280" y="53"/>
			<point x="279" y="27"/>
			<point x="279" y="0" type="curve"/>
			<point x="389" y="0" type="line"/>
			<point x="383" y="337" type="line"/>
			<point x="408" y="357"/>
			<point x="434" y="369"/>
			<point x="470" y="369" type="curve"/>
			<point x="538" y="369"/>
			<point x="607" y="310"/>
			<point x="607" y="220" type="curve"/>
			<point x="607" y="110"/>
			<point x="518" y="-18"/>
		</contour>
		<contour>
			<point x="281" y="115" type="curve"/>
			<point x="281" y="115" type="line"/>
			<point x="173" y="72"/>
			<point x="122" y="121"/>
			<point x="122" y="259" type="curve"/>
			<point x="122" y="301"/>
			<point x="126" y="335"/>
			<point x="139" y="372" type="curve"/>
			<point x="170" y="366"/>
			<point x="192" y="358"/>
			<point x="226" y="346" type="curve"/>
			<point x="231" y="346" type="line"/>
			<point x="282" y="394" type="line"/>
			<point x="282" y="376" type="line" smooth="yes"/>
			<point x="282" y="305"/>
			<point x="282" y="223"/>
		</contour>
	</outline>
</glyph>
<glyph name="c_hook" format="2">
	<advance width="326"/>
	<note>
		c_apomod
  </note>
	<outline>
		<contour>
			<point x="129" y="509" type="curve"/>
			<point x="140" y="489" type="line"/>
			<point x="208" y="520"/>
			<point x="258" y="579"/>
			<point x="247" y="631" type="curve"/>
			<point x="238" y="674"/>
			<point x="189" y="700"/>
			<point x="146" y="691" type="curve"/>
			<point x="100" y="605" type="line"/>
			<point x="103" y="602" type="line"/>
			<point x="137" y="604"/>
			<point x="167" y="594"/>
			<point x="172" y="573" type="curve"/>
			<point x="177" y="548"/>
			<point x="151" y="522"/>
		</contour>
		<contour>
			<point x="174" y="-10" type="curve"/>
			<point x="174" y="-10" type="line"/>
			<point x="204" y="-10"/>
			<point x="269" y="21"/>
			<point x="316" y="55" type="curve"/>
			<point x="308" y="85" type="line"/>
			<point x="175" y="37"/>
			<point x="121" y="112"/>
			<point x="121" y="223" type="curve"/>
			<point x="121" y="275"/>
			<point x="122" y="339"/>
			<point x="132" y="376" type="curve"/>
			<point x="162" y="360"/>
			<point x="210" y="336"/>
			<point x="244" y="312" type="curve"/>
			<point x="249" y="312" type="line"/>
			<point x="304" y="388" type="line"/>
			<point x="303" y="393" type="line"/>
			<point x="253" y="415"/>
			<point x="217" y="437"/>
			<point x="169" y="465" type="curve"/>
			<point x="25" y="374" type="line"/>
			<point x="30" y="334"/>
			<point x="26" y="291"/>
			<point x="26" y="181" type="curve"/>
			<point x="26" y="82"/>
			<point x="88" y="-10"/>
		</contour>
	</outline>
</glyph>
<glyph name="c_i" format="2">
	<advance width="464"/>
	<note>
		c_i
  </note>
	<outline>
		<contour>
			<point x="284" y="538" type="line"/>
			<point x="300" y="522" type="line"/>
			<point x="409" y="630" type="line"/>
			<point x="356" y="650" type="line"/>
		</contour>
		<contour>
			<point x="199" y="-10" type="curve"/>
			<point x="199" y="-10" type="line"/>
			<point x="225" y="8"/>
			<point x="252" y="42"/>
			<point x="292" y="70" type="curve"/>
			<point x="302" y="48"/>
			<point x="343" y="-10"/>
			<point x="352" y="-10" type="curve"/>
			<point x="354" y="-10" type="line"/>
			<point x="439" y="40" type="line"/>
			<point x="439" y="70" type="line"/>
			<point x="417" y="70"/>
			<point x="399" y="91"/>
			<point x="397" y="105" type="curve"/>
			<point x="393" y="132"/>
			<point x="390" y="330"/>
			<point x="412" y="452" type="curve"/>
			<point x="391" y="465" type="line"/>
			<point x="291" y="419" type="line"/>
			<point x="291" y="387" type="line"/>
			<point x="245" y="405"/>
			<point x="202" y="438"/>
			<point x="157" y="465" type="curve"/>
			<point x="35" y="353" type="line"/>
			<point x="25" y="297"/>
			<point x="21" y="143"/>
			<point x="32" y="81" type="curve"/>
			<point x="49" y="42"/>
			<point x="119" y="8"/>
		</contour>
		<contour>
			<point x="291" y="361" type="line"/>
			<point x="290" y="104" type="line"/>
			<point x="227" y="71"/>
			<point x="122" y="88"/>
			<point x="118" y="178" type="curve"/>
			<point x="115" y="251"/>
			<point x="118" y="323"/>
			<point x="131" y="365" type="curve"/>
			<point x="159" y="353"/>
			<point x="196" y="339"/>
			<point x="230" y="316" type="curve"/>
			<point x="235" y="316" type="line"/>
		</contour>
	</outline>
</glyph>
<glyph name="c_k" format="2">
	<advance width="657"/>
	<note>
		c_k
	</note>
	<outline>
		<contour>
			<point x="593" y="208" type="curve" smooth="yes"/>
			<point x="590" y="236"/>
			<point x="558" y="260"/>
			<point x="533" y="288" type="curve"/>
			<point x="568" y="323"/>
			<point x="598" y="355"/>
			<point x="618" y="375" type="curve"/>
			<point x="585" y="398"/>
			<point x="507" y="451"/>
			<point x="482" y="466" type="curve"/>
			<point x="369" y="371" type="line"/>
			<point x="370" y="483"/>
			<point x="372" y="597"/>
			<point x="373" y="710" type="curve"/>
			<point x="240" y="690" type="line"/>
			<point x="240" y="664" type="line"/>
			<point x="267" y="656"/>
			<point x="273" y="650"/>
			<point x="273" y="590" type="curve" smooth="yes"/>
			<point x="273" y="540"/>
			<point x="273" y="483"/>
			<point x="274" y="422" type="curve"/>
			<point x="234" y="439"/>
			<point x="199" y="450"/>
			<point x="160" y="465" type="curve"/>
			<point x="37" y="361" type="line"/>
			<point x="25" y="303"/>
			<point x="25" y="231"/>
			<point x="25" y="191" type="curve" smooth="yes"/>
			<point x="25" y="69"/>
			<point x="83" y="18"/>
			<point x="165" y="-10" type="curve"/>
			<point x="191" y="7"/>
			<point x="227" y="41"/>
			<point x="272" y="72" type="curve"/>
			<point x="272" y="48"/>
			<point x="271" y="24"/>
			<point x="270" y="0" type="curve"/>
			<point x="376" y="0" type="line"/>
			<point x="374" y="44"/>
			<point x="372" y="89"/>
			<point x="371" y="134" type="curve"/>
			<point x="404" y="162"/>
			<point x="437" y="193"/>
			<point x="469" y="224" type="curve"/>
			<point x="519" y="168"/>
			<point x="509" y="109"/>
			<point x="506" y="0" type="curve"/>
			<point x="627" y="0" type="line"/>
			<point x="627" y="30" type="line"/>
			<point x="600" y="47"/>
			<point x="604" y="87"/>
		</contour>
		<contour>
			<point x="122" y="259" type="curve" smooth="yes"/>
			<point x="122" y="301"/>
			<point x="126" y="335"/>
			<point x="139" y="372" type="curve"/>
			<point x="170" y="366"/>
			<point x="192" y="358"/>
			<point x="226" y="346" type="curve"/>
			<point x="231" y="346" type="line"/>
			<point x="274" y="387" type="line"/>
			<point x="275" y="297"/>
			<point x="275" y="202"/>
			<point x="273" y="112" type="curve"/>
			<point x="171" y="75"/>
			<point x="122" y="125"/>
		</contour>
		<contour>
			<point x="370" y="177" type="curve"/>
			<point x="369" y="224"/>
			<point x="369" y="271"/>
			<point x="369" y="319" type="curve"/>
			<point x="390" y="353"/>
			<point x="412" y="372"/>
			<point x="433" y="382" type="curve"/>
			<point x="441" y="382"/>
			<point x="510" y="346"/>
			<point x="517" y="324" type="curve"/>
			<point x="476" y="265"/>
			<point x="414" y="212"/>
		</contour>
	</outline>
</glyph>
<glyph name="c_macr" format="2">
	<advance width="359"/>
	<note>
		c_macr
  </note>
	<outline>
		<contour>
			<point x="25" y="568" type="curve"/>
			<point x="46" y="559" type="line"/>
			<point x="78" y="590"/>
			<point x="150" y="587"/>
			<point x="215" y="587" type="curve"/>
			<point x="298" y="587" type="line"/>
			<point x="349" y="662" type="line"/>
			<point x="348" y="668" type="line"/>
			<point x="259" y="650"/>
			<point x="181" y="657"/>
			<point x="83" y="651" type="curve"/>
			<point x="59" y="622"/>
			<point x="47" y="593"/>
		</contour>
		<contour>
			<point x="188" y="-10" type="curve"/>
			<point x="188" y="-10" type="line"/>
			<point x="218" y="-10"/>
			<point x="283" y="21"/>
			<point x="330" y="55" type="curve"/>
			<point x="322" y="85" type="line"/>
			<point x="189" y="37"/>
			<point x="135" y="112"/>
			<point x="135" y="223" type="curve"/>
			<point x="135" y="275"/>
			<point x="136" y="339"/>
			<point x="146" y="376" type="curve"/>
			<point x="176" y="360"/>
			<point x="224" y="336"/>
			<point x="258" y="312" type="curve"/>
			<point x="263" y="312" type="line"/>
			<point x="318" y="388" type="line"/>
			<point x="317" y="393" type="line"/>
			<point x="267" y="415"/>
			<point x="231" y="437"/>
			<point x="183" y="465" type="curve"/>
			<point x="39" y="374" type="line"/>
			<point x="44" y="334"/>
			<point x="40" y="291"/>
			<point x="40" y="181" type="curve"/>
			<point x="40" y="82"/>
			<point x="102" y="-10"/>
		</contour>
	</outline>
</glyph>
<glyph name="c_o" format="2">
	<advance width="695"/>
	<note>
		c_o
	</note>
	<outline>
		<contour>
			<point x="165" y="-10" type="curve"/>
			<point x="194" y="9"/>
			<point x="236" y="50"/>
			<point x="289" y="83" type="curve"/>
			<point x="321" y="45"/>
			<point x="394" y="-3"/>
			<point x="484" y="-10" type="curve"/>
			<point x="542" y="10"/>
			<point x="670" y="108"/>
			<point x="670" y="258" type="curve" smooth="yes"/>
			<point x="670" y="358"/>
			<point x="583" y="465"/>
			<point x="455" y="465" type="curve"/>
			<point x="405" y="438"/>
			<point x="368" y="416"/>
			<point x="333" y="389" type="curve"/>
			<point x="283" y="412"/>
			<point x="212" y="448"/>
			<point x="170" y="465" type="curve"/>
			<point x="29" y="361" type="line"/>
			<point x="27" y="303"/>
			<point x="25" y="231"/>
			<point x="25" y="161" type="curve" smooth="yes"/>
			<point x="25" y="69"/>
			<point x="83" y="18"/>
		</contour>
		<contour>
			<point x="545" y="93" type="curve"/>
			<point x="426" y="92"/>
			<point x="345" y="161"/>
			<point x="345" y="261" type="curve" smooth="yes"/>
			<point x="345" y="310"/>
			<point x="362" y="354"/>
			<point x="391" y="370" type="curve"/>
			<point x="491" y="383"/>
			<point x="600" y="307"/>
			<point x="600" y="207" type="curve" smooth="yes"/>
			<point x="600" y="167"/>
			<point x="586" y="113"/>
		</contour>
		<contour>
			<point x="276" y="113" type="curve"/>
			<point x="172" y="73"/>
			<point x="122" y="113"/>
			<point x="122" y="229" type="curve" smooth="yes"/>
			<point x="122" y="291"/>
			<point x="123" y="333"/>
			<point x="135" y="370" type="curve"/>
			<point x="164" y="364"/>
			<point x="231" y="342"/>
			<point x="267" y="307" type="curve"/>
			<point x="256" y="242"/>
			<point x="259" y="177"/>
		</contour>
	</outline>
</glyph>
<glyph name="c_t_i" format="2">
	<advance width="697"/>
	<note>
		c_t_i
  </note>
	<outline>
		<contour>
			<point x="195" y="-10" type="curve"/>
			<point x="195" y="-10" type="line"/>
			<point x="220" y="8"/>
			<point x="275" y="48"/>
			<point x="322" y="77" type="curve"/>
			<point x="357" y="38"/>
			<point x="390" y="13"/>
			<point x="425" y="-10" type="curve"/>
			<point x="481" y="20"/>
			<point x="525" y="57"/>
			<point x="571" y="80" type="curve"/>
			<point x="571" y="0" type="line"/>
			<point x="593" y="-10" type="line"/>
			<point x="595" y="-10" type="line"/>
			<point x="672" y="60" type="line"/>
			<point x="672" y="474" type="line"/>
			<point x="671" y="475" type="line"/>
			<point x="653" y="480" type="line"/>
			<point x="616" y="455" type="line"/>
			<point x="420" y="455" type="line"/>
			<point x="422" y="483"/>
			<point x="423" y="505"/>
			<point x="423" y="520" type="curve"/>
			<point x="423" y="638"/>
			<point x="361" y="715"/>
			<point x="271" y="715" type="curve"/>
			<point x="160" y="715"/>
			<point x="101" y="668"/>
			<point x="25" y="618" type="curve"/>
			<point x="36" y="592" type="line"/>
			<point x="103" y="633"/>
			<point x="164" y="644"/>
			<point x="216" y="644" type="curve"/>
			<point x="292" y="644"/>
			<point x="330" y="599"/>
			<point x="330" y="525" type="curve"/>
			<point x="330" y="494"/>
			<point x="328" y="457"/>
			<point x="325" y="417" type="curve"/>
			<point x="278" y="431"/>
			<point x="227" y="449"/>
			<point x="183" y="465" type="curve"/>
			<point x="59" y="383" type="line"/>
			<point x="49" y="327"/>
			<point x="45" y="163"/>
			<point x="56" y="101" type="curve"/>
			<point x="73" y="62"/>
			<point x="115" y="8"/>
		</contour>
		<contour>
			<point x="318" y="243" type="curve"/>
			<point x="318" y="113" type="line"/>
			<point x="228" y="64"/>
			<point x="155" y="117"/>
			<point x="145" y="171" type="curve"/>
			<point x="133" y="237"/>
			<point x="137" y="323"/>
			<point x="153" y="365" type="curve"/>
			<point x="184" y="365"/>
			<point x="227" y="354"/>
			<point x="258" y="335" type="curve"/>
			<point x="263" y="335" type="line"/>
			<point x="324" y="394" type="line"/>
			<point x="321" y="348"/>
			<point x="318" y="297"/>
		</contour>
		<contour>
			<point x="572" y="371" type="line"/>
			<point x="571" y="116" type="line"/>
			<point x="480" y="71"/>
			<point x="424" y="107"/>
			<point x="418" y="164" type="curve"/>
			<point x="411" y="227"/>
			<point x="412" y="303"/>
			<point x="415" y="371" type="curve"/>
		</contour>
	</outline>
</glyph>
<glyph name="c_u_macr" format="2">
	<advance width="703"/>
	<note>
		c_umacr
  </note>
	<outline>
		<contour>
			<point x="318" y="508" type="curve"/>
			<point x="339" y="501" type="line"/>
			<point x="368" y="544"/>
			<point x="452" y="557"/>
			<point x="516" y="561" type="curve"/>
			<point x="649" y="569" type="line"/>
			<point x="675" y="648" type="line"/>
			<point x="673" y="654" type="line"/>
			<point x="400" y="617" type="line"/>
			<point x="369" y="586"/>
			<point x="337" y="545"/>
		</contour>
		<contour>
			<point x="179" y="-10" type="curve"/>
			<point x="179" y="-10" type="line"/>
			<point x="206" y="9"/>
			<point x="268" y="62"/>
			<point x="318" y="94" type="curve"/>
			<point x="348" y="70"/>
			<point x="393" y="16"/>
			<point x="421" y="-10" type="curve"/>
			<point x="547" y="84" type="line"/>
			<point x="546" y="53"/>
			<point x="546" y="32"/>
			<point x="546" y="32" type="curve"/>
			<point x="600" y="-10" type="line"/>
			<point x="683" y="50" type="line"/>
			<point x="678" y="83" type="line"/>
			<point x="644" y="83"/>
			<point x="644" y="99"/>
			<point x="642" y="158" type="curve"/>
			<point x="640" y="223"/>
			<point x="640" y="342"/>
			<point x="655" y="407" type="curve"/>
			<point x="634" y="424"/>
			<point x="608" y="451"/>
			<point x="588" y="465" type="curve"/>
			<point x="586" y="465" type="line"/>
			<point x="509" y="405" type="line"/>
			<point x="510" y="389" type="line"/>
			<point x="530" y="377"/>
			<point x="550" y="362"/>
			<point x="550" y="309" type="curve"/>
			<point x="550" y="266"/>
			<point x="549" y="189"/>
			<point x="548" y="127" type="curve"/>
			<point x="527" y="110"/>
			<point x="502" y="99"/>
			<point x="486" y="93" type="curve"/>
			<point x="435" y="119"/>
			<point x="406" y="146"/>
			<point x="406" y="215" type="curve"/>
			<point x="406" y="313"/>
			<point x="406" y="397"/>
			<point x="413" y="455" type="curve"/>
			<point x="393" y="465" type="line"/>
			<point x="296" y="438" type="line"/>
			<point x="298" y="431"/>
			<point x="300" y="422"/>
			<point x="302" y="412" type="curve"/>
			<point x="256" y="428"/>
			<point x="210" y="443"/>
			<point x="167" y="465" type="curve"/>
			<point x="35" y="383" type="line"/>
			<point x="25" y="327"/>
			<point x="21" y="163"/>
			<point x="32" y="101" type="curve"/>
			<point x="49" y="62"/>
			<point x="99" y="8"/>
		</contour>
		<contour>
			<point x="308" y="126" type="curve"/>
			<point x="308" y="126" type="line"/>
			<point x="215" y="72"/>
			<point x="139" y="124"/>
			<point x="129" y="179" type="curve"/>
			<point x="117" y="245"/>
			<point x="121" y="323"/>
			<point x="137" y="365" type="curve"/>
			<point x="168" y="365"/>
			<point x="211" y="354"/>
			<point x="242" y="335" type="curve"/>
			<point x="247" y="335" type="line"/>
			<point x="305" y="384" type="line"/>
			<point x="312" y="317"/>
			<point x="313" y="212"/>
		</contour>
	</outline>
</glyph>
<glyph name="ce_e_macr" format="2">
	<advance width="593"/>
	<outline>
		<contour>
			<point x="378" y="589" type="curve"/>
			<point x="378" y="589" type="line"/>
			<point x="481" y="588" type="line"/>
			<point x="533" y="665" type="line"/>
			<point x="531" y="671" type="line"/>
			<point x="266" y="653" type="line"/>
			<point x="233" y="624"/>
			<point x="190" y="575"/>
			<point x="169" y="539" type="curve"/>
			<point x="189" y="531" type="line"/>
			<point x="241" y="586"/>
			<point x="314" y="590"/>
		</contour>
		<contour>
			<point x="586" y="293" type="line"/>
			<point x="593" y="320" type="line"/>
			<point x="563" y="374"/>
			<point x="524" y="443"/>
			<point x="439" y="464" type="curve"/>
			<point x="410" y="442"/>
			<point x="369" y="415"/>
			<point x="331" y="390" type="curve"/>
			<point x="281" y="413"/>
			<point x="212" y="449"/>
			<point x="170" y="465" type="curve"/>
			<point x="29" y="361" type="line"/>
			<point x="27" y="303"/>
			<point x="25" y="231"/>
			<point x="25" y="161" type="curve"/>
			<point x="25" y="69"/>
			<point x="83" y="18"/>
			<point x="165" y="-10" type="curve"/>
			<point x="194" y="9"/>
			<point x="236" y="50"/>
			<point x="289" y="83" type="curve"/>
			<point x="317" y="20"/>
			<point x="363" y="-10"/>
			<point x="394" y="-10" type="curve"/>
			<point x="429" y="-10"/>
			<point x="494" y="18"/>
			<point x="544" y="57" type="curve"/>
			<point x="534" y="87" type="line"/>
			<point x="451" y="51"/>
			<point x="393" y="81"/>
			<point x="368" y="149" type="curve"/>
		</contour>
		<contour>
			<point x="359" y="184" type="curve"/>
			<point x="359" y="184" type="line"/>
			<point x="356" y="199"/>
			<point x="355" y="215"/>
			<point x="355" y="232" type="curve"/>
			<point x="355" y="267"/>
			<point x="358" y="326"/>
			<point x="370" y="378" type="curve"/>
			<point x="424" y="375"/>
			<point x="489" y="332"/>
			<point x="492" y="299" type="curve"/>
			<point x="494" y="275"/>
			<point x="477" y="263"/>
		</contour>
		<contour>
			<point x="122" y="229" type="curve"/>
			<point x="122" y="229" type="line"/>
			<point x="122" y="291"/>
			<point x="123" y="333"/>
			<point x="135" y="370" type="curve"/>
			<point x="164" y="364"/>
			<point x="234" y="341"/>
			<point x="270" y="305" type="curve"/>
			<point x="268" y="273"/>
			<point x="265" y="238"/>
			<point x="265" y="212" type="curve"/>
			<point x="265" y="174"/>
			<point x="270" y="141"/>
			<point x="278" y="114" type="curve"/>
			<point x="173" y="73"/>
			<point x="122" y="112"/>
		</contour>
	</outline>
</glyph>
<glyph name="d_e_macr" format="2">
	<advance width="754"/>
	<note>
		d_emacr
  </note>
	<outline>
		<contour>
			<point x="525" y="547" type="curve"/>
			<point x="525" y="547" type="line"/>
			<point x="569" y="546"/>
			<point x="604" y="545"/>
			<point x="648" y="541" type="curve"/>
			<point x="684" y="619" type="line"/>
			<point x="682" y="625" type="line"/>
			<point x="429" y="619" type="line"/>
			<point x="398" y="588"/>
			<point x="346" y="535"/>
			<point x="327" y="498" type="curve"/>
			<point x="348" y="491" type="line"/>
			<point x="397" y="534"/>
			<point x="461" y="548"/>
		</contour>
		<contour>
			<point x="737" y="293" type="line"/>
			<point x="744" y="320" type="line"/>
			<point x="714" y="374"/>
			<point x="675" y="443"/>
			<point x="590" y="464" type="curve"/>
			<point x="552" y="435"/>
			<point x="491" y="397"/>
			<point x="447" y="366" type="curve"/>
			<point x="409" y="422"/>
			<point x="340" y="449"/>
			<point x="259" y="461" type="curve"/>
			<point x="167" y="475"/>
			<point x="94" y="532"/>
			<point x="68" y="570" type="curve"/>
			<point x="50" y="571" type="line"/>
			<point x="5" y="479" type="line"/>
			<point x="51" y="446"/>
			<point x="114" y="408"/>
			<point x="161" y="383" type="curve"/>
			<point x="117" y="336"/>
			<point x="45" y="247"/>
			<point x="45" y="238" type="curve"/>
			<point x="45" y="88"/>
			<point x="157" y="-10"/>
			<point x="287" y="-10" type="curve"/>
			<point x="323" y="20"/>
			<point x="383" y="66"/>
			<point x="427" y="122" type="curve"/>
			<point x="451" y="32"/>
			<point x="509" y="-10"/>
			<point x="545" y="-10" type="curve"/>
			<point x="580" y="-10"/>
			<point x="645" y="18"/>
			<point x="695" y="57" type="curve"/>
			<point x="685" y="87" type="line"/>
			<point x="602" y="51"/>
			<point x="544" y="81"/>
			<point x="519" y="149" type="curve"/>
		</contour>
		<contour>
			<point x="510" y="184" type="curve"/>
			<point x="510" y="184" type="line"/>
			<point x="507" y="199"/>
			<point x="506" y="215"/>
			<point x="506" y="232" type="curve"/>
			<point x="506" y="267"/>
			<point x="509" y="326"/>
			<point x="521" y="378" type="curve"/>
			<point x="575" y="375"/>
			<point x="640" y="332"/>
			<point x="643" y="299" type="curve"/>
			<point x="645" y="275"/>
			<point x="628" y="263"/>
		</contour>
		<contour>
			<point x="295" y="90" type="curve"/>
			<point x="295" y="90" type="line"/>
			<point x="217" y="90"/>
			<point x="130" y="149"/>
			<point x="130" y="245" type="curve"/>
			<point x="130" y="297"/>
			<point x="166" y="341"/>
			<point x="204" y="370" type="curve"/>
			<point x="328" y="373"/>
			<point x="410" y="301"/>
			<point x="410" y="207" type="curve"/>
			<point x="410" y="142"/>
			<point x="354" y="90"/>
		</contour>
	</outline>
</glyph>
<glyph name="d_o" format="2">
	<advance width="871"/>
	<outline>
		<contour>
			<point x="621" y="465" type="curve"/>
			<point x="561" y="450"/>
			<point x="500" y="402"/>
			<point x="461" y="342" type="curve"/>
			<point x="427" y="415"/>
			<point x="351" y="447"/>
			<point x="259" y="461" type="curve" smooth="yes"/>
			<point x="167" y="475"/>
			<point x="94" y="532"/>
			<point x="68" y="570" type="curve"/>
			<point x="50" y="571" type="line"/>
			<point x="5" y="479" type="line"/>
			<point x="51" y="446"/>
			<point x="114" y="408"/>
			<point x="161" y="383" type="curve"/>
			<point x="117" y="336"/>
			<point x="45" y="247"/>
			<point x="45" y="238" type="curve" smooth="yes"/>
			<point x="45" y="88"/>
			<point x="157" y="-10"/>
			<point x="287" y="-10" type="curve"/>
			<point x="325" y="22"/>
			<point x="392" y="73"/>
			<point x="436" y="134" type="curve"/>
			<point x="466" y="58"/>
			<point x="541" y="-2"/>
			<point x="660" y="-10" type="curve"/>
			<point x="749" y="68"/>
			<point x="846" y="108"/>
			<point x="846" y="258" type="curve" smooth="yes"/>
			<point x="846" y="358"/>
			<point x="759" y="465"/>
		</contour>
		<contour>
			<point x="701" y="83" type="curve"/>
			<point x="590" y="82"/>
			<point x="501" y="161"/>
			<point x="501" y="271" type="curve" smooth="yes"/>
			<point x="501" y="310"/>
			<point x="518" y="362"/>
			<point x="553" y="380" type="curve"/>
			<point x="667" y="393"/>
			<point x="766" y="307"/>
			<point x="766" y="217" type="curve" smooth="yes"/>
			<point x="766" y="157"/>
			<point x="742" y="112"/>
		</contour>
		<contour>
			<point x="295" y="90" type="curve" smooth="yes"/>
			<point x="217" y="90"/>
			<point x="130" y="149"/>
			<point x="130" y="245" type="curve" smooth="yes"/>
			<point x="130" y="297"/>
			<point x="166" y="341"/>
			<point x="204" y="370" type="curve"/>
			<point x="328" y="373"/>
			<point x="410" y="301"/>
			<point x="410" y="207" type="curve" smooth="yes"/>
			<point x="410" y="142"/>
			<point x="354" y="90"/>
		</contour>
	</outline>
</glyph>
<glyph name="d_strok" format="2">
	<advance width="504"/>
	<note>
		d_apomod
  </note>
	<outline>
		<contour>
			<point x="264" y="549" type="curve"/>
			<point x="291" y="530" type="line"/>
			<point x="331" y="570"/>
			<point x="373" y="597"/>
			<point x="401" y="642" type="curve"/>
			<point x="391" y="681"/>
			<point x="329" y="709"/>
			<point x="276" y="708" type="curve"/>
			<point x="221" y="670" type="line"/>
			<point x="223" y="657" type="line"/>
			<point x="264" y="650"/>
			<point x="308" y="626"/>
			<point x="308" y="600" type="curve"/>
			<point x="308" y="588"/>
			<point x="280" y="556"/>
		</contour>
		<contour>
			<point x="287" y="-10" type="curve"/>
			<point x="287" y="-10" type="line"/>
			<point x="347" y="40"/>
			<point x="479" y="138"/>
			<point x="479" y="248" type="curve"/>
			<point x="479" y="390"/>
			<point x="383" y="442"/>
			<point x="259" y="461" type="curve"/>
			<point x="167" y="475"/>
			<point x="94" y="532"/>
			<point x="68" y="570" type="curve"/>
			<point x="50" y="571" type="line"/>
			<point x="5" y="479" type="line"/>
			<point x="51" y="446"/>
			<point x="114" y="408"/>
			<point x="161" y="383" type="curve"/>
			<point x="117" y="336"/>
			<point x="45" y="247"/>
			<point x="45" y="238" type="curve"/>
			<point x="45" y="88"/>
			<point x="157" y="-10"/>
		</contour>
		<contour>
			<point x="295" y="90" type="curve"/>
			<point x="295" y="90" type="line"/>
			<point x="217" y="90"/>
			<point x="130" y="149"/>
			<point x="130" y="245" type="curve"/>
			<point x="130" y="297"/>
			<point x="166" y="341"/>
			<point x="204" y="370" type="curve"/>
			<point x="328" y="373"/>
			<point x="410" y="301"/>
			<point x="410" y="207" type="curve"/>
			<point x="410" y="142"/>
			<point x="354" y="90"/>
		</contour>
	</outline>
</glyph>
<glyph name="e_etfin" format="2">
	<advance width="724"/>
	<note>
		e_z
	</note>
	<outline>
		<contour>
			<point x="372" y="-265" type="line"/>
			<point x="573" y="-146"/>
			<point x="648" y="-20"/>
			<point x="648" y="57" type="curve" smooth="yes"/>
			<point x="648" y="133"/>
			<point x="603" y="168"/>
			<point x="547" y="195" type="curve"/>
			<point x="654" y="316" type="line"/>
			<point x="654" y="332" type="line"/>
			<point x="588" y="378"/>
			<point x="552" y="417"/>
			<point x="496" y="465" type="curve"/>
			<point x="491" y="465" type="line"/>
			<point x="363" y="353" type="line"/>
			<point x="315" y="383"/>
			<point x="249" y="455"/>
			<point x="215" y="465" type="curve"/>
			<point x="41" y="365" type="line"/>
			<point x="35" y="298"/>
			<point x="30" y="225"/>
			<point x="30" y="175" type="curve" smooth="yes"/>
			<point x="30" y="62"/>
			<point x="66" y="-10"/>
			<point x="181" y="-10" type="curve" smooth="yes"/>
			<point x="212" y="-10"/>
			<point x="302" y="39"/>
			<point x="417" y="99" type="curve"/>
			<point x="515" y="129"/>
			<point x="538" y="74"/>
			<point x="538" y="15" type="curve" smooth="yes"/>
			<point x="538" y="-65"/>
			<point x="489" y="-154"/>
			<point x="347" y="-240" type="curve"/>
		</contour>
		<contour>
			<point x="132" y="164" type="curve"/>
			<point x="122" y="222"/>
			<point x="125" y="299"/>
			<point x="131" y="372" type="curve"/>
			<point x="141" y="378" type="line"/>
			<point x="180" y="370"/>
			<point x="244" y="310"/>
			<point x="260" y="276" type="curve"/>
			<point x="217" y="231"/>
			<point x="174" y="197"/>
		</contour>
		<contour>
			<point x="216" y="60" type="curve" smooth="yes"/>
			<point x="174" y="60"/>
			<point x="150" y="89"/>
			<point x="138" y="135" type="curve"/>
			<point x="430" y="367" type="line"/>
			<point x="470" y="333"/>
			<point x="508" y="309"/>
			<point x="566" y="268" type="curve"/>
			<point x="549" y="246"/>
			<point x="525" y="207"/>
			<point x="502" y="192" type="curve" smooth="yes"/>
			<point x="439" y="150"/>
			<point x="308" y="60"/>
		</contour>
	</outline>
</glyph>
<glyph name="e_hook" format="2">
	<advance width="368"/>
	<note>
		e_apomod
  </note>
	<outline>
		<contour>
			<point x="158" y="520" type="curve"/>
			<point x="178" y="507" type="line"/>
			<point x="212" y="533"/>
			<point x="241" y="552"/>
			<point x="276" y="594" type="curve"/>
			<point x="276" y="654"/>
			<point x="222" y="704"/>
			<point x="163" y="704" type="curve"/>
			<point x="100" y="626" type="line"/>
			<point x="103" y="614" type="line"/>
			<point x="166" y="606"/>
			<point x="195" y="570"/>
		</contour>
		<contour>
			<point x="159" y="-10" type="curve"/>
			<point x="159" y="-10" type="line"/>
			<point x="194" y="-10"/>
			<point x="259" y="18"/>
			<point x="309" y="57" type="curve"/>
			<point x="299" y="87" type="line"/>
			<point x="216" y="51"/>
			<point x="158" y="81"/>
			<point x="133" y="149" type="curve"/>
			<point x="351" y="293" type="line"/>
			<point x="358" y="320" type="line"/>
			<point x="328" y="374"/>
			<point x="289" y="443"/>
			<point x="204" y="464" type="curve"/>
			<point x="159" y="430"/>
			<point x="82" y="382"/>
			<point x="38" y="350" type="curve"/>
			<point x="36" y="312"/>
			<point x="30" y="252"/>
			<point x="30" y="212" type="curve"/>
			<point x="30" y="59"/>
			<point x="112" y="-10"/>
		</contour>
		<contour>
			<point x="124" y="184" type="curve"/>
			<point x="124" y="184" type="line"/>
			<point x="121" y="199"/>
			<point x="120" y="215"/>
			<point x="120" y="232" type="curve"/>
			<point x="120" y="267"/>
			<point x="123" y="326"/>
			<point x="135" y="378" type="curve"/>
			<point x="189" y="375"/>
			<point x="254" y="332"/>
			<point x="257" y="299" type="curve"/>
			<point x="259" y="275"/>
			<point x="242" y="263"/>
		</contour>
	</outline>
</glyph>
<glyph name="etfin" format="2">
	<advance width="389"/>
	<outline>
		<contour>
			<point x="72" y="-265" type="line"/>
			<point x="239" y="-137"/>
			<point x="358" y="-73"/>
			<point x="358" y="27" type="curve" smooth="yes"/>
			<point x="358" y="132"/>
			<point x="278" y="173"/>
			<point x="192" y="183" type="curve"/>
			<point x="374" y="310" type="line"/>
			<point x="374" y="336" type="line"/>
			<point x="288" y="382"/>
			<point x="223" y="415"/>
			<point x="155" y="465" type="curve"/>
			<point x="150" y="465" type="line"/>
			<point x="18" y="366" type="line"/>
			<point x="37" y="338" type="line"/>
			<point x="73" y="360"/>
			<point x="100" y="363"/>
			<point x="137" y="341" type="curve" smooth="yes"/>
			<point x="251" y="275" type="line"/>
			<point x="175" y="211"/>
			<point x="100" y="159"/>
			<point x="30" y="125" type="curve"/>
			<point x="60" y="92" type="line"/>
			<point x="93" y="115" type="line"/>
			<point x="151" y="117"/>
			<point x="261" y="76"/>
			<point x="261" y="-8" type="curve" smooth="yes"/>
			<point x="261" y="-79"/>
			<point x="209" y="-137"/>
			<point x="5" y="-226" type="curve"/>
		</contour>
	</outline>
</glyph>
<glyph name="f_a" format="2">
	<advance width="589"/>
	<note>
		f_a
  </note>
	<outline>
		<contour>
			<point x="301" y="-10" type="curve"/>
			<point x="301" y="-10" type="line"/>
			<point x="432" y="110" type="line"/>
			<point x="432" y="67" type="line" smooth="yes"/>
			<point x="432" y="27"/>
			<point x="462" y="-10"/>
			<point x="482" y="-10" type="curve"/>
			<point x="564" y="24" type="line"/>
			<point x="564" y="54" type="line"/>
			<point x="562" y="55" type="line"/>
			<point x="535" y="78"/>
			<point x="532" y="96"/>
			<point x="532" y="145" type="curve"/>
			<point x="532" y="383" type="line" smooth="yes"/>
			<point x="532" y="413"/>
			<point x="438" y="465"/>
			<point x="408" y="465" type="curve"/>
			<point x="345" y="455" type="line"/>
			<point x="152" y="455" type="line"/>
			<point x="152" y="618" type="line"/>
			<point x="299" y="605" type="line"/>
			<point x="365" y="673" type="line"/>
			<point x="365" y="695" type="line"/>
			<point x="184" y="700" type="line"/>
			<point x="139" y="676"/>
			<point x="93" y="647"/>
			<point x="53" y="606" type="curve"/>
			<point x="53" y="368" type="line" smooth="yes"/>
			<point x="53" y="285"/>
			<point x="58" y="92"/>
			<point x="50" y="0" type="curve"/>
			<point x="158" y="0" type="line"/>
			<point x="150" y="92"/>
			<point x="153" y="297"/>
			<point x="153" y="375" type="curve"/>
			<point x="372" y="375" type="line" smooth="yes"/>
			<point x="416" y="375"/>
			<point x="429" y="343"/>
			<point x="431" y="309" type="curve"/>
			<point x="223" y="153" type="line"/>
			<point x="235" y="94"/>
			<point x="251" y="39"/>
		</contour>
		<contour>
			<point x="358" y="83" type="curve"/>
			<point x="358" y="83" type="line"/>
			<point x="331" y="105"/>
			<point x="314" y="144"/>
			<point x="314" y="177" type="curve"/>
			<point x="353" y="217"/>
			<point x="392" y="249"/>
			<point x="431" y="276" type="curve"/>
			<point x="432" y="142" type="line"/>
			<point x="407" y="116"/>
			<point x="383" y="96"/>
		</contour>
	</outline>
</glyph>
<glyph name="f_e" format="2">
	<advance width="564"/>
	<outline>
		<contour>
			<point x="395" y="-10" type="curve"/>
			<point x="395" y="-10" type="line"/>
			<point x="439" y="14"/>
			<point x="504" y="47"/>
			<point x="554" y="77" type="curve"/>
			<point x="544" y="107" type="line"/>
			<point x="453" y="83"/>
			<point x="396" y="105"/>
			<point x="369" y="166" type="curve"/>
			<point x="539" y="310" type="line"/>
			<point x="546" y="337" type="line"/>
			<point x="513" y="382"/>
			<point x="461" y="435"/>
			<point x="406" y="467" type="curve"/>
			<point x="405" y="467" type="line"/>
			<point x="306" y="454" type="line"/>
			<point x="152" y="453" type="line"/>
			<point x="152" y="618" type="line"/>
			<point x="299" y="605" type="line"/>
			<point x="365" y="673" type="line"/>
			<point x="365" y="695" type="line"/>
			<point x="184" y="700" type="line"/>
			<point x="139" y="676"/>
			<point x="93" y="647"/>
			<point x="53" y="606" type="curve"/>
			<point x="53" y="368" type="line" smooth="yes"/>
			<point x="53" y="285"/>
			<point x="58" y="92"/>
			<point x="50" y="0" type="curve"/>
			<point x="158" y="0" type="line"/>
			<point x="150" y="92"/>
			<point x="153" y="287"/>
			<point x="153" y="365" type="curve"/>
			<point x="262" y="365" type="line"/>
			<point x="264" y="308"/>
			<point x="270" y="209"/>
			<point x="265" y="93" type="curve"/>
			<point x="293" y="56"/>
			<point x="336" y="25"/>
		</contour>
		<contour>
			<point x="358" y="200" type="curve"/>
			<point x="358" y="200" type="line"/>
			<point x="356" y="207"/>
			<point x="354" y="216"/>
			<point x="353" y="224" type="curve"/>
			<point x="348" y="259"/>
			<point x="343" y="343"/>
			<point x="352" y="395" type="curve"/>
			<point x="386" y="391"/>
			<point x="447" y="333"/>
			<point x="450" y="300" type="curve"/>
			<point x="452" y="278"/>
			<point x="423" y="251"/>
		</contour>
	</outline>
</glyph>
<glyph name="f_l" format="2">
	<advance width="473"/>
	<outline>
		<contour>
			<point x="384" y="-10" type="curve"/>
			<point x="384" y="-10" type="line"/>
			<point x="414" y="11"/>
			<point x="444" y="32"/>
			<point x="463" y="47" type="curve"/>
			<point x="463" y="67" type="line"/>
			<point x="421" y="87"/>
			<point x="407" y="100"/>
			<point x="402" y="150" type="curve"/>
			<point x="392" y="248"/>
			<point x="397" y="620"/>
			<point x="403" y="697" type="curve"/>
			<point x="402" y="701" type="line"/>
			<point x="287" y="701" type="line"/>
			<point x="287" y="690"/>
			<point x="288" y="672"/>
			<point x="288" y="650" type="curve"/>
			<point x="245" y="658"/>
			<point x="201" y="666"/>
			<point x="164" y="668" type="curve"/>
			<point x="128" y="644"/>
			<point x="93" y="609"/>
			<point x="53" y="568" type="curve"/>
			<point x="53" y="368" type="line" smooth="yes"/>
			<point x="53" y="285"/>
			<point x="58" y="92"/>
			<point x="50" y="0" type="curve"/>
			<point x="158" y="0" type="line"/>
			<point x="150" y="92"/>
			<point x="153" y="286"/>
			<point x="153" y="364" type="curve"/>
			<point x="295" y="364" type="line"/>
			<point x="297" y="253"/>
			<point x="299" y="137"/>
			<point x="297" y="52" type="curve"/>
			<point x="316" y="34"/>
			<point x="345" y="7"/>
		</contour>
		<contour>
			<point x="293" y="445" type="curve"/>
			<point x="152" y="445" type="line"/>
			<point x="152" y="583" type="line"/>
			<point x="194" y="583"/>
			<point x="245" y="574"/>
			<point x="291" y="553" type="curve"/>
			<point x="292" y="520"/>
			<point x="292" y="483"/>
		</contour>
	</outline>
</glyph>
<glyph name="f_o" format="2">
	<advance width="711"/>
	<note>
		f_o
  </note>
	<outline>
		<contour>
			<point x="469" y="465" type="curve"/>
			<point x="469" y="465" type="line"/>
			<point x="152" y="465" type="line"/>
			<point x="152" y="618" type="line"/>
			<point x="200" y="618"/>
			<point x="249" y="613"/>
			<point x="299" y="605" type="curve"/>
			<point x="365" y="679" type="line"/>
			<point x="365" y="695" type="line"/>
			<point x="305" y="696"/>
			<point x="244" y="697"/>
			<point x="184" y="700" type="curve"/>
			<point x="139" y="676"/>
			<point x="93" y="637"/>
			<point x="53" y="596" type="curve"/>
			<point x="53" y="368" type="line" smooth="yes"/>
			<point x="53" y="285"/>
			<point x="58" y="92"/>
			<point x="50" y="0" type="curve"/>
			<point x="158" y="0" type="line"/>
			<point x="150" y="92"/>
			<point x="153" y="297"/>
			<point x="153" y="375" type="curve"/>
			<point x="326" y="375" type="line"/>
			<point x="287" y="330"/>
			<point x="260" y="273"/>
			<point x="260" y="217" type="curve"/>
			<point x="260" y="107"/>
			<point x="339" y="1"/>
			<point x="500" y="-10" type="curve"/>
			<point x="589" y="68"/>
			<point x="686" y="108"/>
			<point x="686" y="258" type="curve"/>
			<point x="686" y="356"/>
			<point x="602" y="461"/>
		</contour>
		<contour>
			<point x="541" y="83" type="curve"/>
			<point x="541" y="83" type="line"/>
			<point x="430" y="82"/>
			<point x="341" y="161"/>
			<point x="341" y="271" type="curve"/>
			<point x="341" y="310"/>
			<point x="358" y="362"/>
			<point x="393" y="380" type="curve"/>
			<point x="507" y="393"/>
			<point x="606" y="307"/>
			<point x="606" y="217" type="curve"/>
			<point x="606" y="157"/>
			<point x="582" y="112"/>
		</contour>
	</outline>
</glyph>
<glyph name="f_r" format="2">
	<advance width="553"/>
	<note>
		f_r
  </note>
	<outline>
		<contour>
			<point x="50" y="0" type="curve"/>
			<point x="50" y="0" type="line"/>
			<point x="158" y="0" type="line"/>
			<point x="150" y="92"/>
			<point x="153" y="294"/>
			<point x="153" y="372" type="curve"/>
			<point x="200" y="372"/>
			<point x="249" y="373"/>
			<point x="271" y="343" type="curve"/>
			<point x="271" y="0" type="line"/>
			<point x="373" y="0" type="line"/>
			<point x="367" y="108"/>
			<point x="371" y="212"/>
			<point x="371" y="320" type="curve"/>
			<point x="411" y="353"/>
			<point x="446" y="343"/>
			<point x="472" y="296" type="curve"/>
			<point x="477" y="296" type="line"/>
			<point x="548" y="375" type="line"/>
			<point x="540" y="408"/>
			<point x="518" y="437"/>
			<point x="491" y="465" type="curve"/>
			<point x="486" y="465" type="line"/>
			<point x="370" y="364" type="line"/>
			<point x="370" y="461" type="line"/>
			<point x="368" y="465" type="line"/>
			<point x="296" y="457"/>
			<point x="224" y="455"/>
			<point x="152" y="455" type="curve"/>
			<point x="152" y="618" type="line"/>
			<point x="200" y="618"/>
			<point x="249" y="613"/>
			<point x="299" y="605" type="curve"/>
			<point x="365" y="679" type="line"/>
			<point x="365" y="695" type="line"/>
			<point x="305" y="696"/>
			<point x="244" y="697"/>
			<point x="184" y="700" type="curve"/>
			<point x="139" y="676"/>
			<point x="93" y="637"/>
			<point x="53" y="596" type="curve"/>
			<point x="53" y="368" type="line" smooth="yes"/>
			<point x="53" y="285"/>
			<point x="58" y="92"/>
		</contour>
	</outline>
</glyph>
